<svg id="图层_1" data-name="图层 1" xmlns="http://www.w3.org/2000/svg" viewBox="0 0 480 320"><defs><style>.cls-1{fill:#e4e8ee;}</style></defs><title>未标题-1</title><path class="cls-1" d="M175.5-.5c-12.49,15.65-34.66,38.5-68,52-28.23,11.43-46.57,8.92-52,8-8-1.36-19-3.36-28-12-17.77-17-12.65-44.73-12-48Z" transform="translate(-14.32 0.5)"/><path class="cls-1" d="M389,90c-34.31-25.72-101.95-6.31-127,30-8.15,11.82-10.52,23.58-26,36-13.42,10.77-20.26,8.86-37,21-13.43,9.74-29.22,21.2-29,37s16.25,28.37,29,33c16.28,5.91,31.41.33,35-1,13-4.79,13.3-10.76,28-17,11.69-5,21.82-5.58,30-6,20.87-1.08,28,4.32,45,6,9.14.9,38.27,3.79,58-12,30.4-24.33,19-77.46,18-82C410.08,122.18,405.58,102.43,389,90Z" transform="translate(-14.32 0.5)"/><path class="cls-1" d="M13,93" transform="translate(-14.32 0.5)"/></svg>