<svg xmlns="http://www.w3.org/2000/svg" viewBox="0 0 300 80"><defs><style>.cls-1{fill:#fff;}.cls-2{fill:none;}</style></defs><g id="图层_2" data-name="图层 2"><g id="图层_1-2" data-name="图层 1"><g id="活力悦动体"><g id="活力悦动体-2" data-name="活力悦动体"><path class="cls-1" d="M24.23,39.3c-.2-.09-.4-.16-.58-.23-1.17-.49-2-.89-2.6-1.2L20,37a12.27,12.27,0,0,1-2-1.8,12.17,12.17,0,0,1,1.8-2.65l1-1.25.65-.6,1.66,1.53A13.14,13.14,0,0,0,25,33.74a15.16,15.16,0,0,1,2.15,1.67,3.08,3.08,0,0,1,.91,1.9l-.6,2.83a.87.87,0,0,1-.61,0,3.62,3.62,0,0,1-.65-.33,2.25,2.25,0,0,0-.92-.37,1.09,1.09,0,0,0-.47.09Zm5.26-.23a2.94,2.94,0,0,1,0,.37c0,.19,0,.17.23,0A4.51,4.51,0,0,1,29.91,41a10.91,10.91,0,0,1-.1,1.12q-1,2.86-1.9,6.21-1.25,4.35-2.18,7a27.85,27.85,0,0,1-2.08,4.73l-3.06-2.69-.14-1.62A8.37,8.37,0,0,1,20.82,54c.19-.55.4-1.1.63-1.64L22,51.17l.79-1.39A10.06,10.06,0,0,0,24,47.28l.23-.56a14.31,14.31,0,0,0,1-1.62c.34-.62.65-1.22.93-1.81l.55-1.11L29.49,39ZM27.61,25.22a14.7,14.7,0,0,0,1.14,1.16A9.49,9.49,0,0,1,30.16,28a2.74,2.74,0,0,1,.39,1.65,1.93,1.93,0,0,0-.13.58,3,3,0,0,1-.14.62.58.58,0,0,1-.37.33.53.53,0,0,1,0,.23,1,1,0,0,1-.25.58,1.77,1.77,0,0,0-.3.53A13.94,13.94,0,0,1,24.83,30a27.54,27.54,0,0,1-4.1-4.22l1.53-1.57.37-.05c.19,0,.15-.08-.09-.14l1.34-1.2L25,21.88l2,2.27A3.66,3.66,0,0,0,27.61,25.22Zm-3.5,34.43v-.09Q24.4,59.27,24.11,59.65Zm34.2-24.28L56,35.64l1.57.1a12.43,12.43,0,0,1-2.87.83c-1,.16-2.27.31-3.94.46s-2.69.25-3.43.37l-.23.89,0,.41c0,.13-.08.23-.24.33a8.37,8.37,0,0,0,.1,1.06,7.85,7.85,0,0,1,.14,1.49,3.59,3.59,0,0,1-.24,1.34l.65.37a21.81,21.81,0,0,0,3,.19l2,0c.43,0,1.1,0,2,0a18.86,18.86,0,0,1,3.66.33l-.32.6a6.41,6.41,0,0,0-.05.86,1.82,1.82,0,0,1,0,.58,1.87,1.87,0,0,0-.42,1,1.29,1.29,0,0,0,.14.56c-.09.37-.2.95-.33,1.76-.12.62-.26,1.26-.41,1.92a8.79,8.79,0,0,1-.56,1.69c-.06.19-.21.77-.44,1.74a7.48,7.48,0,0,1-1,2.48A4.19,4.19,0,0,1,53,58.35l-.18,0a1.62,1.62,0,0,0-.58.13q-.34.15-.3,0l-.37.38-.23-2.6c-.31.06-.75.12-1.3.19l-1,.16a3.43,3.43,0,0,0-1.25.35l-9.64.92a2.91,2.91,0,0,1-.49.23.58.58,0,0,0-.39.47l-.19,0h-.3c-.14,0-.22,0-.23.05s.05.09.21.19a2.73,2.73,0,0,1-1.09.55,6.8,6.8,0,0,0-1,.33,24.56,24.56,0,0,1-1.16-3.78C33.2,54.64,32.9,53,32.59,51c0-.43,0-1.1,0-2V47.55A15.4,15.4,0,0,1,33.15,43a1.69,1.69,0,0,1,.58.16,1.64,1.64,0,0,0,.58.16c.12,0,.26-.09.42-.28l.64.47.33-.37a19.08,19.08,0,0,1,3.61-.28l2.92,0-.79-5c-.68,0-1.69.11-3,.23-2.48.25-4.36.37-5.66.37-.77,0-1.36,0-1.76,0l.09-.51h.7l-.83-.23a2.4,2.4,0,0,1,.13-.32.63.63,0,0,0,.1-.28.33.33,0,0,0-.23-.32,3.67,3.67,0,0,0,.18-1.21,7.79,7.79,0,0,0-.09-1c.06,0,.12-.16.18-.37a.85.85,0,0,1,.19-.4c.06,0,.15.06.28.3l.51-.51a17.67,17.67,0,0,1,2.75-.34c1,0,2.11-.07,3.5-.07s2.33,0,3,0l.19-6.63a11.38,11.38,0,0,1-2,.63c-.68.14-1.65.32-2.92.53l-1,.14c-.4.06-.87.16-1.39.28a.92.92,0,0,0-.05-.28.74.74,0,0,1,0-.23c0-.18.12-.23.37-.14l-.47-.23.47-.32-.42-.28a1.45,1.45,0,0,0,0-.54,2.56,2.56,0,0,1-.07-.53.59.59,0,0,1,.51-.6l-.47-.28a1.63,1.63,0,0,1,.12-.51.56.56,0,0,0-.07-.56l.46-.64A51.27,51.27,0,0,1,41,22l3.2-.41c.71-.07,1.77-.13,3.19-.19a46.61,46.61,0,0,0,6-.6l1.3-.05,2.73.14A3.25,3.25,0,0,1,56,22.62a17.31,17.31,0,0,1-3.6,1.46c-1.25.36-2.83.74-4.75,1.14a14.66,14.66,0,0,1,.14,2.13q0,1-.18,3.15a26.14,26.14,0,0,0-.19,2.73,42.48,42.48,0,0,0,5.75.28l2.48.05a27.7,27.7,0,0,1,4.05.37ZM38.2,54s0,0-.09,0V54Q38.2,54,38.2,54Zm9.57-7.42c-.42,0-.75,0-1,0A37,37,0,0,1,41.4,47c-.93,0-1.84.05-2.74.14l-.09,7.14L51.41,54c.06-1.12.12-2,.18-2.51.13-1.73.19-3,.19-3.89,0-.59,0-1-.05-1.3l-.41-.09-1.07.32a3.11,3.11,0,0,1-.67-.07A3.7,3.7,0,0,0,49,46.4c-.18,0-.25,0-.18.13A4.11,4.11,0,0,1,47.77,46.53Zm-9,.14a4.75,4.75,0,0,0,.78.1,7.45,7.45,0,0,0,.79-.05,7.45,7.45,0,0,1,.79,0l-1.2,0Z"/><path class="cls-1" d="M111.51,34a68,68,0,0,1-2.22,6.58c-.84,2.13-1.39,3.64-1.67,4.54q-.56,1-1.11,2.34c-.37.88-.62,1.47-.74,1.78q-1.11,2.74-2,4.47A17.2,17.2,0,0,1,101.69,57l-.46.16a2.25,2.25,0,0,0-.56.28,1.18,1.18,0,0,0-.37.4l-.28,0h-.44a.69.69,0,0,0-.35,0s0,.11.23.23l-.83.14a10.33,10.33,0,0,0,.09-1.11c0-.19,0-.56,0-1.12a4.6,4.6,0,0,1,.16-1.45,3.29,3.29,0,0,1,.6-1.14,2.39,2.39,0,0,0,.07-.44,1.44,1.44,0,0,1,.1-.42.35.35,0,0,1,.3-.21l-.1-.46,1.67-4.63c.31-1.12.53-2,.65-2.55a36.1,36.1,0,0,1,1.39-4.59l.65-2.64a35.48,35.48,0,0,1,1.39-5l-.74-.23a1.43,1.43,0,0,0-.42.11c-.18.08-.29,0-.32-.11-1,.21-2.66.41-4.82.6a48.3,48.3,0,0,0-4.87.6l-2.68,6.86q-3.53,9.45-5.52,14.46l-1,1.71A15.92,15.92,0,0,1,84.1,58.4a5.17,5.17,0,0,1-1.18,1.2,1.45,1.45,0,0,1-.58.23c-.26.07-.39.13-.39.19s-.17.14-.23.14a.4.4,0,0,1-.28-.14c-.1-.09-.17-.14-.23-.14s-.1.16,0,.46a.45.45,0,0,1-.38.19,1,1,0,0,1-.37-.07.94.94,0,0,0-.37-.07l.14-.65a.35.35,0,0,1-.23-.35V59a1.2,1.2,0,0,1,.12-.46,1.43,1.43,0,0,0,.11-.42c0-.09-.07-.14-.23-.14a.63.63,0,0,1,0-.28,1.28,1.28,0,0,1,.24-.69,3.73,3.73,0,0,1,.32-.47,7.76,7.76,0,0,0,.21-.88,1.19,1.19,0,0,1,.39-.78l1.62-6.17c.38-1.29.9-3,1.58-5,.74-2.26,1.31-4.07,1.69-5.45a25.23,25.23,0,0,0,.81-4,6.11,6.11,0,0,0-.6.17,2.32,2.32,0,0,1-.56.11,1.62,1.62,0,0,1-.37-.09,1.24,1.24,0,0,0-.37.25.35.35,0,0,1-.46.07.53.53,0,0,1,.23,0,.41.41,0,0,0,.21,0s0-.09-.07-.18h-1l-.23.41-5.14.33a.54.54,0,0,1-.38.14,1.17,1.17,0,0,1-.3,0,1.27,1.27,0,0,0-.34,0,.59.59,0,0,0-.42.19l-.14,0a.4.4,0,0,1-.32-.16.88.88,0,0,0-.26-.21c-.08,0-.18,0-.3.1l-.23-.47v-.14l0-.41c0-.22.12-.34.37-.37-.21-.1-.32-.22-.32-.37a1,1,0,0,1,.07-.35c0-.14.08-.26.11-.35a2.79,2.79,0,0,0,0-.72c0-.32,0-.59,0-.81,0-.43.09-.68.27-.74l.28-.65a88.79,88.79,0,0,1,12.79-1.16A23.29,23.29,0,0,1,90.15,26c.4-1,.8-1.93,1.2-2.83l.56-1.3a4.76,4.76,0,0,1,.42-.46c.18-.18.23-.34.14-.46a4.93,4.93,0,0,0,.44-.74,1.18,1.18,0,0,1,.67-.65l.37-.05a6.29,6.29,0,0,0,1,.14l.85.05a9,9,0,0,1,2,.23c.45.12.64.35.58.69V22A7.8,7.8,0,0,0,98,23.22c0,.13-.13.45-.3,1a6.13,6.13,0,0,1-.58,1.3l-.74,2.87,3.29.14c2.47.12,4.31.18,5.51.18.8,0,1.41,0,1.81,0a4.72,4.72,0,0,0,.58-.17,2.06,2.06,0,0,1,.53-.11.62.62,0,0,1,.46.18l3.48.05A17.23,17.23,0,0,1,111.51,34Zm-34.75-.61L76,33.28l-.09.09Zm-.19.79-.14-.09C76.37,34.22,76.42,34.25,76.57,34.16Zm.49,1.07s0,0-.16,0l-.05.09Zm6.28-.65-.14,0-.84.28ZM96.82,19.79c.22,0,.23,0,.05,0Z"/><path class="cls-1" d="M141,33c.65.56,1.17,1,1.56,1.42a8.59,8.59,0,0,1,1,1.27l-.88,2.09-1.25-.56a7.85,7.85,0,0,0-2-.88c-.19,1.45-.37,3.66-.56,6.63-.06,1.23-.12,2.19-.18,2.87a5,5,0,0,0-.37,2c0,.28,0,.64,0,1.07a6.81,6.81,0,0,1,0,1.11,10.43,10.43,0,0,0-.09,1.2,13.7,13.7,0,0,1-.14,1.4,3.43,3.43,0,0,1-.37,1.06,1.62,1.62,0,0,1,.05.46,7.8,7.8,0,0,1-.1.91,2,2,0,0,0,0,.86l-.23,1.57c-.18.19-.44.47-.76.86a1.87,1.87,0,0,1-.91.67.57.57,0,0,1-.6.42l-.51-.05-.42.44a.67.67,0,0,1-.6.26l0-3.2q0-4.08.13-8.95t.19-6.44c.12-2.81.22-5.65.28-8.52a13,13,0,0,0-.88,3.56,16.15,16.15,0,0,1-1.07,3.92,3.85,3.85,0,0,1-2.36,2,.5.5,0,0,1-.26.3,1,1,0,0,1-.44.11.88.88,0,0,1-.46-.09V41.11l0-6.76a3,3,0,0,0,.13-.93,8.92,8.92,0,0,1,.21-1.11,1.27,1.27,0,0,1,.49-.65c.65,0,1.14,0,1.48,0l1.49.05a7.81,7.81,0,0,0,1.71-.14c.06-1.11.12-1.94.19-2.5.09-1.51.2-3.07.34-4.68s.32-3.07.54-4.4h.37L136,20a.51.51,0,0,1,.3.14.63.63,0,0,0,.28.16c.08,0,.13-.05.16-.21a2.17,2.17,0,0,0,.49,0l.35,0a1,1,0,0,1,.83.33l.23,0,.88,0c.16,0,.25,0,.28.07s0,.14-.09.3a6.06,6.06,0,0,1,.23,1.76l0,1.44c-.06.68-.09,1.17-.09,1.48a6.46,6.46,0,0,0,.09,1.25,13.76,13.76,0,0,0-.23,2.69V31.7Zm-7,26.6,0,.1C134.05,59.76,134.07,59.73,134,59.6Zm6.14-27.08-.21-.17v0Zm30.33,20a15.12,15.12,0,0,1-4.45,4,33.35,33.35,0,0,1-6.12,2.83l-.93.23-.48.14a2.51,2.51,0,0,1-.63.09,2,2,0,0,1-.69-.14,39.71,39.71,0,0,1-.88-6.58c-.13-1.54-.24-2.7-.33-3.47a14.64,14.64,0,0,1,.05-2l0-1.53a6.17,6.17,0,0,0-.37-2.36A68.39,68.39,0,0,0,152,51.72a1.66,1.66,0,0,1-.37.45c-.19.16-.23.33-.14.48l-.6,1.35c-.78,1.73-1.24,2.73-1.39,3a1.49,1.49,0,0,1-.56.92c-.34.31-.51.5-.51.56a1.56,1.56,0,0,1-.74.6c-.34.16-.59.28-.74.37a.79.79,0,0,1-.51.19,1,1,0,0,1-.4-.09.69.69,0,0,0-.3-.1.56.56,0,0,1-.51.33,2.7,2.7,0,0,1-.51-.09,50.08,50.08,0,0,1,1.63-6.35c.67-2.07,1.62-4.67,2.82-7.79l.42-1.16a1.63,1.63,0,0,0-.51.12.55.55,0,0,1-.56-.07.83.83,0,0,1-.44.46,4.56,4.56,0,0,1-.81.26,4.52,4.52,0,0,0-.74.21A10.56,10.56,0,0,1,145.11,42c-.25-1.16-.49-2.79-.74-4.89,0-.53,0-1.32,0-2.37a34.83,34.83,0,0,1,.27-5.09,9.92,9.92,0,0,1,2.07-.44,21.92,21.92,0,0,1,2.47-.12A22.78,22.78,0,0,0,151.6,29l-3-3.66a4.8,4.8,0,0,0-.46-1,3.25,3.25,0,0,1-.39-.67,1.55,1.55,0,0,1-.17-.67,1.29,1.29,0,0,1,.14-.56,3.62,3.62,0,0,1,.65-.34,5.61,5.61,0,0,0,.72-.38,1,1,0,0,0,.39-.48l.56,0a4.58,4.58,0,0,1,.44-.67c.14-.17.32-.18.53,0l.47.65a1.69,1.69,0,0,0,.11.3c.08.17,0,.21-.11.11l.41.33,2,4.26a3.77,3.77,0,0,0-.19.77,4,4,0,0,1-.2.83.38.38,0,0,1-.44.21l0,.65-.74.23a33.25,33.25,0,0,0,3.66.19h2.88l.64-2,1-2.13c.4-.93.89-2,1.48-3.2a2.53,2.53,0,0,1,.74-.79,1.58,1.58,0,0,1,.93-.32,1.24,1.24,0,0,1,.92.41c.19.06.48.14.86.23a1.27,1.27,0,0,1,.81.51.47.47,0,0,1,.33-.14,1.1,1.1,0,0,1,.44.19,1.1,1.1,0,0,0,.44.19l-.33,1-2.59,3.34c-.19.19-.47.5-.86.93a10.3,10.3,0,0,1-1.13,1.09,4.58,4.58,0,0,1-1.16.67l3,.09A4.66,4.66,0,0,0,165,29a2,2,0,0,1,.6-.12.76.76,0,0,1,.42.1.61.61,0,0,1,.32-.3,1.91,1.91,0,0,1,.53-.1,1,1,0,0,0,.54-.16l.32.37a2.74,2.74,0,0,1,1.58-.23c.15,0,.24.15.28.35a3.27,3.27,0,0,0,.09.44c-.28,1.51-.66,3.13-1.14,4.84l-.9,3.22-.37,1.3a4.69,4.69,0,0,0-.46,1.11q-.24.55-.54,1.14a4.07,4.07,0,0,1-.72,1h-.09a.38.38,0,0,0-.35.21,1.22,1.22,0,0,1-.16.26,2.26,2.26,0,0,1-1.25.37,6.67,6.67,0,0,1-.93-.1,7.72,7.72,0,0,0-.92-.09,2.54,2.54,0,0,0-1.25.33,13.46,13.46,0,0,0,0,1.48,11.87,11.87,0,0,1-.23,2.83l.09.64a.47.47,0,0,0-.19.38.84.84,0,0,0,.14.41l-.27,5.61c0,.06-.09.17-.17.32a.32.32,0,0,0,.12.42v.09a2,2,0,0,1-.05.37.41.41,0,0,0,0,.33c0,.06.14,0,.3-.05a13.92,13.92,0,0,0,3-1.06l1.58-.65a5.21,5.21,0,0,1,.67-.33,3.84,3.84,0,0,0,.67-.34,1.08,1.08,0,0,0,.42-.44l.69-.47a1,1,0,0,0,.49,0,1.51,1.51,0,0,1,.49-.1.61.61,0,0,1,.51.28ZM152.15,41.32l2-.11c2-.1,3.6-.2,4.89-.31a25.22,25.22,0,0,0,3.73-.58l1.2-8.66h-.55l-.61.09a36.71,36.71,0,0,0-6.21.65c-.86.06-1.49.09-1.9.09-2.1.13-3.69.25-4.77.37a5.68,5.68,0,0,1,0,.61c0,.18-.07.34-.1.46s-.06.35-.09.58a6.27,6.27,0,0,0,0,.81,2.79,2.79,0,0,0,.24,1.2c0,.38,0,.9-.1,1.58s-.09,1.28-.09,1.62a5.78,5.78,0,0,0,.23,1.76C150.55,41.42,151.29,41.37,152.15,41.32Zm-1.75.58a.66.66,0,0,0-.24-.09v.09C150.35,41.93,150.42,41.93,150.4,41.9Zm8.89-12.74s.05,0,.14-.05l0-.09C159.32,29.08,159.29,29.13,159.29,29.16Zm.37-.24s0,0,.05,0,.12,0,.19-.14a.31.31,0,0,0,0-.28l-.19.19Zm.47,18.77s0-.06-.1-.09v0C160.09,47.71,160.13,47.72,160.13,47.69ZM167,28.88c.34,0,.36,0,.05-.05Z"/><path class="cls-1" d="M225.51,30.41a.6.6,0,0,1,.14.34.44.44,0,0,0,.28.35,149,149,0,0,1-5,19.88L220,53.07a8.71,8.71,0,0,1-1.9,2.85,4.87,4.87,0,0,1-2.62,1.32,2.14,2.14,0,0,1,0-.7,5.17,5.17,0,0,0,.07-.69,1.8,1.8,0,0,0-.19-.79,35.51,35.51,0,0,0,1.69-5.49q.63-2.8,1.37-7c.06-.4.27-1.58.63-3.55a51.41,51.41,0,0,1,1.27-5.44l-4.59.46q-1.11,3.52-2.22,7.46-1.44,5-2.48,8.23c-.7,2.18-1.49,4.33-2.39,6.46a6.73,6.73,0,0,0-.6.79c-.43.74-.87,1.16-1.3,1.25a1.79,1.79,0,0,1-.76.56,3.41,3.41,0,0,1-.63.23l-.83.33-.14-2.88a14.94,14.94,0,0,0,.81-2.18c.2-.71.45-1.76.76-3.15.16-.74.37-1.65.65-2.73l.33-.93c.15-.37.28-.72.39-1s.09-.47-.07-.44c.47-2.29,1-4.79,1.67-7.51l.83-3.75-3.89,0L205.77,32l-.79.19a2,2,0,0,1,.14.35A.35.35,0,0,1,205,33a7.16,7.16,0,0,1-2.75,1.48,23.91,23.91,0,0,1-3.83.65c-.58.06-1.43.18-2.55.37A31.3,31.3,0,0,1,194,40.93a2.2,2.2,0,0,1-.32.48c-.19.24-.23.43-.14.58-.71,1.52-1.67,4-2.88,7.46l1.44-.92c-.52.34-.79.55-.79.65s.13,0,.37,0,.47-.34.95-.65a2.06,2.06,0,0,0,.86-.84l3.11-1.34-.51-3.94,1.43-.19a1.91,1.91,0,0,1,.47.07,1.47,1.47,0,0,0,.46.07.59.59,0,0,0,.51-.23.88.88,0,0,1,.37.19,1,1,0,0,0,.37.18c.09,0,.14-.12.14-.37l.46,0a.62.62,0,0,1,.24.41.3.3,0,0,1-.17.28.19.19,0,0,1-.25,0,1.1,1.1,0,0,1,.07.3c0,.14.05.23.11.26s.16,0,.28-.1l.28.65a6.28,6.28,0,0,1,0,.91,1.08,1.08,0,0,0,.27.85l.42,2a.4.4,0,0,0-.14.27.85.85,0,0,0,.14.38.29.29,0,0,1,0,.37l.7,3a1.76,1.76,0,0,1-.63.93,6.89,6.89,0,0,1-1,.63c-.38.2-.7.38-1,.53a10.12,10.12,0,0,1-1.13-1.9c-.3-.65-.66-1.56-1.09-2.73-2.13,1.42-4,2.61-5.59,3.59A50,50,0,0,1,187,55.39a1.51,1.51,0,0,0-.74.11,2.74,2.74,0,0,1-.69.16.49.49,0,0,1-.47-.37l.51-.32-.51-.14a1.78,1.78,0,0,0,0-.49c0-.2,0-.34,0-.44a1,1,0,0,1,.24-.74,1.33,1.33,0,0,1-.14-.65,1.36,1.36,0,0,1,.2-.76.84.84,0,0,1,.63-.35,46.24,46.24,0,0,1,1.07-4.66c.43-1.53,1-3.43,1.71-5.72s1.17-3.8,1.48-4.91l-.83.07a3.69,3.69,0,0,0-.81.11,1.46,1.46,0,0,0-.63.37l-3.33,0-.1-3.9.31-.25c.13-.11.16-.22.07-.35a30.75,30.75,0,0,1,3.47-.44c1.17-.08,2.56-.11,4.17-.11,1.39,0,2.43,0,3.11-.05l-.79.18,6.12.1-2.69-.19c1.14,0,2.82,0,5,.14l2.18.09a2.29,2.29,0,0,0,.14-.62,3.13,3.13,0,0,1,.13-.7.57.57,0,0,1,.38-.34l4.68-.19.78-2.83c.34-1.32.65-2.42.91-3.29a15.86,15.86,0,0,1,1-2.5,1.78,1.78,0,0,0,.28-.37.45.45,0,0,1,.47-.23h.18l.37,0,.14.88a2.26,2.26,0,0,0,.12-.32.91.91,0,0,1,.18-.37.44.44,0,0,1,.35-.14A1.05,1.05,0,0,1,216,21a.58.58,0,0,0,.35.07c.08,0,.09-.08,0-.21a2.59,2.59,0,0,0,1.39.24,7,7,0,0,1,1.16,0,13.54,13.54,0,0,1-.34,2.66c-.21.85-.51,2-.91,3.45-.31,1-.58,2-.83,3.06l4.21.19a7.11,7.11,0,0,1,1.77-.19c.52,0,1.31,0,2.36.09A.45.45,0,0,1,225.51,30.41ZM184.83,34.9l-.05-.09C184.72,35,184.73,35,184.83,34.9Zm2.27-6a.39.39,0,0,1-.42-.27,1.44,1.44,0,0,1,.09-.42,1.58,1.58,0,0,0,.09-.42.45.45,0,0,0-.18-.37,4.49,4.49,0,0,0,.12-1.23q0-.72,0-1v-.65A.79.79,0,0,1,187,24h1a52.28,52.28,0,0,0,5.28.23l5.8-.05c1.88,0,3.56.06,5.05.19a.85.85,0,0,1-.65.32,1.31,1.31,0,0,1-.39-.05.9.9,0,0,0-.4,0l1.16.24a5.08,5.08,0,0,1-.79.58,1.68,1.68,0,0,1-.79.2l.79.05L200.12,27c-1.48.28-2.72.53-3.71.75l-3,.57c-1.55.3-3,.51-4.27.63a3,3,0,0,1-.53-.09c-.26-.06-.38,0-.35.14h-.09l-.46,0a.46.46,0,0,1-.38-.18Zm4.58,20.35s0,0,.14,0v-.09C191.73,49.21,191.68,49.24,191.68,49.27Zm7.7,4c.09.06.14.09.14.07s-.05,0-.14-.12Zm10.4-1c-.05.11,0,.12.16,0l0-.23A.92.92,0,0,0,209.78,52.3Z"/><path class="cls-1" d="M249.61,42.46q0,1-.18,2.82c0,.31-.07.7-.1,1.16s0,1,0,1.62a12.79,12.79,0,0,0,.14,1.95,9.54,9.54,0,0,1-.17,1,5.19,5.19,0,0,0-.11.88,2.6,2.6,0,0,0,.09.56,1.54,1.54,0,0,0-.14.74,5.55,5.55,0,0,0,.05.72,5.12,5.12,0,0,1,0,.67,10.53,10.53,0,0,1-.48,2.55,3.22,3.22,0,0,1-1.32,1.62,4.06,4.06,0,0,0-.79.26,6.11,6.11,0,0,1-.79.27,1.53,1.53,0,0,1-.79,0q-.18-5.79-.32-8.53-.37-9-.37-13.48,0-3,.14-6l-2.23.23a2.62,2.62,0,0,0-.78-.16,2.82,2.82,0,0,1-.84-.19c-.15-.07-.12-.22.09-.44l-1.06.05a31.42,31.42,0,0,1,2.73-3.18q1.49-1.5,3.57-3.5l1.58-1.55c.58-.57,1.22-1.19,1.9-1.87l1-.79V20c0,.19.15.32.46.39s.34.14.09.17l.47.83,1,.32a2,2,0,0,0,.44.33,2.63,2.63,0,0,1,.51.39.86.86,0,0,1,.25.49L254,23c.19,0,.22.1.1.16l1.11.65a11.15,11.15,0,0,1-1.55,1.36c-.61.45-1.2.88-1.79,1.28s-1.19.79-1.71,1.16L250,31.89c0,1.55-.08,3.14-.14,4.77s-.17,3.14-.32,4.5C249.6,41.47,249.61,41.9,249.61,42.46Zm0-4.08,0,1,.09-.7ZM282,49l-1.2,1.76a1.58,1.58,0,0,1-.46.16,1.35,1.35,0,0,0-.49.19.38.38,0,0,0-.16.34,7.6,7.6,0,0,1-1.62-1,2,2,0,0,1-.14-.35c-.07-.17-.08-.11-.05.16a4.48,4.48,0,0,0-.44-.37,2.16,2.16,0,0,1-.44-.41c-.12-.16-.15-.28-.09-.37l-2-1.53-.92-.93c-.34-.31-.67-.63-1-1a4.08,4.08,0,0,1-.69-1l-.51-.19-.56-1.2a4.28,4.28,0,0,1-1.18-.77,10.9,10.9,0,0,1-1.13-1.23c-.62-.68-1-1.08-1.12-1.2l.05,2.08a6.2,6.2,0,0,1-.05,1.33c-.06.51-.1.91-.13,1.22,0,.07-.08.17-.14.31a1.67,1.67,0,0,0-.14.39s0,0,0,0a1,1,0,0,0,.28-.27l-.09,1.39a22,22,0,0,1,3.75.23l2.27.32a1.72,1.72,0,0,1,.4.26c.07.08,0,.19-.12.35a1.31,1.31,0,0,0-.76.18c-.17.12-.2.25-.07.37l-.93,0,.65.32a4.31,4.31,0,0,1-.6.07c-.28,0-.42.05-.42.12s.12.13.37.23l-1.39.23a4.15,4.15,0,0,1-2.32.51,10.33,10.33,0,0,0-1.16.09l-.5,5.42a6.84,6.84,0,0,1-.79,2.88,3.63,3.63,0,0,1-2.09,1.71l-.74,0a1.18,1.18,0,0,1-.37,0l-.14-9.64-5.7.47a3.1,3.1,0,0,0-.72-.07c-.35,0-.53-.06-.53-.12s.14-.15.42-.28l-.42-.41.18-1.35c.19-.15.28-.26.28-.32a.35.35,0,0,0-.09-.21.36.36,0,0,1,0-.35L255,48.85c-1,1.15-1.56,1.73-1.62,1.76a.72.72,0,0,0-.31.12c-.13.08-.19,0-.16-.12l-.46.56a.86.86,0,0,0-.37-.14.45.45,0,0,0-.35.23c-.11.16-.19.23-.25.23s-.17-.09-.33-.28a.54.54,0,0,1-.25.31,1.11,1.11,0,0,1-.37.07h-.35a3.71,3.71,0,0,1,.3-2.07,12.44,12.44,0,0,1,1.37-2.1l.81-1.23a7.59,7.59,0,0,0,.62-1.19,80.45,80.45,0,0,1,4.08-7.5l2-3.48c-.27,0-.71,0-1.29,0h-1.77a11.09,11.09,0,0,1-3.42-.42c0-.37,0-.93-.1-1.67s-.09-1.3-.09-1.67a6.37,6.37,0,0,1,.19-1.62c.74,0,1.85,0,3.33,0l2.5,0a25.65,25.65,0,0,0,4.18-.28,8.82,8.82,0,0,0,.23-1.18,10.61,10.61,0,0,1,.18-1.09q.33-1.84.54-2.82a10.89,10.89,0,0,1,.62-2,2.5,2.5,0,0,0,.37-.48,4,4,0,0,1,.35-.49.72.72,0,0,1,.44-.23l.6.05a4.15,4.15,0,0,0,.74.09l.77,0a2.25,2.25,0,0,1,1,.13,1.08,1.08,0,0,1,.55.58,1.07,1.07,0,0,0,.05.51,2.21,2.21,0,0,1,.09.56.71.71,0,0,1-.32.6l.32.7-.27,5h1.66l3.66,0a35,35,0,0,1,4.78.27l-.33.7a.82.82,0,0,1-.34.16,1.07,1.07,0,0,0-.4.19.21.21,0,0,0,0,.3.84.84,0,0,1-.33.07.89.89,0,0,0-.35.07s0,.11.26.23l-1.16.69A15.58,15.58,0,0,1,271.81,32c-1.55.25-2.36.39-2.46.42h0a.53.53,0,0,0-.49.3.53.53,0,0,0,0,.58,3.18,3.18,0,0,0,.4.3,2.32,2.32,0,0,1,.37.28c.08.07.08.17,0,.3l.56.23q2.87,3.53,6,7.78l3,3.9a.72.72,0,0,0,.31.23,1.35,1.35,0,0,1,.34.25c.07.08.05.18,0,.31a3.41,3.41,0,0,0,.51.37,1.79,1.79,0,0,1,.51.44.46.46,0,0,1,0,.48Zm-31,2c-.25.24-.27.29-.05.13Zm5.37-1-.09.14C256.39,50.26,256.42,50.21,256.33,50.06Zm6.16-3.57.1-8.3-5.84,8.44,3.38-.14a.9.9,0,0,1,.4.14.94.94,0,0,0,.34.14c.13,0,.2-.11.23-.33Zm8.07-3.89-.05,0C270.64,42.73,270.65,42.72,270.56,42.6Z"/></g><rect class="cls-2" width="300" height="80"/></g></g></g></svg>