<svg xmlns="http://www.w3.org/2000/svg" viewBox="0 0 300 80"><defs><style>.cls-1{fill:#fff;}.cls-2{fill:none;}</style></defs><g id="图层_2" data-name="图层 2"><g id="图层_1-2" data-name="图层 1"><g id="伊人黑"><g id="伊人黑-2" data-name="伊人黑"><path class="cls-1" d="M28.66,58.21a1.85,1.85,0,0,1-.57,1.21,1.75,1.75,0,0,1-1.2.43H24.2a1.55,1.55,0,0,1-1.14-.43,1.44,1.44,0,0,1-.32-1.21l2-22.58h-.32c-.88,0-1.32-.33-1.32-1a1.64,1.64,0,0,1,.19-.78l2.09-5.32v-.05l2.82-7A1.86,1.86,0,0,1,30,20.15h2.82a1.55,1.55,0,0,1,1,.27.94.94,0,0,1,.34.78A1.71,1.71,0,0,1,34,22l-2.78,6.92ZM57.3,33.81a2.28,2.28,0,0,1-1.41.64l-.64,7.37A1.62,1.62,0,0,1,54.73,43a1.79,1.79,0,0,1-1.25.43H42.87l-3,14.94a1.94,1.94,0,0,1-.59,1.09,1.71,1.71,0,0,1-1.18.41H35.31c-.94,0-1.41-.43-1.41-1.28a1.48,1.48,0,0,1,0-.41l3-14.75h-.63a1.81,1.81,0,0,1-1.39-.61,1.74,1.74,0,0,1-.48-1.43,2,2,0,0,1,.73-1.46,2.19,2.19,0,0,1,1.5-.59h1.14l1-4.87H34a1.84,1.84,0,0,1-1.33-.55,1.8,1.8,0,0,1-.54-1.32A2.12,2.12,0,0,1,32.85,31a2.18,2.18,0,0,1,1.55-.66h5.14l1-4.83H37.81A1.84,1.84,0,0,1,36,23.66a2,2,0,0,1,.68-1.53,2.14,2.14,0,0,1,1.5-.66H55.39a1.58,1.58,0,0,1,1.14.41,1.48,1.48,0,0,1,.36,1.18l-.64,7.29a1.8,1.8,0,0,1,1.3.64A1.87,1.87,0,0,1,58,32.4,2.26,2.26,0,0,1,57.3,33.81Zm-12.61.64-1,4.87h5.83L50,34.45Zm5.64-4.1.41-4.83H46.46l-1,4.83Z"/><path class="cls-1" d="M157.52,58.16l-7.92-23.9L139,58.12a1.88,1.88,0,0,1-1.91,1.23h-2.92c-.88,0-1.32-.34-1.32-1a1.86,1.86,0,0,1,.19-.82l16.11-36.1a1.89,1.89,0,0,1,1.91-1.23h3c.85,0,1.28.33,1.28,1a2.06,2.06,0,0,1-.18.82l-4.74,10.6h3.73a1.64,1.64,0,0,1,1.69,1.19l7.88,23.67c.05.3.09.5.09.59a1.17,1.17,0,0,1-.41.94,1.66,1.66,0,0,1-1.1.34h-3A1.66,1.66,0,0,1,157.52,58.16Z"/><path class="cls-1" d="M243.94,51.47h2.74a1.49,1.49,0,0,1,.95.28.92.92,0,0,1,.37.77,2,2,0,0,1-.14.68L246,58.48a1.8,1.8,0,0,1-1.86,1.32h-2.74a1.55,1.55,0,0,1-.95-.27.89.89,0,0,1-.37-.77,2,2,0,0,1,.14-.69L242,52.79A1.88,1.88,0,0,1,243.94,51.47Zm30.73-5.14a1.69,1.69,0,0,1,.46,1.41,2.09,2.09,0,0,1-.68,1.46,2.17,2.17,0,0,1-1.51.59H242.35a1.83,1.83,0,0,1-1.32-.53,1.77,1.77,0,0,1-.55-1.34,2.05,2.05,0,0,1,.69-1.52,2.15,2.15,0,0,1,1.54-.66H255l.18-2.19H244.26a1.86,1.86,0,0,1-1.86-1.87,2.1,2.1,0,0,1,.68-1.57,2.16,2.16,0,0,1,1.55-.66h10.92l.18-2.18H244.08a1.56,1.56,0,0,1-1.14-.41,1.48,1.48,0,0,1-.36-1.18L243.72,23a1.82,1.82,0,0,1,.54-1.18,1.72,1.72,0,0,1,1.19-.41h29.36a1.39,1.39,0,0,1,1.14.43,1.6,1.6,0,0,1,.32,1.16l-1.14,12.71a1.7,1.7,0,0,1-.5,1.16,1.77,1.77,0,0,1-1.23.43H261.65l-.18,2.18h10.88a1.81,1.81,0,0,1,1.41.6,1.88,1.88,0,0,1,.5,1.45,2.19,2.19,0,0,1-.75,1.46,2.23,2.23,0,0,1-1.52.59H261.11l-.23,2.19h12.43A1.75,1.75,0,0,1,274.67,46.33Zm-17.89-20.9h-7.37l-.69,7.74h7.38Zm-.64,27.5.37,5.19a1.55,1.55,0,0,1-.39,1.25,1.62,1.62,0,0,1-1.2.43h-2.6a1.41,1.41,0,0,1-1.55-1.45l-.32-5.19a1.57,1.57,0,0,1,.37-1.25,1.6,1.6,0,0,1,1.23-.44h2.59A1.33,1.33,0,0,1,256.14,52.93Zm-1.79-21.4a1.87,1.87,0,0,1-1.48.73,1.71,1.71,0,0,1-1.16-.41,1.62,1.62,0,0,1-.57-1.05l-.28-2a2,2,0,0,1,.53-1.55,1.89,1.89,0,0,1,1.48-.73,1.75,1.75,0,0,1,1.16.41A1.67,1.67,0,0,1,254.6,28l.27,2A2,2,0,0,1,254.35,31.53Zm10.4,21.4.32,5.19a1.55,1.55,0,0,1-.39,1.25,1.63,1.63,0,0,1-1.21.43h-2.59a1.41,1.41,0,0,1-1.55-1.45L259,53.16a1.54,1.54,0,0,1,.39-1.25,1.63,1.63,0,0,1,1.21-.44h2.59A1.41,1.41,0,0,1,264.75,52.93Zm-2.1-27.5L262,33.17h7.42l.68-7.74Zm1.58,6.33a1.65,1.65,0,0,1-.48-1.18,2.64,2.64,0,0,1,.09-.6l.64-2a2.32,2.32,0,0,1,.75-1.05,1.92,1.92,0,0,1,1.2-.41,1.59,1.59,0,0,1,1.21.51,1.63,1.63,0,0,1,.48,1.18,2.57,2.57,0,0,1-.09.59l-.59,2a2.28,2.28,0,0,1-.78,1.05,2,2,0,0,1-1.23.41A1.59,1.59,0,0,1,264.23,31.76Zm9.08,21.17.32,5.19a1.55,1.55,0,0,1-.39,1.25,1.63,1.63,0,0,1-1.21.43h-2.68a1.41,1.41,0,0,1-1.55-1.45l-.32-5.19a1.57,1.57,0,0,1,.37-1.25,1.6,1.6,0,0,1,1.22-.44h2.69A1.41,1.41,0,0,1,273.31,52.93Z"/></g><rect class="cls-2" width="300" height="80"/></g></g></g></svg>