<svg xmlns="http://www.w3.org/2000/svg" viewBox="0 0 300 80"><defs><style>.cls-1{fill:#fff;}.cls-2{fill:none;}</style></defs><g id="图层_2" data-name="图层 2"><g id="图层_1-2" data-name="图层 1"><g id="萌趣百奇体"><g id="萌趣百奇体-2" data-name="萌趣百奇体"><path class="cls-1" d="M20.22,36a1.49,1.49,0,0,1,.24.7,3.65,3.65,0,0,0,.1.6l3.61,0A2.33,2.33,0,0,1,25.86,36a1.82,1.82,0,0,1,1.3.38,6.28,6.28,0,0,1,.34,1q.3,1.79.58,5.45c.07,1,.1,1.7.1,2.22s.07,1,.12,2,.12,1.77.22,2.51c0,.19.08.52.16,1a7.12,7.12,0,0,1,.12,1.18,2,2,0,0,1-.67,1.69,3.19,3.19,0,0,1-2.17.86,2.77,2.77,0,0,1-1.06-.24,3.51,3.51,0,0,1-1-1.11H21l-1.21,1a3.72,3.72,0,0,1-.77.24,3.58,3.58,0,0,0-.72.19l-.49,0a3.62,3.62,0,0,1-.72-.1,3.51,3.51,0,0,1-.87-.43,4.9,4.9,0,0,1-.67-1Q15.83,44,16.41,37a1.74,1.74,0,0,1,.33-.63,2.45,2.45,0,0,1,.92-.7,2.79,2.79,0,0,1,1.11-.26,1.94,1.94,0,0,1,1.06.29ZM38.45,20.32l.29.34a5.72,5.72,0,0,1,.65,2c.12.74.19,1.19.22,1.35a15.45,15.45,0,0,0,2.08,0c.77-.07,1.33-.1,1.68-.1a6.19,6.19,0,0,1,2.46.43,1,1,0,0,1,.39.73,1.37,1.37,0,0,1-.65,1,3.35,3.35,0,0,1-1.42.66c-.78.06-1.39.09-1.84.09l-2.41-.05c0,.36.11.89.24,1.6a16.54,16.54,0,0,1,.39,2.94,1.93,1.93,0,0,1-.87,1,8.14,8.14,0,0,1-1.59.65,6.35,6.35,0,0,1-.92.09,7.4,7.4,0,0,1-2-.33,3.88,3.88,0,0,1-.87-1.16,20.81,20.81,0,0,0,.15-2.46l-.05-2.46H28.76l.09,1.49a20.9,20.9,0,0,1,.24,2.17,2.29,2.29,0,0,1-1.25,2.32,5.61,5.61,0,0,1-2,.43,3.41,3.41,0,0,1-2-.58,3,3,0,0,1-.54-.77l.29-5a11.9,11.9,0,0,1-1.25-.05c-1.9,0-3.6-.07-5.11-.2-.87-.16-1.31-.46-1.31-.91A1.62,1.62,0,0,1,17,24.76a18.88,18.88,0,0,1,2.22-.25,8.24,8.24,0,0,1,1.74.1c.64.07,1.11.1,1.4.1.8,0,1.28-.26,1.45-.77,0-.2.05-.47.07-.82a3.63,3.63,0,0,1,.12-.9,1.63,1.63,0,0,1,.34-.65A3.48,3.48,0,0,1,26,20.8h.38a7.4,7.4,0,0,1,1.11.1,1.79,1.79,0,0,1,.92,1.35c0,.38.11,1,.24,2,.74,0,1.29,0,1.64,0,1.83,0,3.22-.05,4.15-.15V23a10.31,10.31,0,0,1,.14-2,1.23,1.23,0,0,1,.46-.65,4.31,4.31,0,0,1,.94-.46,6.35,6.35,0,0,1,.92-.09,3.3,3.3,0,0,1,1.16.24ZM20.7,39.52l.24,5h.63a7.25,7.25,0,0,0,1.3-.24c.48-.12.84-.22,1.06-.29l.24-4.29-2.89-.19Zm3.09,6.56-1.09.24a5.71,5.71,0,0,1-1.66.14l.09,3.14a2.29,2.29,0,0,1,.05.6.74.74,0,0,0,.24.61l2.32-.05a8.72,8.72,0,0,1,0-1.06l0-1.5a16.25,16.25,0,0,0,.05-2ZM43.37,33.29a1.48,1.48,0,0,1,1.4.82c.13,1,.24,1.69.34,2.18q.48,3.51.63,5.16l.09,1.64c.13,2.19.26,3.81.39,4.87l.58,3.43c.06.38.15.86.26,1.44s.22,1.26.32,2v1.23a4.79,4.79,0,0,1-.2,1.45,2,2,0,0,1-.67,1A4.18,4.18,0,0,1,44,59.3a5.3,5.3,0,0,1-1.49-.24,5.62,5.62,0,0,1-1.16-1.26,1.88,1.88,0,0,0-.82-.34l-.77-.14a1.92,1.92,0,0,0-.27-.17,1.19,1.19,0,0,1-.34-.27.48.48,0,0,1-.12-.33.64.64,0,0,1,.27-.36l.31-.27a9.88,9.88,0,0,1,1.69-.14,22.66,22.66,0,0,0-.19-2.37c-.13-2.25-.21-3.94-.25-5.06-.57.13-1,.24-1.3.33-1.28.33-2.26.55-2.94.68l-.46,0a.62.62,0,0,0-.46.22l-.14,4a7.82,7.82,0,0,0-.1.82,2.13,2.13,0,0,1-.29,1,4.63,4.63,0,0,1-1.54,1.06,3.79,3.79,0,0,1-1.35.17c-.52,0-.87,0-1.06,0a2.47,2.47,0,0,1-1.35-1,2.21,2.21,0,0,1-.15-1q.44-2.65.77-6.13a11.41,11.41,0,0,1,.1-1.25c.06-.65.1-1.14.1-1.5,0-.67-.07-1.78-.2-3.33a25.45,25.45,0,0,1-.24-3.28,9.68,9.68,0,0,1,.48-3.23,4.48,4.48,0,0,1,1.79-2.22,6.32,6.32,0,0,1,1.59-.14l.48.24a1.19,1.19,0,0,1,.53.38,4.77,4.77,0,0,1,.29,1.4c2.13-.26,3.72-.43,4.78-.53a2.83,2.83,0,0,1,.6-.05.74.74,0,0,0,.61-.24,1,1,0,0,1,.16-.55,3.27,3.27,0,0,1,.41-.51,4.85,4.85,0,0,1,1.11-.39ZM41.2,36.77c-2.12.13-3.68.26-4.68.38a3.56,3.56,0,0,1-1-.09v1.59a25.69,25.69,0,0,0,.14,3.13,1,1,0,0,0,.63.15,3.79,3.79,0,0,0,.58,0,3.79,3.79,0,0,1,.58-.05l1.57-.21a9.53,9.53,0,0,1,2.09-.12l.05-2.37ZM41,43.18c-1.74.2-3.47.34-5.21.44v4.1a6.31,6.31,0,0,0,1.81-.31L38.94,47l.91-.14a3.07,3.07,0,0,0,1.06-.34l.1-3.18Z"/><path class="cls-1" d="M78.54,19.79a1.12,1.12,0,0,1,.58.38,1.81,1.81,0,0,1,.34.68c.13,1,.26,2.64.38,4.82a6.24,6.24,0,0,0,1.55-.14,4.92,4.92,0,0,1,1.25-.15,2.75,2.75,0,0,1,1.28.29.9.9,0,0,1,.56.82l-.1.39-.36.31a2.11,2.11,0,0,1-.51.32,12.59,12.59,0,0,1-2.12.28c-.16,0-.4,0-.7.05l-.8.1a24.73,24.73,0,0,1,.27,2.68c0,1,.09,1.61.12,1.9s0,1.08.1,2q2.27-.2,6.6-.39a.84.84,0,0,1,.73.92,1.9,1.9,0,0,1-.87,1.54,4.46,4.46,0,0,1-1.33.2h-.84a4.38,4.38,0,0,0-.82,0c-1.16,0-2,0-2.61,0l0,0,0,.05c.13,3.09.28,5.4.44,6.95a7.63,7.63,0,0,0,1.25-.34c.16,0,.41-.1.75-.19a3.11,3.11,0,0,1,.84-.15,1.07,1.07,0,0,1,1.07.68,1,1,0,0,1-.2.91,1.86,1.86,0,0,1-.87.63c-.19,0-.51.07-1,.1a6.87,6.87,0,0,0-1.06.14,1.55,1.55,0,0,0-.68.39l.63,4.44c.06.19.14.43.22.72a9.54,9.54,0,0,1,.21,1q3.72.91,9,1.83,3.61.68,7.23,1.45a8.39,8.39,0,0,0,1.35.24,10.61,10.61,0,0,1,3,.84,1.62,1.62,0,0,1,.84,1.81,3.51,3.51,0,0,1-.43.87,4.45,4.45,0,0,1-.68.63,12,12,0,0,1-1.93.57c-.12,0-.44,0-.94-.09A7.18,7.18,0,0,1,98.9,60q-.68-.2-5.26-1.3L90.75,58c-1.32-.41-3.33-1-6-1.68l-2.51-.68a10.92,10.92,0,0,1-2.27-.58q-.57-.19-1.74-.48c-.57-.19-1.48-.45-2.7-.77l-.7-.27a2.4,2.4,0,0,0-.79-.17,8.91,8.91,0,0,0-.24,1.76c0,.66-.07,1.15-.1,1.48a4,4,0,0,1-.29,1,5.64,5.64,0,0,1-1.06.77,8.24,8.24,0,0,1-1.74.1,2.57,2.57,0,0,1-1-1c.48-3.12.84-5.61,1.06-7.46A55.44,55.44,0,0,0,71,44.25c0-.17,0-.38.07-.66a1.32,1.32,0,0,1,.17-.65,2.67,2.67,0,0,1,1.25-.72c.74.06,1.18.34,1.3.82q.25,2.55.25,7.67l.82.1L76,51.1a3.27,3.27,0,0,0,1.33.09c.06-.77.09-1.33.09-1.69l-.05-2.26.1-3.09a44.17,44.17,0,0,1,.39-6.61,5.93,5.93,0,0,1-1.55-.24c-1.15-.1-2.33-.15-3.52-.15l-2.31-.09-.41-.12a1.39,1.39,0,0,1-.56-.27,1.57,1.57,0,0,1-.17-.24.37.37,0,0,1,0-.39,2.06,2.06,0,0,1,.58-.53,6.11,6.11,0,0,1,1.78-.33,8.4,8.4,0,0,1,1.09,0l.79,0a7.61,7.61,0,0,0,1.84-.2q.28-4.81.33-7.19l-1.23-.12a2.84,2.84,0,0,1-1.37-.41.57.57,0,0,1-.19-.43.8.8,0,0,1,.26-.6,1.47,1.47,0,0,1,.6-.37,13.69,13.69,0,0,1,1.89-.14l.09-3.47a2.58,2.58,0,0,1,.68-1.88,1.83,1.83,0,0,1,1.73-.68ZM96.87,26.3l.49.29a2.94,2.94,0,0,1,.09.63,1,1,0,0,1-.53,1l-.53.12a.94.94,0,0,0-.58.31c.36,2.84.69,7.08,1,12.74.09,2.51.24,5,.43,7.48a1.85,1.85,0,0,1-.6,1.49,2.13,2.13,0,0,1-1.52.63,1.77,1.77,0,0,1-.82-.19,3.55,3.55,0,0,1-.68-.82l0-6.71a40.8,40.8,0,0,1-5.16,1.4,4.28,4.28,0,0,0-.6,0,4.28,4.28,0,0,1-.6,0c-.68,0-1.08-.24-1.21-.73s.53-.94,1.69-1l.31-.12a.37.37,0,0,0,.27-.22,6.56,6.56,0,0,1,.19-1.35q.24-2.65.24-6.37c.07-2.25.13-3.93.19-5.06l-1.83-.1a2.47,2.47,0,0,1-.77-.26A.66.66,0,0,1,86,29c.19-.39.39-.61.58-.67a19.51,19.51,0,0,1,5.11-.58,15.38,15.38,0,0,0,4.1-1.4,2.25,2.25,0,0,0,.42-.07.89.89,0,0,1,.45,0ZM93.4,29.58l-.05-.24-1.78.34q0,.87.09,2.7l0,1.35c.45,0,.84,0,1.16,0a7.43,7.43,0,0,0,.77-.1L93.55,32a17.65,17.65,0,0,0-.15-2.27Zm-1.59,5.89.1,1.73,1.73-.09V35.37A12.08,12.08,0,0,0,91.81,35.47Zm1.83,3.28-1.73.09A27.86,27.86,0,0,1,92,41.93l.87-.36.72-.36V40Zm9.7-6.81.53.29a2.83,2.83,0,0,1,.19,1.55c-.19,1-.46,2.14-.82,3.52-.42,1.77-.69,3-.82,3.57q3.92,4.68,6.76,7.81a1.39,1.39,0,0,1,.48,1.06,2.09,2.09,0,0,1-.56,1.38,2.3,2.3,0,0,1-1.32.8,5.92,5.92,0,0,1-.82,0,4.33,4.33,0,0,1-1-.09,4,4,0,0,1-1.06-1.11l-3.18-5.07q-.39-.48-.48-.09a7.71,7.71,0,0,0-.27,1.06,4.8,4.8,0,0,1-.31,1.06,1.67,1.67,0,0,1-.63.72l-.63.17a1.64,1.64,0,0,1-.82,0c-.06-.07-.17-.16-.31-.29a.83.83,0,0,1-.27-.49l1.45-5.35a6.28,6.28,0,0,0-.79-1.38c-.37-.49-.64-.87-.8-1.13l-.36-.63a2.2,2.2,0,0,1-.32-.87c.13-.64.65-1,1.55-1.15a2.47,2.47,0,0,0,.41.12,2.1,2.1,0,0,1,.55.21,1.64,1.64,0,0,1,.24.32,1.48,1.48,0,0,0,.27.31.19.19,0,0,0,.26,0L101.55,34l-2,.48-.7,0a4.11,4.11,0,0,1-.8-.12,1.64,1.64,0,0,1-.53-.58A1.15,1.15,0,0,1,98,33a2,2,0,0,1,1-.29c.38,0,.66-.07.82-.1a11.46,11.46,0,0,0,1.16-.34c.35-.13.71-.24,1.08-.34a3.17,3.17,0,0,1,1-.09Z"/><path class="cls-1" d="M155.1,21.43a4.51,4.51,0,0,1,.73.09l.24.29a.65.65,0,0,1,.14.53,2.67,2.67,0,0,1-.48.78,7.24,7.24,0,0,1-2.51.94c-.87.14-2.15.29-3.86.45a9.58,9.58,0,0,1-.7,1.72l-.6,1.18a35.28,35.28,0,0,1-6.47,8.3,46.78,46.78,0,0,0,5-.68l3.28-.48a16.92,16.92,0,0,1,2.9-.34l1-.05.29-.67a2,2,0,0,1,2-.92,7.2,7.2,0,0,1,1,.1,6.57,6.57,0,0,1,.77.67,10.14,10.14,0,0,1,.62,1.64c.32,1.8.53,3.16.63,4.06s.12,2,.17,3.18.09,2.15.12,2.8l0,2a12.41,12.41,0,0,0,.05,1.89c.06.7.11,1.19.14,1.44a18.46,18.46,0,0,1,.24,2.8A5.23,5.23,0,0,1,158.43,57l-1.3.68-1,.09a3.6,3.6,0,0,1-1.85-.46,2.31,2.31,0,0,1-1.09-1.37v-.48c0-.29-.11-.42-.34-.39a34.74,34.74,0,0,1-6.65,1l-2.9,0a12.7,12.7,0,0,0-1.4,0,4.81,4.81,0,0,1-.72.86,6.07,6.07,0,0,1-2.32.82,5.07,5.07,0,0,1-2.75-.67l-.29-.36a1.44,1.44,0,0,1-.24-.56c0-1.67,0-3.14,0-4.41s.07-2.33.1-3.16q.19-6.09.19-9.07a8.22,8.22,0,0,0,0-1.09c0-.3,0-.57,0-.79a11.29,11.29,0,0,1,0-1.21,7.74,7.74,0,0,1,.39-2.56,3.65,3.65,0,0,1,.72-.62,3,3,0,0,1,1.45-.34,2.81,2.81,0,0,1,1.25.24,2.18,2.18,0,0,1,.68.67,14.76,14.76,0,0,0,1.4-1.59L143,30.64c1-1.28,1.64-2.15,1.93-2.6l.62-1.11a10.67,10.67,0,0,0,1-2.08,29.86,29.86,0,0,1-5.84.63,27.78,27.78,0,0,1-3.43-.29,1.73,1.73,0,0,1-.77-.43.66.66,0,0,1,.15-.85,1.8,1.8,0,0,1,1-.46c1.38-.13,2.94-.19,4.68-.19a10.62,10.62,0,0,1,1.16-.05L145,23c.48-.06,1.58-.22,3.28-.48s3.3-.45,4.78-.58a11.12,11.12,0,0,1,1.78-.48Zm-1.44,14.71a38.41,38.41,0,0,0-4.54.53l-2.56.39a8.48,8.48,0,0,1-1.06.09,10.62,10.62,0,0,1-1.11,0l-1.15,0a3.86,3.86,0,0,0-1.52.24,1.16,1.16,0,0,0-.7.87,40.1,40.1,0,0,1,.48,4.58l.14,2,5.17-.15a22.8,22.8,0,0,0,2.46-.48,18.25,18.25,0,0,1,3-.63l1.49-.24a10,10,0,0,0,.17-1.76c0-.66,0-1.13,0-1.42,0-1.74,0-3-.09-3.91Zm0,9.17-.44-.05-1.69.29c-2.35.38-4.19.66-5.54.82a30.42,30.42,0,0,1-4.2.19q0,3.18.34,7.58c.61,0,1.13,0,1.56,0l1.09,0a23.15,23.15,0,0,0,2.65-.15c2-.39,3.91-.72,5.84-1l.19-2.13a11.75,11.75,0,0,1,.1-1.3c0-.45.06-1,.1-1.71s0-1.49,0-2.39Z"/><path class="cls-1" d="M212.61,37.2l2.36.1a7.47,7.47,0,0,0,.8,0,7.29,7.29,0,0,1,.79,0,3.06,3.06,0,0,1,1.64.39,1.31,1.31,0,0,1,.22.46,3.65,3.65,0,0,0,.12.36.8.8,0,0,1-.24.58,1.89,1.89,0,0,0-.29.33,6.39,6.39,0,0,1-3.18.68l-1.4,0c-.32,0-.81-.05-1.45-.05l.43,2.32c.16,1.41.28,3,.34,4.77l.2,2.85a14.36,14.36,0,0,0,.33,3.09,17.68,17.68,0,0,1,.39,3,3.67,3.67,0,0,1-1.45,3.18,6.89,6.89,0,0,1-1.59.63c-.07,0-.29.16-.68.39a2.74,2.74,0,0,1-1.15.38,4.75,4.75,0,0,1-.87-.19l-.63-.19a4.2,4.2,0,0,1-.92-.58l-.72-.58a1.18,1.18,0,0,1-.43-.31.68.68,0,0,1-.2-.41.8.8,0,0,1,.15-.39,2.49,2.49,0,0,1,.87-.43l.74,0a1.67,1.67,0,0,1,.94.31q.39-6,.49-18.14a32.25,32.25,0,0,0-5.31.44c-1.09.22-2.23.44-3.4.65a22.34,22.34,0,0,1-3.21.36,16.76,16.76,0,0,0-2,0c-.71.06-1.24.1-1.6.1a7.56,7.56,0,0,1-2.51-.39,2.8,2.8,0,0,1-.43-.67,2.19,2.19,0,0,1,.53-.73,13,13,0,0,1,2.17-.43l1.45-.1a48.73,48.73,0,0,0,5.74-.53q3.52-.82,5-1.06c1.41-.13,3-.19,4.77-.19,1.06,0,1.85,0,2.37,0Zm-8,5.41a.93.93,0,0,1,.48.28,2.19,2.19,0,0,1,.31.9,6.06,6.06,0,0,0,.13.7l.14,2A39.4,39.4,0,0,1,205.9,51c-.26.81-1.14,1.24-2.65,1.3a14.89,14.89,0,0,0-1.69-.33,14.58,14.58,0,0,0-2.51.14l-.89.1c-.34,0-.73.05-1.18.05a3.9,3.9,0,0,1-2.66-.82,2.28,2.28,0,0,0-.19-.32,1.15,1.15,0,0,1-.19-.41,58.7,58.7,0,0,1,1-6.56,2.58,2.58,0,0,1,.58-1,2.36,2.36,0,0,1,1.88-.44,1.37,1.37,0,0,1,.51.32l.26.26a1.63,1.63,0,0,1,.24.87l3.28-.29a1,1,0,0,0,.51-.22,1.29,1.29,0,0,0,.36-.41,1.52,1.52,0,0,1,.87-.62,2.79,2.79,0,0,1,.87,0Zm1.16-22.68a4.68,4.68,0,0,1,.14,1.3c-.13.62-.42,1.61-.87,3l-.38,1.21h2.75c1-.06,1.8-.1,2.31-.1a8.49,8.49,0,0,1,1.06.05,1.47,1.47,0,0,1,.78.41.93.93,0,0,1,.24.75,1.57,1.57,0,0,1-.41.56,4.2,4.2,0,0,1-.8.45,14.67,14.67,0,0,1-2,.24c-2.18,0-3.82,0-4.92.1-.77,1.9-1.93,4.29-3.47,7.19A3.84,3.84,0,0,1,199,36.36a2.6,2.6,0,0,1-1.54.5,2.48,2.48,0,0,1-.82-.14A2,2,0,0,1,196,36a3.78,3.78,0,0,1,.46-1.26c.24-.41.41-.69.51-.82a30.66,30.66,0,0,0,3.13-5.74,8.08,8.08,0,0,1-1.11-.05,18.9,18.9,0,0,1-2.75-.14,1.46,1.46,0,0,1-.67-.36.77.77,0,0,1-.29-.56.59.59,0,0,1,.19-.43,4,4,0,0,1,.87-.44,17.14,17.14,0,0,1,1.91-.19l1.37-.05c.74,0,1.29,0,1.64-.05l.44-1.06q1-2.31,1.35-3.57a3.45,3.45,0,0,1,.19-1,1.91,1.91,0,0,1,1.25-.77,3.24,3.24,0,0,1,1,.14ZM198.13,46l.25,2.22a4.12,4.12,0,0,1,.28,1.79h3l.29-4a1.81,1.81,0,0,0-.44-.1l-.63,0Zm7.58-17.51a28.72,28.72,0,0,1,3.38,2.41c.86.71,1.33,1.08,1.39,1.11l.8.22a2.33,2.33,0,0,1,1.09.6,1.31,1.31,0,0,1,.14.53,2.61,2.61,0,0,1-1.16,1.88,4.46,4.46,0,0,1-2.31.68,3,3,0,0,1-1.79-.58,7.69,7.69,0,0,1-1.06-1.21l-1-1.39c-.65-.9-1-1.4-1.06-1.5a4.75,4.75,0,0,0-.44-.63,3.3,3.3,0,0,1-.46-.75.82.82,0,0,1,0-.65,3.39,3.39,0,0,1,.77-.62,1.59,1.59,0,0,1,.68-.17l.57,0Z"/><path class="cls-1" d="M258.68,20.56l.43.29a1.43,1.43,0,0,1,.15,1,4.09,4.09,0,0,1-.39,1.09c-.19.37-.32.6-.38.7-.46.83-.91,1.57-1.36,2.22-1,1.67-1.75,2.94-2.17,3.81q.39,3.86.58,11.62c.07,2.38.13,4.14.2,5.26.16,1.52.25,3,.29,4.44l.14,2.17a3.94,3.94,0,0,0,.19,1c.1.67.15,1,.15,1.06a1.58,1.58,0,0,1-.44,1.16,6.8,6.8,0,0,1-1.49.86l-.85.2a3.69,3.69,0,0,1-1.28.05c-.28-.07-.58-.16-.89-.27a2,2,0,0,1-.74-.46,1.93,1.93,0,0,1-.25-.31,1.48,1.48,0,0,1-.19-.41q.63-5.84.82-16.11c0-1.07,0-2.66.1-4.78,0-.06-.08-.06-.15,0l-.14.17c-.07.07-.32.42-.77,1.06a13.42,13.42,0,0,1-1,1.31,6.88,6.88,0,0,1-1.11,1.06,7.91,7.91,0,0,1-2.89.72,3.89,3.89,0,0,1-1.06-.14,2.77,2.77,0,0,1-1-.58,1.53,1.53,0,0,1-.38-1,.92.92,0,0,1,.14-.53q6.56-8,12.25-15.92a2.17,2.17,0,0,1,.75-.53c.31-.13.53-.22.65-.29l1-.05a4.63,4.63,0,0,1,.77.1Zm10.23,2.94a4,4,0,0,1,.72.92,24.52,24.52,0,0,1,.53,3.4c.1,1.14.18,2.56.24,4.27,0,.74,0,1.3.05,1.69l.82-.15a10.15,10.15,0,0,1,2.8-.58l1.06-.14,1.78,0a11.72,11.72,0,0,1,1.31.1,1.61,1.61,0,0,1,1.11.77,1,1,0,0,1-.2.7,3.76,3.76,0,0,1-.53.65,7.88,7.88,0,0,1-2,.48,33,33,0,0,0-5.35.39,1.73,1.73,0,0,1-.34.09c-.16,0-.26.1-.29.2,1.26,1.12,2.93,2.51,5,4.15.1.09.93.78,2.51,2.07l1.71,1.66a12.64,12.64,0,0,1,1.47,1.72,15.26,15.26,0,0,1,.87,1.59,4,4,0,0,1,.19,1.06c-.19.55-.79.92-1.78,1.11a3.38,3.38,0,0,1-1.06-.24,15.08,15.08,0,0,1-1.93-2.61A11.65,11.65,0,0,0,275.56,44l-1-.86c-1.42-1.23-2.45-2.16-3.09-2.8a1.19,1.19,0,0,1-.27-.24c-.11-.13-.21-.18-.31-.15q.1,2.27.48,6.8l.15,1.84.05,0,.87,0a7.5,7.5,0,0,1,2-.34,4.35,4.35,0,0,1,.73,0,.55.55,0,0,1,.38.34,1.81,1.81,0,0,0,.24.38v.19a1.22,1.22,0,0,1-.67,1,3.82,3.82,0,0,1-1.26.36c-.45,0-.88.08-1.3.1l-.92,0q.35,2.13.73,6.37l.05.82a2.14,2.14,0,0,1-.49,1.49,4.59,4.59,0,0,1-2.65.82,5.26,5.26,0,0,1-1.45-.24l-.43-.29a1,1,0,0,1-.39-.48,21.05,21.05,0,0,1-.33-3.28c0-1.16-.05-1.85-.05-2.07,0-1.19,0-2.08-.05-2.66l-2.12-.09q-1.69-.24-1.74-1.11a2.32,2.32,0,0,1,.87-.73,7.81,7.81,0,0,1,1.44-.14l1.45.05-.19-4.73-.77,1.11a11.92,11.92,0,0,1-1.69,2.31c-1.06,1.52-2,2.72-2.75,3.62a3.79,3.79,0,0,1-1.3.44,1.51,1.51,0,0,1-1.45-.73,2,2,0,0,1,.22-.67,4.1,4.1,0,0,1,.41-.68l1.49-1.93c1-1.25,1.8-2.31,2.41-3.18A21.69,21.69,0,0,0,264.56,42l.58-1.21.44-.84a6.45,6.45,0,0,0,.48-1.23l.05-1.45a4.13,4.13,0,0,0-.05-.72c-.93.06-1.82.16-2.65.29l-2.51,0c-.55,0-1,0-1.26,0a2,2,0,0,1-1.64-.73V36a.57.57,0,0,1,.2-.46,1.57,1.57,0,0,1,.43-.27,1.07,1.07,0,0,0,.29-.14,9,9,0,0,1,2.05-.27l1.52,0c.45-.07.79-.13,1-.19a21.75,21.75,0,0,1,2.46-.34l0-5.89a8.37,8.37,0,0,0-.09-1c-.07-.77-.1-1.34-.1-1.69a3.26,3.26,0,0,1,.34-1.59,1.69,1.69,0,0,1,1.21-.82h.38a5.75,5.75,0,0,1,1,.05Z"/></g><rect class="cls-2" width="300" height="80"/></g></g></g></svg>