<svg xmlns="http://www.w3.org/2000/svg" viewBox="0 0 300 80"><defs><style>.cls-1{fill:#fff;}.cls-2{fill:none;}</style></defs><g id="图层_2" data-name="图层 2"><g id="图层_1-2" data-name="图层 1"><g id="萌趣脆脆体"><path class="cls-1" d="M37.7,31.23a.47.47,0,0,1,.28.05,1,1,0,0,1,.05.43c-.06,2.38-.16,5.71-.28,10s-.24,7.35-.33,9.23c-.82.13-2.14.29-4,.49l-4.07.45-.05.66a.65.65,0,0,1-.17.49,3.17,3.17,0,0,1-1.08.43c-.61.17-1.44.38-2.47.63l-3.77.9.05-1.13V52.61s.12-2.37.28-7c0-.66,0-1.74.09-3.25l.33-10.17L30,31.71Zm-.56-9.7-.52,3.39s0,.06,0,.07,0,0,.08,0l3.9-.33c.91-.06,1.68-.13,2.29-.21A3.6,3.6,0,0,0,44,24.15a.59.59,0,0,0,.25-.54l0-.52-.14-1.23q1.08-.09,3.48-.21l3.49-.16-.19,1.13q-.11.61-.12.84c0,.16,0,.22.07.19l8.34-.7-.33,2.87c-.1.78-.19,1.41-.26,1.88a2.08,2.08,0,0,1-.24.83.72.72,0,0,1-.49.11l-4.29.05c-1.35,0-2.24,0-2.66,0a1.51,1.51,0,0,0-.82.21,1.29,1.29,0,0,0-.29.73,3.15,3.15,0,0,1-.23,1l-2.24.09c-1,0-1.7,0-2.14,0l-.14-1a1.72,1.72,0,0,0-.19-.91,1.73,1.73,0,0,0-.85-.12c-.34,0-1.82.05-4.43.05-1.31,0-2.19,0-2.63,0a1.3,1.3,0,0,0-.85.26,1.64,1.64,0,0,0-.28.83c-.1.72-.19,1.1-.29,1.13q-.7,0-2.16.09c-1,0-1.68.05-2.12.05L31.11,30a1.6,1.6,0,0,0-.31-.82,1.59,1.59,0,0,0-1-.26c-.51,0-1.53-.05-3.06-.05h-4.2V27.56c0-.5,0-.84,0-1s0-.26.07-.26A13.32,13.32,0,0,1,25,26.05l1.6-.14,3.86-.33a7.24,7.24,0,0,0-.14-1.83l-.19-1.89,3.15-.19C35.85,21.55,37.14,21.5,37.14,21.53Zm.75,30.66a1.77,1.77,0,0,1,0,.66,3,3,0,0,1,0,.52.15.15,0,0,1-.16.14l-6,.71c-.07,0-.1.22-.1.65a.68.68,0,0,1-.16.5,3.27,3.27,0,0,1-1.06.42c-.6.18-1.41.39-2.45.64l-3.77.89,0-.7,0-.76.87-.21,2.29-.54,2.09-.54a2.76,2.76,0,0,0,.92-.35.72.72,0,0,0,.14-.52,3.07,3.07,0,0,1,0-.5c0-.11,0-.16.07-.16l3.62-.43ZM25.06,30.13a2,2,0,0,1,.7-.1l1.58,0h1.6a3.13,3.13,0,0,1,.71,0,.18.18,0,0,1,.14.19l.05.23-2.12.1c-.63.06-1.09.09-1.37.09a3.64,3.64,0,0,1-.56,0,2.05,2.05,0,0,0-.47,0c-.19,0-.3,0-.33,0s0-.14,0-.33A.27.27,0,0,1,25.06,30.13Zm4.07,5.63a1.11,1.11,0,0,0-.31,0s-.07,0-.07.12a3.87,3.87,0,0,1,.05.7,8.57,8.57,0,0,0,.05.9l0,1.41,1.94-.19a7.87,7.87,0,0,0,1.36-.19.6.6,0,0,0,.43-.35,3.65,3.65,0,0,0,.09-1,4.18,4.18,0,0,0-.07-1,.46.46,0,0,0-.35-.31,6.87,6.87,0,0,0-1.18-.07C30,35.8,29.29,35.79,29.13,35.76Zm.24,6.59a1.76,1.76,0,0,0-.31,0s-.06.07,0,.17l.09,2.4c0,.91,0,1.5,0,1.76s0,.42,0,.45L30.73,47l1.74-.09a.18.18,0,0,0,.19-.15,2.71,2.71,0,0,0,.05-.66V44.66A11.89,11.89,0,0,0,32.64,43a.58.58,0,0,0-.33-.49,3.94,3.94,0,0,0-1.06-.09A18.3,18.3,0,0,1,29.37,42.35Zm.8-5.35a6.41,6.41,0,0,1,.66,0l.56,0a.16.16,0,0,1,.14.17.19.19,0,0,1-.14.19,2,2,0,0,1-.52,0,1.29,1.29,0,0,1-.4.05.71.71,0,0,0-.3,0c-.07,0-.1-.08-.1-.24S30.1,37,30.17,37Zm.23,6.6a3,3,0,0,1,.52,0,1.21,1.21,0,0,1,.54.07,1,1,0,0,1,.07.5,4,4,0,0,1,0,.45c0,.07,0,.11-.07.11s-.05.18-.05.52a1.19,1.19,0,0,1-.05.45s-.14.07-.33.07a1.73,1.73,0,0,1-.42,0q-.19,0-.21-.15a1.77,1.77,0,0,1,0-.37v-.38a3.73,3.73,0,0,1,0-.59,2.11,2.11,0,0,0,0-.49C30.26,43.68,30.31,43.61,30.4,43.6ZM40.48,30c2.2,0,3.3,0,3.3.05s-.18.06-.52.07l-1.65.07-1,.05a7.32,7.32,0,0,1-1.36-.05s-.08,0-.24-.07l-.8,0a3.92,3.92,0,0,1-1,0S38.28,30,40.48,30Zm15.4,1.09a.83.83,0,0,1,.73.58,25.41,25.41,0,0,1,.61,3.51q.41,3,1,8.06l1.36,12.24a3.84,3.84,0,0,1-1.34.09H49.12c-1,0-1.57,0-1.84,0s-.4-.1-.4-.19c0-.75.09-1.67.17-2.76s.15-1.86.21-2.33l2-.19,1.93-.14L51,46.59l-5.65-.14-.33,4.33-.14,1.65a19.15,19.15,0,0,1-.24,2.82c0,.06-.2.1-.59.1h-5V53.56l.1-11.87.09-10.17v-.1l7.82-.19ZM41.56,56.66a1.23,1.23,0,0,1,.62-.11q.51,0,1.41,0c.81,0,1.37,0,1.67,0s.45,0,.45.07,0,.05.16.07l.54,0a1.66,1.66,0,0,1,.57.07.28.28,0,0,1,.14.26l-.09.57c0,.06-.2.09-.59.09H44.25l-1.86,0a1.69,1.69,0,0,1-.8-.14.64.64,0,0,1-.12-.45A.7.7,0,0,1,41.56,56.66ZM47.21,41a7.16,7.16,0,0,1-1.17,0c-.13,0-.21,0-.24.11a5.65,5.65,0,0,0-.09.92,4.89,4.89,0,0,0-.05.66,1.65,1.65,0,0,1,0,.47.08.08,0,0,0,0,.07s.08,0,.14,0l2.64-.1L50.93,43l-.09-1.88-2.31,0Zm-.84-5.93q-.1,0-.12,0a.28.28,0,0,0,0,.14l-.1,1.32L46,37.64l4.71-.19-.1-2.12-2.12-.14ZM46.55,48a.2.2,0,0,1,.17-.19,1.82,1.82,0,0,1,.45,0c.5,0,1,0,1.46,0a6.21,6.21,0,0,1,1.08.05c.09,0,.14.17.14.43s0,.47-.05.47l-.89.09-.52,0a1.4,1.4,0,0,1-.47,0c-.13,0-.19,0-.19.05l-.42,0a1.2,1.2,0,0,1-.36,0,.94.94,0,0,0-.3.05.2.2,0,0,1-.14-.05.27.27,0,0,1,0-.19.63.63,0,0,0,0-.28,1.15,1.15,0,0,1,0-.33ZM58.75,33.4c.13,0,.24.23.33.59s.26,1.53.5,3.51.55,4.66,1,8l1.37,12.24c0,.07-.45.1-1.35.1H51.48c-1,0-1.57,0-1.84,0s-.4-.08-.4-.14,0-.26,0-.49.21-.38.7-.43,1.39-.07,2.71-.07h8.1V55.44c0-.6-.08-1.68-.24-3.25s-.47-4.36-.94-8.38L58.38,33.45S58.5,33.4,58.75,33.4Zm-6.31-3.53c.85,0,1.24,0,1.18.05l-1.3,0a5.71,5.71,0,0,1-1.2,0A6,6,0,0,1,52.44,29.87Zm9.09-4.52c-.06.59-.17,1.54-.33,2.82s-.28,2.22-.38,2.78a8.5,8.5,0,0,1-1.41.05A6.92,6.92,0,0,1,58.09,31l0-.56a2,2,0,0,1,0-.4c0-.08,0-.12.14-.12l.8,0c.41,0,.64-.16.71-.43s.15-.87.28-1.81l.28-2.22.47,0C61.25,25.29,61.53,25.29,61.53,25.35Z"/><path class="cls-1" d="M89.48,21.53l-.24,1.6L89,24.78l1.6-.23a10.54,10.54,0,0,1,1.6-.29l-.33,2.88c-.1.78-.18,1.41-.26,1.88a3.71,3.71,0,0,1-.19.83.25.25,0,0,1-.21.11L89.57,30a7.5,7.5,0,0,0-1.06,0,.43.43,0,0,0-.35.28,4.32,4.32,0,0,0-.19,1c-.13.91-.16,1.33-.1,1.27l4.34-.52c0,.6,0,1.52,0,2.76s-.06,2.16-.09,2.75l-.36,0c-.2,0-.62,0-1.25,0a8.67,8.67,0,0,0-1.13,0,.52.52,0,0,0-.4.28,4,4,0,0,0-.21,1c-.06.5-.1.85-.12,1s0,.27.08.24l1.76-.12c.74,0,1.28-.08,1.63-.12,0,.29-.1,1.12-.29,2.5l-.28,2.45L89.66,45c-.69,0-1.15,0-1.39,0a.58.58,0,0,0-.47.28,4,4,0,0,0-.21,1,4.63,4.63,0,0,0,0,.71.74.74,0,0,0,.45.73,6.06,6.06,0,0,0,1.77.31c.88.06,2.27.09,4.19.09l7,0L113.21,48a3,3,0,0,1,1.08.19,1.14,1.14,0,0,1,.47.75c.13.41.32,1.26.57,2.54l.61,3.49-13.56-.42-13.52-.48L85.19,52c-2.39-1.45-3.63-2.17-3.72-2.17L81,52.57l-.52,2.73A24.5,24.5,0,0,1,77.07,54a26.55,26.55,0,0,1-3.32-1.51q.8-2.3,2.45-6.8c1.09-3,1.91-5.17,2.44-6.52l4.38,2-.89,5.09c0,.06.2.17.71.33a2.38,2.38,0,0,0,.94.18l-.24-4.33-.28-4.52q0-.18-.09-.21a1.74,1.74,0,0,0-.38,0,13.78,13.78,0,0,1-1.6,0l-1.84.05h-3V35.9l.05-1.84,3.3-.42,3.34-.43L83,31.94l0-1.55a.54.54,0,0,0-.05-.29s-.14,0-.33,0a8.3,8.3,0,0,1-1.27,0l-1.41,0H77.51V28.46a5.63,5.63,0,0,1,.17-1.28.85.85,0,0,1,.56-.47,17.2,17.2,0,0,1,1.91-.37l2.64-.43-.1-1.41,0-1.65q0-.13.21-.21a7.69,7.69,0,0,1,.94-.21c.49-.1,1.2-.22,2.14-.38C88.3,21.67,89.48,21.5,89.48,21.53Zm-8.06,9.75a.54.54,0,0,1,.29,0s0,.14,0,.33V32l-.94.09-.89.14s0-.16,0-.47,0-.39.07-.42a1.36,1.36,0,0,1,.54-.05Zm1,20.91a7.84,7.84,0,0,1,.8.47c.28.19.42.32.42.38a12.08,12.08,0,0,0-.28,1.36l-.19,1c-.12.79-.26,1.54-.42,2.26,0,.07-.47-.11-1.41-.52a3.67,3.67,0,0,1-1.13-.56s.18,0,.56,0a1.36,1.36,0,0,0,.59-.09c.11-.06.21-.28.31-.64s.2-.84.32-1.43ZM82,38.91c.06,0,.09,0,.09.05s0,.06-.09,0l0-.05Zm10.92,6.62a3,3,0,0,1,.52,0H94c.09,0,.14,0,.14.1l-.09.66a1.1,1.1,0,0,0,0,.35.6.6,0,0,1,0,.26c0,.09-.33.14-1,.14a11.75,11.75,0,0,1-2.82-.28l-.94-.19c-.16,0-.22-.09-.19-.19s.13-.15.4-.16.76,0,1.48,0,1.22,0,1.48,0,.41-.06.41-.12a1.15,1.15,0,0,1,0-.33A.15.15,0,0,1,92.91,45.53Zm23.67,4.82h.21a.41.41,0,0,1,.21.26q.07.21.24,1c.11.52.26,1.27.44,2.24l.62,3.48-13.57-.42-9-.33c-2.23-.09-3.59-.18-4.1-.26a4,4,0,0,1-1.27-.4,6.13,6.13,0,0,1-.66-.4c-.09-.08-.07-.13,0-.16l12.43.42,5.51.14q4.53.2,7,.19A10.94,10.94,0,0,0,116.7,56c.31-.08.47-.23.47-.45a28.59,28.59,0,0,0-.62-5.08C116.52,50.39,116.53,50.35,116.58,50.35ZM90.23,38.82c.09,0,.12,0,.09,0h-.19S90.13,38.82,90.23,38.82ZM102.9,22.76a11,11,0,0,1,2.4-.28c0-.19-.06.5-.19,2.07l-.19,2.54s0,.06-.12.07a2,2,0,0,1-.4,0,.83.83,0,0,0-.44.07c0,.05-.06.22,0,.5l.24,10.64a.58.58,0,0,0,0,.29.18.18,0,0,0,.18.09l.48-.05.8-.09-.15,2.45-.18,2.54c.25-.63.63-1.7,1.15-3.2s.89-2.62,1.11-3.35l-1.23-3-1.27-3a25.74,25.74,0,0,1,2.54-1.6c.07-.06.36.36.9,1.27s.8,1.31.8,1.28c.12-.35.31-.88.56-1.61s.43-1.25.52-1.6l-2.45,0-2.49-.1a19.37,19.37,0,0,1-.14-2.24,9.06,9.06,0,0,1,0-1.67l5-.56c2.3-.25,4-.43,5-.52,0,.41-.09,1.46-.28,3.15a25.5,25.5,0,0,1-.38,3.16c-.12.57-.47,1.76-1,3.58l-1.13,3.72,2.12,3.48,2.12,3.49s-.63.53-1.89,1.51l-2.63,2a17.45,17.45,0,0,1-.95-1.93q-.42-1-.84-2a2.47,2.47,0,0,1-.17.54c-.11.3-.24.75-.4,1.35a17,17,0,0,1-.66,1.83l-1.13-.52c-2.26-1-3.41-1.47-3.44-1.5l.24-.71.23-.7s-.14,0-.42,0-.31,0-.35.07a.86.86,0,0,0-.1.45,10.08,10.08,0,0,0,0,1q0,.9,0,1.23t-.21.33c-.6,0-1.4,0-2.42-.08l-2.29-.11c-.06,0-.11-.14-.14-.43a8.75,8.75,0,0,1,0-.94,5.41,5.41,0,0,1,.1-1.27c0-.09,0-.15-.1-.16a1.41,1.41,0,0,0-.37,0,12.48,12.48,0,0,1-1.6.05l-1.84,0h-3V42.4c0-.57,0-1,0-1.32a1.16,1.16,0,0,1,.14-.57.77.77,0,0,1,.38-.14,1.21,1.21,0,0,0,.4,0c.08,0,.12-.07.12-.14l.7-12.57v-.14s0-.06-.11-.07a1.83,1.83,0,0,0-.4,0,.66.66,0,0,1-.38-.07c-.06-.05-.1-.19-.12-.45s0-.59,0-1l0-1.56,5.93-.94Zm-10.13,8v.1s0,0,0-.05S92.74,30.73,92.77,30.76Zm4.57,14.7a1.36,1.36,0,0,1,.61.07c.06,0,.1.16.1.35v.42a.31.31,0,0,1-.17.31,3.19,3.19,0,0,1-.92.07H95.83a2.64,2.64,0,0,1-.94-.09c-.09-.07-.14-.24-.14-.52s0-.45.12-.5a2.73,2.73,0,0,1,.82-.07ZM99.69,27.3l-.7,0a1.57,1.57,0,0,0-.83.12,1.51,1.51,0,0,0-.07.82v1l.1.05.75-.1a1.72,1.72,0,0,0,.75-.19c.07-.06.1-.28.1-.66a2.54,2.54,0,0,0,0-.49,1.4,1.4,0,0,1,0-.4C99.88,27.36,99.82,27.32,99.69,27.3Zm0,5.25a.07.07,0,0,0-.07,0l-.75,0a2.94,2.94,0,0,0-.52,0,.14.14,0,0,0-.14.16,3.63,3.63,0,0,1,0,.8,1.63,1.63,0,0,0,0,.52c0,.06.13.09.28.09h.33a1.29,1.29,0,0,0,.66-.09c.07-.06.1-.25.1-.57a3.7,3.7,0,0,1,0-.8A.28.28,0,0,0,99.67,32.55Zm-.23,5a4.66,4.66,0,0,0-.5,0q-.47,0-.54.12a2,2,0,0,0,0,.82v1c0,.06,0,.09.14.09l.14,0a1,1,0,0,1,.28,0c.25,0,.4-.08.45-.16a2,2,0,0,0,.07-.73,3.66,3.66,0,0,0,.05-.57,1.47,1.47,0,0,1,0-.42C99.55,37.58,99.51,37.54,99.44,37.52Zm5.86-1.86c.06,0,.17.24.33.71a6.42,6.42,0,0,1,.38.94c0,.09-.13.14-.38.14s-.21,0-.24-.09a2.06,2.06,0,0,1,0-.57,4.88,4.88,0,0,0,0-.94Zm12.31-9.58c.11,0,.17.05.17.12l-.28,3.1a30.48,30.48,0,0,1-.36,3q-.17.78-.87,3.09l-1,3.15-.52-.85a1.56,1.56,0,0,1-.33-.89,14.63,14.63,0,0,1,.71-2.78c.44-1.44.71-2.39.8-2.83a23.66,23.66,0,0,0,.33-2.54l.24-2.49s.09-.05.19-.05a1,1,0,0,0,.28,0A2.87,2.87,0,0,1,117.61,26.08Zm.5,18.76c.16.22.35.53.59.92s.4.69.49.87a12.63,12.63,0,0,1-1.22,1c-.82.64-1.39,1.07-1.7,1.29a7.82,7.82,0,0,1-.19-.87c-.06-.39-.11-.7-.14-.92L117,46.3a8.69,8.69,0,0,0,.91-.75.64.64,0,0,0,.12-.42C118.06,44.91,118.08,44.81,118.11,44.84Z"/><path class="cls-1" d="M141.73,22.24l2.9-.14c.64,0,1,0,1.15,0s.19.06.19.12q.24,5.08.66,16.18t.61,16.27a9.2,9.2,0,0,1-1.48.12c-1,0-2,.07-3.09.07a13.66,13.66,0,0,1-3.15-.14c0-.73.09-1.79.16-3.21s.15-2.44.22-3.1a2.29,2.29,0,0,1,.8-.24,1.55,1.55,0,0,0,.66-.19c.06-.06.09-.23.09-.52l.05-2.59.09-2-3.25-.19-.09,6.17-.1,3.25c-.06,2.1-.09,3.17-.09,3.2a.18.18,0,0,1-.14.19,6.26,6.26,0,0,1-.94.07c-.54,0-1.26,0-2.17,0s-1.63,0-2.14,0a5.87,5.87,0,0,1-.92-.07.18.18,0,0,1-.14-.19q0-1.12,1.32-29.34l.14-3.15,6.12-.38ZM139.4,56a4.51,4.51,0,0,1,.5,0c.28,0,.44,0,.49.09a1.07,1.07,0,0,1,.07.52v.75c0,.26-.09.41-.28.47a5.35,5.35,0,0,1-1.37.1h-1.65l-2.14,0a3.39,3.39,0,0,1-.92-.1.27.27,0,0,1-.14-.26v-.4c0-.2.12-.32.36-.35a8.25,8.25,0,0,1,1,0h2.54a7.77,7.77,0,0,0,1-.05.8.8,0,0,0,.38-.11,1.29,1.29,0,0,0,0-.45Q139.28,56,139.4,56Zm-.73-20.65c-.09,0-.15.1-.16.31s0,.6,0,1.2l0,1.51,1.41-.1,1.65-.09c.12,0,.19-.1.21-.29s0-.53,0-1l.05-1.37-1.51,0A6.69,6.69,0,0,1,138.67,35.33Zm.1-7.77s-.06.07-.07.31,0,.62,0,1.15c0,.32,0,.63,0,.94a5.17,5.17,0,0,1,0,.76.26.26,0,0,0,0,.18s.1,0,.19,0l2.92-.14c.1,0,.15-.08.17-.26s0-.51,0-1a7.67,7.67,0,0,0,.05-.82,3.67,3.67,0,0,1,0-.64c0-.09-.11-.15-.32-.19l-1.28-.14Zm.7,17.66a3.15,3.15,0,0,1,.1-1.13q.09-.14.33-.09c.28,0,.42,0,.42,0l0,1.37a9,9,0,0,1,0,1.22.37.37,0,0,1-.33.24.63.63,0,0,0-.22.05.11.11,0,0,1-.16-.07.87.87,0,0,1-.05-.31Zm.28-8.55.33,0,.38,0c.06,0,.1.07.1.17a.12.12,0,0,1-.08.12l-.21,0a1.37,1.37,0,0,0-.47.05.14.14,0,0,1-.12-.05.46.46,0,0,1,0-.14C139.66,36.74,139.69,36.69,139.75,36.67Zm.12-7.65c0-.06,0-.09.07-.09a.52.52,0,0,0,.21,0,.54.54,0,0,1,.22.05.44.44,0,0,1,.3.1.28.28,0,0,1,.12.23q0,.24-.33.24a1.48,1.48,0,0,0-.47,0,.11.11,0,0,1-.12-.07,1.26,1.26,0,0,1,0-.26A1.8,1.8,0,0,1,139.87,29ZM142,56.08a1.79,1.79,0,0,1,.66-.1l1.51,0L146,56c.31,0,.47,0,.47.07a7.21,7.21,0,0,0,1.06.24c.68.12,1.36.22,2.05.28,0,0,0,.09,0,.28s-.06.16-.17.19a6.83,6.83,0,0,1-1.1.07c-.63,0-1.5,0-2.59,0H143.9c-.88,0-1.44,0-1.67,0s-.36-.13-.36-.28a2,2,0,0,1,0-.47A.3.3,0,0,1,142,56.08ZM154.78,20.4c1.25,1.29,2.13,2.22,2.63,2.78a1.11,1.11,0,0,1,.26.31s0,.15-.12.3a.5.5,0,0,1-.11.17c-.05.05,0,.08.05.09a2,2,0,0,0,.44,0l4-.1,4.62-.09c0,.06,0,.48.07,1.27s.09,1.79.12,3a.61.61,0,0,1-.17.45,12.08,12.08,0,0,1-1.24.87c-.35.22-.64.42-.88.59a5,5,0,0,0-.44.35l3.2-.33,3.2-.33c0,.29-.09,1.09-.28,2.41-.06.66-.13,1.17-.19,1.55a2.43,2.43,0,0,1-.16.66.49.49,0,0,1-.26.14l-4,.1-4,.09-7.77.14-.09,10.41-.1,10.45c-.62-.06-1.59-.18-2.91-.35s-2.3-.31-2.92-.4q.27-3.59,1-11.44T149.83,32c0-.07.13-.1.38-.1l.33-.05a25.31,25.31,0,0,0-2.12-1.69c-.75-.57-1.46-1.13-2.12-1.7l1.13-1.08,3.11-3Zm-6.93,4c.13,0,.19,0,.19,0a1.25,1.25,0,0,1-.28.33l-.42.38s-.05-.13-.05-.28.05-.43.14-.43A1.87,1.87,0,0,1,147.85,24.41Zm-.28,7.34c0-.06,0-.09.05-.09a1.36,1.36,0,0,1,.47.33,1.53,1.53,0,0,1,.24.3,1.82,1.82,0,0,1,0,.5c0,.47-.06,1.38-.19,2.73l-.33,3.11-.14-3.11-.09-3.44ZM150,56.66a.2.2,0,0,1,.14,0,14.66,14.66,0,0,0,1.84.23c.56,0,1.24,0,2,0l1.25,0a1,1,0,0,1,.54.12c.07.06.08.21.05.42,0,.41,0,.62-.05.62-.59-.07-1.56-.19-2.89-.38L150,57.28V56.9A.38.38,0,0,1,150,56.66Zm5-28.86a8.53,8.53,0,0,0-1.55,1.9c-.94,1.31-1.37,2-1.27,2,.53,0,1.34-.11,2.42-.24l2.38-.28c.06,0,.45-.48,1.18-1.34l1.46-1.77-2.26-.14Zm14.13,7.3a.16.16,0,0,1,.17.11,4,4,0,0,1,0,.45c0,1.67-.09,4-.17,6.9s-.15,5-.21,6.33c-.06,0-1.45-.14-4.17-.51s-4.09-.59-4.12-.62c0-.4-.06-1-.09-1.76s0-1.33,0-1.67l1.84,0,1.88-.05-.19-2.07-.14-2.26c0-.09-.15-.15-.47-.17l-1.79,0-1.55,0q-.57,0-.66.15a.87.87,0,0,0-.09.49l-.1,5.23-.14,4.66,5.18-.14L170,50a.78.78,0,0,1,.45.1,1.6,1.6,0,0,1,.28.66c.11.37.25.88.41,1.51a20.65,20.65,0,0,1,.47,2.3q-2.64.19-8.43.57l-8.43.56-.38-18.6a.45.45,0,0,1,.33-.45,19.06,19.06,0,0,1,2.1-.33l4.82-.54Zm-13.07-6c.21-.1.36-.08.45,0s-.06.23-.35.5-.51.4-.64.4l-.23,0s-.05,0-.05,0a2.32,2.32,0,0,1,.28-.47A1.39,1.39,0,0,1,156.07,29.12Zm16.6,23.31c0-.47.25.15.73,1.86A9.14,9.14,0,0,1,174,57l-8.43.56q-5.79.38-8.43.57a3.05,3.05,0,0,0,0-.62,2.48,2.48,0,0,1,0-.49c0-.08.07-.12.16-.12s2.69-.22,7.77-.56,7.6-.46,7.73-.52a5.4,5.4,0,0,0,.09-1.6,5.85,5.85,0,0,0-.05-1,1.06,1.06,0,0,1-.09-.47A.52.52,0,0,1,172.67,52.43ZM160.66,41a2.64,2.64,0,0,1,.94-.09,4.45,4.45,0,0,1,1,0c.1,0,.15.15.15.37l0,.57a.15.15,0,0,1-.07.14.28.28,0,0,1-.16,0h-.47c-.19,0-.3,0-.33.07a.94.94,0,0,0-.05.4c0,.28,0,.44-.1.49a1.94,1.94,0,0,1-.75.07c-.19,0-.3,0-.33-.05s0-.1,0-.23a7.3,7.3,0,0,0,0-1.13C160.52,41.28,160.57,41.05,160.66,41ZM168,26.27a1.77,1.77,0,0,1,.4,0,1.83,1.83,0,0,1,.4,0c.08,0,.11.05.11.11a19.84,19.84,0,0,1,.1,2.22l-.71.09c-.16,0-.26-.05-.3-.14a1.41,1.41,0,0,1-.07-.57,11.41,11.41,0,0,0,0-1.64S167.91,26.28,168,26.27Zm3.46,11.18q.18,0,.21.12a1.32,1.32,0,0,1,0,.3l-.14,5.47-.14,5.27q0,.2-.12.21a2.48,2.48,0,0,1-.49,0,2.51,2.51,0,0,1-.47,0c-.1,0-.14,0-.14-.07q0-2.58.33-11.16a.22.22,0,0,1,.16-.05.46.46,0,0,0,.21,0Zm1.13-5.3c.12,0,.19,0,.19.07l-.29,2.36c0,.19-.07.57-.14,1.15a3,3,0,0,1-.21,1,.52.52,0,0,1-.45.16h-.75c-.22,0-.35,0-.38-.09a1.48,1.48,0,0,1,0-.47,2.92,2.92,0,0,1,0-.5c0-.08.09-.13.21-.16H171a12.84,12.84,0,0,0,.23-1.6l.24-1.7a.32.32,0,0,1,.14-.19.85.85,0,0,1,.33,0A4.39,4.39,0,0,1,172.58,32.15Z"/><path class="cls-1" d="M196.66,22.24l2.9-.14c.64,0,1,0,1.15,0s.19.06.19.12q.24,5.08.66,16.18t.61,16.27a9.2,9.2,0,0,1-1.48.12c-1,0-2,.07-3.09.07a13.66,13.66,0,0,1-3.15-.14c0-.73.09-1.79.16-3.21s.15-2.44.22-3.1a2.29,2.29,0,0,1,.8-.24,1.55,1.55,0,0,0,.66-.19c.06-.06.09-.23.09-.52l.05-2.59.09-2-3.25-.19-.09,6.17-.1,3.25c-.06,2.1-.09,3.17-.09,3.2a.18.18,0,0,1-.14.19,6.26,6.26,0,0,1-.94.07c-.54,0-1.26,0-2.17,0s-1.62,0-2.14,0a5.87,5.87,0,0,1-.92-.07.18.18,0,0,1-.14-.19q0-1.12,1.32-29.34l.14-3.15,6.12-.38ZM194.33,56a4.51,4.51,0,0,1,.5,0c.28,0,.44,0,.49.09a1.07,1.07,0,0,1,.07.52v.75c0,.26-.09.41-.28.47a5.35,5.35,0,0,1-1.37.1H192.1l-2.15,0a3.39,3.39,0,0,1-.92-.1.27.27,0,0,1-.14-.26v-.4c0-.2.12-.32.36-.35a8.25,8.25,0,0,1,1,0h2.54a7.77,7.77,0,0,0,1-.05.75.75,0,0,0,.38-.11,1.29,1.29,0,0,0,0-.45Q194.21,56,194.33,56Zm-.73-20.65c-.09,0-.15.1-.16.31s0,.6,0,1.2l0,1.51,1.41-.1,1.65-.09c.12,0,.19-.1.21-.29s0-.53,0-1l.05-1.37-1.51,0A6.69,6.69,0,0,1,193.6,35.33Zm.1-7.77s-.06.07-.07.31,0,.62,0,1.15c0,.32,0,.63,0,.94a5.17,5.17,0,0,1,0,.76.26.26,0,0,0,0,.18s.1,0,.19,0l2.92-.14c.1,0,.15-.08.17-.26s0-.51,0-1a7.67,7.67,0,0,0,.05-.82,2.8,2.8,0,0,1,0-.64c0-.09-.12-.15-.33-.19l-1.28-.14Zm.7,17.66a3.15,3.15,0,0,1,.1-1.13q.09-.14.33-.09c.28,0,.42,0,.42,0l-.05,1.37a9,9,0,0,1,0,1.22.37.37,0,0,1-.33.24.63.63,0,0,0-.22.05.11.11,0,0,1-.16-.07.87.87,0,0,1,0-.31Zm.28-8.55.33,0,.38,0c.06,0,.1.07.1.17a.12.12,0,0,1-.08.12l-.21,0a1.37,1.37,0,0,0-.47.05.14.14,0,0,1-.12-.05.46.46,0,0,1,0-.14C194.59,36.74,194.62,36.69,194.68,36.67ZM194.8,29c0-.06,0-.09.07-.09a.52.52,0,0,0,.21,0,.54.54,0,0,1,.22.05.44.44,0,0,1,.3.1.28.28,0,0,1,.12.23q0,.24-.33.24a1.48,1.48,0,0,0-.47,0,.11.11,0,0,1-.12-.07,1.26,1.26,0,0,1,0-.26A1.8,1.8,0,0,1,194.8,29ZM197,56.08a1.67,1.67,0,0,1,.65-.1l1.51,0,1.79,0c.31,0,.47,0,.47.07a7.21,7.21,0,0,0,1.06.24c.68.12,1.36.22,2,.28,0,0,.05.09.05.28s-.06.16-.17.19a6.83,6.83,0,0,1-1.1.07c-.63,0-1.5,0-2.59,0h-1.84c-.88,0-1.44,0-1.67,0s-.36-.13-.36-.28a2,2,0,0,1,0-.47C196.85,56.21,196.88,56.12,197,56.08ZM209.71,20.4c1.25,1.29,2.13,2.22,2.64,2.78a1.19,1.19,0,0,1,.25.31s0,.15-.11.3a.74.74,0,0,1-.12.17c-.05.05,0,.08,0,.09a2,2,0,0,0,.44,0l4-.1,4.61-.09c0,.06,0,.48.07,1.27s.09,1.79.12,3a.61.61,0,0,1-.17.45,12.08,12.08,0,0,1-1.24.87c-.35.22-.64.42-.88.59a5,5,0,0,0-.44.35l3.2-.33,3.2-.33c0,.29-.09,1.09-.28,2.41-.06.66-.13,1.17-.19,1.55a2.43,2.43,0,0,1-.16.66.49.49,0,0,1-.26.14l-4,.1-4.05.09-7.77.14-.09,10.41-.09,10.45c-.63-.06-1.61-.18-2.92-.35s-2.3-.31-2.92-.4q.27-3.59,1-11.44T204.76,32c0-.07.13-.1.38-.1l.33-.05a23.17,23.17,0,0,0-2.12-1.69c-.75-.57-1.46-1.13-2.12-1.7l1.13-1.08,3.11-3Zm-6.93,4c.13,0,.19,0,.19,0a1.25,1.25,0,0,1-.28.33l-.42.38a.5.5,0,0,1-.05-.28c0-.29.05-.43.14-.43A1.87,1.87,0,0,1,202.78,24.41Zm-.28,7.34c0-.06,0-.09.05-.09A1.36,1.36,0,0,1,203,32a1.22,1.22,0,0,1,.24.3,1.82,1.82,0,0,1,0,.5c0,.47-.06,1.38-.19,2.73l-.33,3.11-.14-3.11-.09-3.44ZM205,56.66a.2.2,0,0,1,.14,0,14.66,14.66,0,0,0,1.84.23c.56,0,1.24,0,2,0l1.25,0a1,1,0,0,1,.54.12c.07.06.08.21,0,.42,0,.41,0,.62,0,.62-.59-.07-1.56-.19-2.89-.38l-2.95-.42V56.9A.38.38,0,0,1,205,56.66Zm5-28.86a8.53,8.53,0,0,0-1.55,1.9c-.94,1.31-1.37,2-1.27,2,.53,0,1.34-.11,2.42-.24l2.38-.28c.06,0,.45-.48,1.18-1.34l1.46-1.77-2.26-.14Zm14.13,7.3a.15.15,0,0,1,.17.11,4,4,0,0,1,0,.45c0,1.67-.09,4-.17,6.9s-.15,5-.21,6.33c-.06,0-1.45-.14-4.17-.51s-4.08-.59-4.12-.62c0-.4-.06-1-.09-1.76s-.05-1.33-.05-1.67l1.84,0,1.88-.05L219,42.16l-.14-2.26c0-.09-.15-.15-.47-.17l-1.79,0-1.55,0q-.57,0-.66.15a.87.87,0,0,0-.09.49l-.1,5.23L214,50.26l5.18-.14L225,50a.77.77,0,0,1,.44.1,1.56,1.56,0,0,1,.29.66c.1.37.24.88.4,1.51a20.65,20.65,0,0,1,.47,2.3q-2.64.19-8.43.57l-8.43.56-.38-18.6a.45.45,0,0,1,.33-.45,19.06,19.06,0,0,1,2.1-.33l4.82-.54Zm-13.07-6c.21-.1.36-.08.45,0s0,.23-.35.5-.51.4-.64.4l-.23,0s0,0,0,0a2.32,2.32,0,0,1,.28-.47A1.39,1.39,0,0,1,211,29.12Zm16.6,23.31c0-.47.25.15.73,1.86a8.73,8.73,0,0,1,.59,2.66l-8.43.56q-5.79.38-8.43.57a4,4,0,0,0,0-.62,2.79,2.79,0,0,1,0-.49c0-.08.07-.12.16-.12s2.69-.22,7.77-.56,7.6-.46,7.73-.52a5.4,5.4,0,0,0,.09-1.6,5.85,5.85,0,0,0,0-1,1.06,1.06,0,0,1-.09-.47A.52.52,0,0,1,227.6,52.43ZM215.59,41a2.68,2.68,0,0,1,.95-.09,4.4,4.4,0,0,1,1,0c.1,0,.15.15.15.37l0,.57a.15.15,0,0,1-.07.14.28.28,0,0,1-.16,0H217c-.19,0-.3,0-.33.07a.94.94,0,0,0-.05.4c0,.28,0,.44-.09.49a2,2,0,0,1-.76.07c-.19,0-.3,0-.33-.05s0-.1,0-.23a7.3,7.3,0,0,0,0-1.13C215.45,41.28,215.5,41.05,215.59,41Zm7.33-14.71a1.77,1.77,0,0,1,.4,0,1.83,1.83,0,0,1,.4,0c.08,0,.12.05.12.11s.06.84.09,2.22l-.71.09a.3.3,0,0,1-.3-.14,1.41,1.41,0,0,1-.07-.57,11.41,11.41,0,0,0,0-1.64S222.84,26.28,222.92,26.27Zm3.46,11.18q.18,0,.21.12a1.32,1.32,0,0,1,0,.3l-.14,5.47-.14,5.27q0,.2-.12.21a2.48,2.48,0,0,1-.49,0,2.51,2.51,0,0,1-.47,0c-.1,0-.14,0-.14-.07q0-2.58.33-11.16a.22.22,0,0,1,.16-.05.46.46,0,0,0,.21,0Zm1.13-5.3c.12,0,.19,0,.19.07l-.29,2.36c0,.19-.07.57-.14,1.15a3,3,0,0,1-.21,1,.52.52,0,0,1-.45.16h-.75c-.22,0-.35,0-.38-.09a1.48,1.48,0,0,1,0-.47,2.92,2.92,0,0,1,0-.5c0-.08.09-.13.21-.16h.24a12.84,12.84,0,0,0,.23-1.6l.24-1.7a.32.32,0,0,1,.14-.19.85.85,0,0,1,.33,0A4.39,4.39,0,0,1,227.51,32.15Z"/><path class="cls-1" d="M245.4,21.67c.44.35,1.12.92,2,1.72l2,1.77-1.08,1.41c-.44.54-.73.91-.87,1.13a.82.82,0,0,0-.17.57q0,1.32.38,8.47l.33,8.39q1.28-1.74,4.71-6.69c2.29-3.3,3.47-5,3.53-5.18h-6.64V31.89l.05-1.36L254.4,30l4.76-.56.18-2.92.24-2.92s.65-.21,1.86-.52,2.05-.52,2.52-.61l.14,2.92.09,3.11a.22.22,0,0,0,.07.18.55.55,0,0,0,.31.05,6.79,6.79,0,0,0,.92-.07c.36-.05.78-.09,1.25-.12l2.68-.33,5.23-.61c0,.35-.1,1.27-.28,2.78-.07.75-.13,1.36-.19,1.81a2.48,2.48,0,0,1-.19.8.47.47,0,0,1-.38.12l-3,0c-1.7,0-2.55,0-2.55,0l4.38,7.07c.72,1.22,1.34,2.24,1.84,3l1.18,1.9c.87,1.45,1.31,2.19,1.31,2.22a28,28,0,0,1-2.87,1.17c-1.95.76-2.93,1.12-3,1.09l-.85-1.84c-.19-.47-.36-.86-.5-1.18a2.58,2.58,0,0,0-.3-.56l-.19,1.6a6.65,6.65,0,0,0-.07.85c0,.37-.12.6-.31.68a2.83,2.83,0,0,1-1,.12h-1.6l-.89,0q-.24,0-.24.21c0,.22.08,1.13.14,2.71s.1,2.68.1,3.27c-.85.07-2.17.11-4,.15s-3.11,0-4,0l.38-6.17c0-.06-.1-.09-.4-.09h-1.72c-.78,0-1.3,0-1.55-.05s-.41-.12-.47-.28a3,3,0,0,1-.1-1,4.06,4.06,0,0,1,.14-1,.74.74,0,0,1,.5-.35,16.28,16.28,0,0,1,1.62-.31l2.26-.33.57-8.8c-.16.22-.5.79-1,1.72s-1.21,2.15-2,3.69l-3.11,5.51a16.81,16.81,0,0,1-2.12-.42l-2.12-.47.14,4.24c.13,2.1.19,3.53.19,4.28-1,.06-2.6.11-4.78.14s-3.77.05-4.78.05l.71-9.51.75-9.61c0-.09-.17.09-.52.56l-.56.71c-.54-.59-1.34-1.57-2.43-2.92l-2.37-3q0-.09,5.46-5.36Zm4.1,27.46.8.19a5.7,5.7,0,0,0,1.41.19,1.79,1.79,0,0,1,.55,0,.42.42,0,0,1,.07.29c0,.18,0,.28-.05.28l-.9-.19-.84-.19.14,4.24c.12,2.1.19,3.53.19,4.29l-3.8.09q-3.65.09-5,.09a1.56,1.56,0,0,1-.66-.07c-.06,0-.09-.21-.09-.49l.09-.57s1.38-.07,4.14-.14l4.15-.09c0-.57,0-1.6-.05-3.09s-.08-3-.14-4.4C249.44,49.29,249.44,49.13,249.5,49.13Zm1.08-22.7.76.68.42.4a3.85,3.85,0,0,1-.59.83c-.39.49-.62.73-.68.73l-1.84.23c-.06-.06,0-.22.12-.47a9.86,9.86,0,0,1,.82-1.13Zm-1.74,8.1c0-.06.16-.09.47-.09h.52l.14,2.49c0,.51.05,1.07.05,1.7a3.54,3.54,0,0,1-.07.87,2.27,2.27,0,0,1-.36.64c-.34.5-.51.7-.51.61l-.14-3-.1-3.11Zm3.25,0a1.39,1.39,0,0,1,.61-.07,2.62,2.62,0,0,1,.76,0l-.38.57a2.22,2.22,0,0,1-.38.49.65.65,0,0,1-.37.07c-.16,0-.26,0-.29-.07a1.43,1.43,0,0,1,0-.49C252,34.74,252,34.55,252.09,34.51Zm2.59,16.13c.06,0,.08,0,0,0h-.14S254.59,50.64,254.68,50.64Zm1.2.07c0-.05.1-.07.26-.07a.42.42,0,0,1,.24,0,.7.7,0,0,1,0,.33,3.49,3.49,0,0,0,0,.62c0,.09,0,.15-.07.16a.65.65,0,0,1-.22,0c-.12,0-.19,0-.21-.11a4,4,0,0,1,0-.45A4.19,4.19,0,0,1,255.88,50.71Zm1.06-7.18-.05.75a2.76,2.76,0,0,1-.09.61c0,.06-.14.11-.33.14l-.38,0a3.65,3.65,0,0,1,.38-.8A3.8,3.8,0,0,1,256.94,43.53Zm9.44,7.08a1.17,1.17,0,0,1,.47-.09c.27,0,.64,0,1.11,0,.66,0,1.11,0,1.34,0s.37.07.4.16.11.11.24.12a5.3,5.3,0,0,0,.66,0,2.76,2.76,0,0,1,.71,0c.06,0,.07.14,0,.33s0,.31-.07.35a1.21,1.21,0,0,1-.56.1c-.33,0-.8,0-1.39,0q-1.14,0-1.53,0c-.27,0-.4.08-.4.21s.07,1.12.14,2.71.09,2.67.09,3.27L264.5,58c-2,.07-3.41.1-4.17.1a1.21,1.21,0,0,1-.54-.07c-.05,0-.05-.22,0-.5s0-.61,0-.61l3.3-.09,3.34-.1c0-.44,0-1.25,0-2.42s-.06-2.3-.12-3.37A.41.41,0,0,1,266.38,50.61Zm-.87-13.54a20.24,20.24,0,0,0-1-2.21c0-.16,0,1.54.14,5.09l.19,4.89c0,.13.14.18.4.15s.76-.11,1.49-.24l1.93-.28c0-.07-.68-1.65-2-4.76Zm.68-12.29c.08,0,.12.07.12.19.06.57.1,1,.1,1.27,0,.63-.05.94-.14.94l-.9.15s0-.42-.05-1.16a5.79,5.79,0,0,1,0-1.15l.43-.14A1.81,1.81,0,0,1,266.19,24.78ZM266,42.21a5.3,5.3,0,0,1,.31.63,5,5,0,0,1,.21.59l-.28,0h0c-.1,0-.16-.1-.19-.31a5.76,5.76,0,0,1,0-.82C266,42.22,266,42.18,266,42.21Zm10.81-12.29c.11,0,.16,0,.16.14l-.28,2.73c0,.28-.07.74-.12,1.39s-.18,1-.4,1.13a3.26,3.26,0,0,1-1.27.16h-1.46c-.56,0-1,0-1.37,0a1.47,1.47,0,0,1-.68-.14,1.37,1.37,0,0,1-.35-.45,1.45,1.45,0,0,0-.12-.19.28.28,0,0,1-.07-.19c0-.09.17-.15.5-.16s.8,0,1.43,0h1a2.38,2.38,0,0,0,1.34-.22,1.46,1.46,0,0,0,.26-.89c0-.46.06-.81.1-1.06a17.31,17.31,0,0,1,.23-2.07l.47,0A4.33,4.33,0,0,1,276.84,29.92Zm1.2,18,.59.89a7.21,7.21,0,0,1,.54.94,28.7,28.7,0,0,1-2.87,1.18q-2.93,1.13-3,1.08a8.33,8.33,0,0,1-.38-.78c-.15-.35-.22-.55-.19-.58l2.64-1c.75-.29,1.34-.52,1.77-.71a4.55,4.55,0,0,0,.75-.38.32.32,0,0,0,.12-.28Z"/><rect class="cls-2" width="300" height="80"/></g></g></g></svg>