<svg xmlns="http://www.w3.org/2000/svg" viewBox="0 0 300 80"><defs><style>.cls-1{fill:#fff;}.cls-2{fill:none;}</style></defs><g id="图层_2" data-name="图层 2"><g id="图层_1-2" data-name="图层 1"><g id="铁甲智能黑"><g id="铁甲智能黑-2" data-name="铁甲智能黑"><path class="cls-1" d="M62.17,39.69h1v.09l-.4,2.85-.35,2.77-6.07.09.17.45c.12.35.2.53.23.53l.49-.22L57.7,46c.33.9.85,2.32,1.54,4.27s1.22,3.37,1.54,4.26l-.67,1.56-.71,1.56-1.87,1-2,1-.44-1.07-.41-1.11h0l-.45.17-.44.23-1.56-4.15L51.14,51a9.4,9.4,0,0,0-.53-1.38l-3.17,5.22c-.39.65-1,1.71-2,3.17s-1.25,2.06-1.25,2.09a10.88,10.88,0,0,1-1.74-.8l-1.1-.54a3.27,3.27,0,0,1-.64-.35l-.09-.49-.09-.45-.81-.4-.76-.4a3.53,3.53,0,0,1-.31-1.21c0-.09-.1-.62-.31-1.6l-.09-.45.31-.54,2.41-4,2.15-3.39-1.57-.05a10.77,10.77,0,0,1-1.56,0l.09-.89.13-.81s-.11,0-.35,0h-.4v.18a9.65,9.65,0,0,0-.27,1.83L39,47.27h-4l-.13,1.08-.13,1.11.49-.13c.35-.12.53-.17.53-.14l.23,1.08.17,1.07a2.34,2.34,0,0,0,.72-.18c.44-.18.67-.24.67-.18s.34,1.9.93,5.62Q37,57.1,34,58.1c-2,.67-3.53,1.15-4.48,1.45l-.49-1-.45-1-.45.13-.4.13-1.07-2.32-1-2.27L26,50.35l.14-.93c.06-.45.12-.86.17-1.23s.11-.63.14-.78v-.14h-.94a6.47,6.47,0,0,1-.71,0c-.15,0-.23,0-.23-.06l.14-.81.09-.8s-.08,0-.23-.07l-.75,0-.79,0c-.16,0-.24,0-.24-.07l.36-2.59.4-2.5,2.94,0,2.32,0a2,2,0,0,0,.67-.07A.48.48,0,0,1,29.5,40v-.18h-1a7.08,7.08,0,0,1-.78,0c-.17,0-.25,0-.25-.06l.09-.63.09-.62s-.14,0-.4,0a1,1,0,0,1-.27,0c-.06,0-.09,0-.09-.07l.09-.84.13-.81a4.63,4.63,0,0,0-1,0h-1v-.09l.27-1.92.27-1.87-.89-.23a3.7,3.7,0,0,1-.89-.27c.5-1.33,1.31-3.45,2.43-6.33s1.94-5,2.47-6.3q5.49,1.08,5.54,1.12c.06,0,0,.22-.18.67l-.27.62,1.12.27,1.11.23c.06,0,0,.17-.17.53l-.18.58h2.09a17.45,17.45,0,0,1,2.1.05l-.09.89-.13.85h1a4.3,4.3,0,0,1,1,0l-.23,1.74-.22,1.65,1.25-3.48c.18-.44.33-.85.45-1.2l.31-.94.53-1.43c.6.12,1.57.34,2.91.65l2.94.69s0,.19-.13.58l-.23.62c0,.07.11.11.32.14l.4.09.53-2.46c.15-.59.28-1.12.38-1.58a8.62,8.62,0,0,1,.25-.92s1.1,0,3.3,0,3.26,0,3.26,0l-.18.9-.22.84h1.11a4.52,4.52,0,0,1,1.07.05c-.11.53-.3,1.38-.55,2.52s-.46,2-.61,2.52c0,0,.13.05.38.07s.7,0,1.32,0a11.49,11.49,0,0,1,1.7.05l-.14.84-.09.85a3.92,3.92,0,0,0,1,0c.35,0,.61,0,.78,0s.24,0,.24.07l-.4,2.81L62.79,34l-3.08,0H56.63l-.4,1.87c-.27,1.25-.41,1.89-.44,1.92s.2.06.62.07,1.15,0,2.19,0c1.87,0,2.81,0,2.81.05l-.13.89-.09.8A3.79,3.79,0,0,0,62.17,39.69ZM27.58,42.9l2.28-2.28H27.45l-2.1,2.1A20.87,20.87,0,0,0,23.21,45v.13H25.3Zm-2.28-.22,2-2.06H25l-.63.67-.62.63-.45,2.77Zm-1.54-1.5a3.28,3.28,0,0,0-.06.52,4.54,4.54,0,0,0,.53-.54l.54-.54h-.45c-.3,0-.44,0-.44.05S23.81,41,23.76,41.18ZM31.82,26l.71-1.87a12.84,12.84,0,0,0,.76-1.92l-4.15,4.15L25,30.49l-.27.76-.31.76,1.16.27Zm-5.24,2.7q1.08-1.1,2.7-2.7l4.15-4.11.17-.44.14-.45-.63-.13-.44-.09a1.46,1.46,0,0,1-.32-.09c-.06,0-1,.94-2.9,2.81l-2.81,2.81-.71,1.83-.76,1.92C25.38,29.91,25.85,29.46,26.58,28.73ZM27,45.58l0,.4,2.68-2.68,2.67-2.68H30L27.76,42.9l-2.28,2.23H27Zm-.4-9.33,2.14-2.19L31,31.88H29.77v-.4a1.54,1.54,0,0,1,.09-.63l.08-.22c-.68.65-1.38,1.35-2.09,2.1l-2.1,2.05-.09.71-.09.72s.18,0,.54,0ZM26,32.37v.31l-.09,1.07-.14.81a1.14,1.14,0,0,0,.25-.23,3.32,3.32,0,0,1,.42-.4L28,32.41l2.14-2.18.76-1.88.76-2-3,2.94-2.95,3,.14,0Zm3.43,18.7,2.95-2.9.18-1.34.18-1.34c-1.07,1-2.18,2.14-3.31,3.3l-3.3,3.31,0,.44L26,53l.22.49.27.49S27.49,53,29.45,51.07Zm-3.25.62c0,.06.26-.16.78-.67s1.36-1.33,2.52-2.5a45.59,45.59,0,0,0,3.3-3.34l.05,0s.38-.34,1.07-1l1.25-1.21,2.27-2.28H35l-4.24,4.24-4.24,4.29-.13,1.16C26.3,51.17,26.23,51.63,26.2,51.69Zm.8-5.53-.22,1.34-.18,1.38a3,3,0,0,0,.44-.4l.81-.8,2.9-2.9,4.1-4.16H32.53Zm2.94,7c1-1,1.66-1.66,2-2s.49-.56.4-.56h-.17v-.45l.09-1.07.08-.67c-.62.6-1.74,1.7-3.34,3.33s-2.41,2.44-2.41,2.47l.71,1.52C27.31,55.77,28.19,54.92,29.94,53.17ZM27.18,25a10.53,10.53,0,0,1-.4,1c.14-.12.45-.41.91-.87l1.72-1.72,2.68-2.67-1-.18-1-.23-.93.94-.94,1L27.53,24ZM28.29,36.7l0,.44,2.63-2.63c.92-.89,1.8-1.77,2.64-2.63H31.19L29,34.06l-2.14,2.19h1.47Zm5.85,13.43a6.09,6.09,0,0,1-1.34.45c-.06,0-1,.89-2.77,2.68l-2.67,2.63.26.58.32.67c0,.06.06.08.11.07l.24-.12.32-.09L32,53.57q3.43-3.39,3.44-3.53l-.09-.18c0-.09,0-.13,0-.13ZM32.31,35.67l3.79-3.79H33.69L31,34.64,28.2,37.37l-.13.89a7.46,7.46,0,0,1-.13,1v.13h.58ZM28.38,21.84l.81-.72c.56-.56.81-.85.75-.85l-.4-.09-.44-.08ZM31,39.42l1.51-1.52a10.21,10.21,0,0,0,1.52-1.56.08.08,0,0,1,.09-.09,13.7,13.7,0,0,0,1.52-1.43l1.43-1.47,0-.58a4.7,4.7,0,0,1,.13-.76v-.13H36.19l-3.75,3.79L28.7,39.42Zm4.64,11.92-.18-1c-.18.15-.57.52-1.16,1.1s-1.31,1.3-2.14,2.16c-2.21,2.2-3.29,3.31-3.26,3.31l1.74-.59,1.69-.58,1.75-1.69,1.74-1.79ZM33.83,38.08,34,36.7c-.09.06-.26.21-.52.44s-.54.54-.87.9l-1.43,1.38H33.6Zm.62-12c-1.37,1.42-2.08,2.18-2.14,2.27l0,.14h2.14l2.23-2.28L38.87,24H36.55Zm-1.16-.18-.76,1.92,2-1.92L36.37,24H34.05Zm5.36,14.64.31-2.1.09-.54h6.6l-2.49-.71-.36-.72-.36-.75-.22,0-.54-.18-.31-.09L40.66,34,40,32.64l.31-1,.36-1s-1.21,0-3.62,0H33.43a4.94,4.94,0,0,1,.35-.89l.32-.9h-.45l-.49,1.3-.54,1.34s.85,0,2.55,0,2.54,0,2.54,0l-.09.85-.13.85a4.15,4.15,0,0,0,1,.05h1v.09l-.36,2.54-.36,2.41-1.29,0h-1.3l-.09.85-.13.94s.07,0,.22.07l.76,0,.76,0c.15,0,.22,0,.22.07l-.13.8-.09.8s0,.06.09.07a1,1,0,0,0,.27,0h.4Zm-2.81,12-1.61,1.56-1.56,1.61,1.74-.58q1.83-.54,1.74-.63l-.14-1Zm1.6-11.74L35.3,43l-2.23,2.18h2.32l1.7-1.69.17-1.34C37.44,41.2,37.5,40.76,37.44,40.76Zm-1.92-4.51,1.12,0,.18-1.3A7.11,7.11,0,0,0,37,33.62L35.7,35l-1.29,1.29ZM39.05,24l-2.23,2.23-2.23,2.28h2.32l1.16-1.12,1.11-1.16.18-1.07c0-.39.06-.66.09-.83s0-.26,0-.29-.08,0-.23,0ZM37,43.7a7.31,7.31,0,0,0-.76.72l-.71.71h1.25l.13-.71Zm2.1-16.89a.76.76,0,0,0,0-.38l-1,1-1.07,1H38l.89,0,.18-1C39.08,27.22,39.11,27,39.14,26.81Zm3.17,14,2.54-2.5H42.44l-3.57,3.57,0,.58a3.75,3.75,0,0,1-.14.71v.18h1.07ZM38.92,54.24l8-8,8-8h-.72a7.76,7.76,0,0,1-1.16,0h-.44l-5.76,5.72-5.71,5.76-2.41,3.83.09.36Zm.4-15.31-.23,1.34-.17,1.34c.11-.09.32-.29.6-.58s.65-.66,1.09-1.07l1.65-1.7H39.94l-.31.36Zm10.53,6.2,1.07-1.83h1.52l2.5-2.54,2.5-2.5H55.12L47,46.34l-8,8.08.13.89a4.64,4.64,0,0,0,.27,1s.76-.71,2.19-2.14c.5-.48,1.35-1.31,2.54-2.5L48.73,47Zm-10.31-6.6.22-.27h-.18a.25.25,0,0,0-.17,0,.37.37,0,0,0,0,.23l0,.18Zm8.84,9Q46.24,49.64,44,52l-4.42,4.42.76.36.76.4L43,55.26l1.87-1.92.8-1.29c0-.06.29-.48.76-1.25.15-.24.31-.5.47-.78l.52-.87Zm-3.53-6.78c.69-.66,1.24-1.21,1.68-1.65s.7-.75.82-.9l-1.16,0H45l-2.54,2.5L39.94,43.3h2.41Zm-4-9.2-.31.85s.64-.59,1.92-1.87l2.28-2.23,4.15-4.2.13-.36.14-.31-.76-.18-.76-.17A34.26,34.26,0,0,0,44.67,26l-2.9,2.9-.58,1.69Zm7.32-5.39.32-.94.31-.85-4.15,4.11-4.11,4.15.4.76.36.8,3.13-3.08L47.48,28l.32-.94A5,5,0,0,0,48.15,26.17ZM44.54,53.88l-1.7,1.65-1.65,1.65.49.27c.33.18.52.25.58.22a6.77,6.77,0,0,1,.58-1l.49-.85L44.49,54Zm2-23.43.71-1.88.09-.22c-1,.95-2,1.95-3,3l-3,3,.36.72,1,.26,3.21-3.21Zm.35,13.34,5.54-5.58H50.12L47.35,41c-1,1-1.76,1.74-2.16,2.17a3.2,3.2,0,0,0-.61.73,20.2,20.2,0,0,1-1.51,2.64l-1.61,2.63Q41.37,49.33,46.9,43.79Zm-5-15.26,2.72-2.72C46.47,24,47.38,23,47.35,23a3.52,3.52,0,0,0-.85-.22c-.53-.12-.85-.2-.93-.23s-.45.39-1.25,1.16L43.16,25l-.41,1.16-.62,1.79ZM44.58,43.3v.14c0,.06.9-.81,2.68-2.59l2.68-2.64H47.53L45,40.76,42.44,43.3Zm.18-9.82-1.87,1.88a3.29,3.29,0,0,0,.8.22c.51.18.79.24.85.18l.27-.71a5.51,5.51,0,0,0,.24-.61c.11-.28.23-.63.38-1l.4-1Zm-1.47-8.83.38-.36.69-.67,1-1.07-.54-.09-.38-.09a1.44,1.44,0,0,1-.29-.09,3.9,3.9,0,0,0-.49,1.16ZM46.73,37.9l1.2,0h1.25a.52.52,0,0,1,0-.23v-.17H48.15a4.59,4.59,0,0,1-1.07-.05l.09-.53.14-.54L47,37.1Zm2.94-9.33L48,30.23l-.27.8-.31.8s.2.05.62.05l.62,0,2.5-2.54,2.55-2.5H51.37Zm2.5,2.5L48,35.31l-.18.9-.23.89h.94L58.78,26.88H56.37Zm1.7-4.19-2.64,2.63L48.6,32.1v.22c0,.09-.09.55-.27,1.39L48.06,35,50,33.13l2.19-2.19,4-4.06Zm-4.64,0-.45,1.25-.58,1.52-.09.31,1.52-1.52,1.51-1.56H49.23ZM48.69,37.1H51l3-3L54.27,33l.22-1.11h1.79l5-5H58.87Zm1.47-11.38h2.19l2.32-2.32L57,21l.09-.35a3.5,3.5,0,0,1,.13-.58l0-.18H55.74L53,22.68a37.58,37.58,0,0,0-2.81,2.9Zm.74-1.16,2-2c.92-.89,1.8-1.77,2.63-2.63H53.24L52.13,21,51,22.1l-.31,1.39L50.34,25C50.31,25.09,50.5,25,50.9,24.56Zm-.25,23,.18-.18-.27.12a.29.29,0,0,0-.17.15C50.39,47.78,50.47,47.75,50.65,47.54Zm2.82-.22C55,45.77,55.73,45,55.7,45l-.05,0L53.42,46l-2.14,1.12-.4.4-.41.36.32.85.35.85A30.53,30.53,0,0,0,53.47,47.32Zm-1.7-21a.14.14,0,0,0,0-.11.16.16,0,0,1,0-.11s-.12,0-.36,0a1.2,1.2,0,0,0-.31,0,.19.19,0,0,0-.14.11l-.08.18,0,.13h.85Zm-.72-4.46,1-.94,1-1h-1a2.18,2.18,0,0,0-.55,0,3.82,3.82,0,0,0-.23.94Zm1.52,13.88L51.19,37.1h2.14l.31-1.34L54,34.38ZM56.1,46.07l-.31-.85a29.32,29.32,0,0,0-2.32,2.23l-2.28,2.32.62,1.7,2.32-2.28,2.28-2.27Zm.36.94-2.33,2.27-2.27,2.28.31.85.36.85L54.8,51l2.28-2.28-.31-.8Zm-.18-22.76.31-1.48L57,21.3a28.71,28.71,0,0,0-2.24,2.23l-2.18,2.19h2.32l.71-.72ZM54.85,51.16l-2.28,2.27.63,1.7,4.55-4.55-.31-.81-.32-.84S56.37,49.64,54.85,51.16Zm.27-10.4-2.5,2.54h2.32l2.5-2.54,2.5-2.5H57.62Zm-1.83,4.68a.36.36,0,0,0-.32.14c-.06.12-.07.18,0,.18l.49-.27S53.41,45.44,53.29,45.44Zm4.5,5.27L55.52,53l-2.28,2.23.31.85.36.85,2.28-2.24,2.23-2.23-.31-.85Zm-1.6,4.13C54.7,56.34,54,57.11,54,57.14l0,0a5.55,5.55,0,0,0,1.65-.8l1.61-.85.62-1.38a10.43,10.43,0,0,0,.63-1.47l0,0S57.68,53.34,56.19,54.84Zm0-30.24-.63.54-.53.58h.44l.45,0,.13-.53ZM61,38.26h-.85l-2.49,2.5-2.5,2.54h2.32l1.65-1.65L60.74,40l.09-.71a6,6,0,0,1,.13-.89ZM61.32,27s-.85.81-2.45,2.41l-2.41,2.46h2.32l1.07-1.07,1.07-1,.18-1.29.18-1.39ZM60.7,40.27s-.56.5-1.57,1.52L57.62,43.3H60l.13-.13.13-.18.23-1.34Zm.17-10.22c0-.09-.32.21-1,.89l-.94.94h.81l.89-.05.09-.85Zm-.58,13.14-.09.07s0,0,0,0,0,0,0,0l.09,0C60.32,43.2,60.32,43.18,60.29,43.19Z"/><path class="cls-1" d="M96.8,21.66h14.64l.27.31.76.89c.32.39.53.58.62.58s.22.09.4.27c.33.45.94,1.16,1.83,2.14a3.9,3.9,0,0,1,.63.81q-.45,3.39-1.48,10.66T113,47.94l-1.34,1.25-1.79,1.57-.44.4H99.66l-.23,1.69-.62,4.47L98.41,60l-3.39,0c-2.3,0-3.44,0-3.44,0a4.82,4.82,0,0,1,.13-.85l.09-.85a4.3,4.3,0,0,0-1,0,4.28,4.28,0,0,1-1,0q.13-1.06.45-3.39c.21-1.55.39-2.72.54-3.52v-.18H85.42c-3.57,0-5.36,0-5.36,0a4.3,4.3,0,0,1,.14-.84l.09-.85a3.86,3.86,0,0,0-1-.05,4.69,4.69,0,0,1-1,0Q78.87,45,80.2,35.51t2-13.81S87,21.66,96.8,21.66ZM85.46,40.71,82.21,44,79,47.19l-.13.66-.09.94,0,.23h.75l2.82-2.77,2.76-2.81.23-1.34Zm.41-2.94-1,.94L82.61,41l-3.22,3.26-.17,1.25L79,46.87c.12-.12.44-.43,1-.93s1.28-1.24,2.23-2.19l3.21-3.26.23-1.34Zm.4-2.9L83,38.08,79.8,41.29l-.18,1.39-.23,1.38,3.26-3.21,3.26-3.26.18-1.34ZM85,43.62l-2.68,2.67L79.66,49H82l2.32-2.28,2.24-2.28H85v-.84Zm1.69-11.74-3.25,3.26L80.2,38.35,80,39.69l-.18,1.38,3.26-3.21,3.21-3.26.18-1.34Zm.41-2.9a11.25,11.25,0,0,0-1.39,1.38l-1.87,1.87L80.6,35.49l-.13,1.16A9.06,9.06,0,0,1,80.24,38c0,.06.28-.17.83-.69S82.43,36,83.5,34.91l3.26-3.26.18-1.33Zm4.41-7-5.26,5.23L81.05,32.5l-.18,1.21-.18,1.38A36.48,36.48,0,0,0,83.9,32l3.26-3.26.13-1.07.14-1h1.78L93.86,22Zm-1.38,0H89L81.45,29.6l-.18,1.34-.22,1.34,5.13-5.13L91.31,22Zm-1.29,0H86.45l-2.28,2.32-2.32,2.33L81.67,28l-.18,1.34s.57-.52,1.7-1.65l2-2Zm-2.59,0H84l-1.7,1.7L82.07,25l-.18,1.39,2.24-2.19Zm2.85,22.45H86.71l-2.23,2.28L82.16,49h2.41l2.23-2.28ZM83.77,22h-.63c-.41,0-.62,0-.62,0,0,.18-.07.42-.11.74s-.08.54-.11.69a3.83,3.83,0,0,0,.75-.76Zm7.85,22.45H89.3L87,46.74,84.75,49h2.32l2.23-2.28ZM90.28,33.35l-1.51,1.47-1.48,1.52-.08.58-.09.67s.2,0,.62,0h.58l4.29-4.28Zm3.84,11.11H91.8l-2.32,2.28L87.25,49h2.32l2.32-2.28Zm-4-11.11H89a6.69,6.69,0,0,0-1.25,0c-.06.29-.14.75-.23,1.38s-.15,1.08-.18,1.38c0,0,.51-.46,1.43-1.38ZM88.5,38l-.18,0s0,.06,0,.12a25.9,25.9,0,0,0-.41,2.9l-.13,1-.31,1.92v.18h6.65V44l0-.18c0-.06,0-.09-.09-.11l-.26,0a12.15,12.15,0,0,1-1.66,0l.18-1.21.32-2.5,0-.13h-2.1a17.45,17.45,0,0,1-2.1-.05l.14-.89.09-.85Zm15.62-16-10,10L94,33.35H92.78L88.5,37.63h2.41l9.28-9.28.14-.85.09-.84h1.47L106.53,22ZM94.21,28.8H89.57l-.27,2A13.46,13.46,0,0,1,89,32.9V33h4.64l.27-2c.18-1.3.28-2,.31-2.09ZM94,22l-4.64,4.65h2.32L96.35,22Zm2.68,22.45H94.3l-2.23,2.28L89.75,49H91.4v.35l0,.36L94,47.1Zm7.5,0h-2.32L90.55,55.8l-.13.85-.14,1.07,0,.22h.49L94,54.73l3.21-3.26.14-1.2L97.51,49h2.15L102,46.74Zm-2.5,0H99.39l-4.24,4.2L91,52.9l-.22,1.34-.18,1.38L96.18,50Zm-4.55,7.28c-1,1-2.06,2-3.13,3.12l-3.12,3.08h2.41L95,56.2l1.74-1.74L97,53.12ZM98,44.46H96.8l-2.72,2.73L91.36,50l-.18,1.34L91,52.68l4.11-4.11,4.11-4.11Zm2.14-15.89L98,30.63l-2.46,2.45L91,37.63h1.16a5.05,5.05,0,0,1,1.12,0s1.08-1,3.25-3.21l3.26-3.26.18-1.3ZM96.53,22l-4.64,4.65H94.3L98.94,22Zm6.16,11.34h-2.32l-3.7,3.75-3.75,3.75-.18,1.2-.18,1.21s0,0,.09,0,1.79-1.65,5.09-4.95Zm-2.94-1.87-3.26,3.21L94,37.28a3.77,3.77,0,0,0-.69.8l-.18,1.38-.18,1.16L96.58,37l3.61-3.66h-.62V33l.09-.94Zm3.12,1.87L93,43.3h2.32l1.65-1.6L98.54,40l.14-1.2.17-1.21H101l4.28-4.28ZM96.71,54.68,95.1,56.29l-1.6,1.65h2.32l.27-.27.26-.31L96.53,56C96.71,55.13,96.77,54.68,96.71,54.68ZM103.94,22h-2.32l-7.05,7.06-.18,1.29-.18,1.38,4.91-4.86Zm-2.5,0H99.12l-4.64,4.65h.36V27L94.75,28l-.14.8,3.44-3.43ZM98.5,40.31c-.51.48-1,1-1.52,1.52L95.46,43.3h2.41l.09-.13a.91.91,0,0,0,.16-.4c0-.21.11-.57.2-1.07ZM96.31,57.72a0,0,0,0,0,0,0,.26.26,0,0,0-.14.09l-.13.18h.13l.18,0Zm15.8-20.93a11.72,11.72,0,0,0-1.38,1.38L108.85,40l-3.26,3.22,0,.62-.09.58h-1.07l-2.23,2.28L99.84,49h2.41l9.46-9.51.18-1.34Zm-8.75,3H101l-.27,2.14-.31,2.14a21.92,21.92,0,0,0,2.36,0,21.24,21.24,0,0,0,2.32,0l.27-2.14.31-2.14Zm10.36-14.64-3.26,3.17-3.22,3.25-.08.9-.14.89h-1.56l-4.29,4.28h2.33l9.86-9.81.18-1.34ZM106.62,22,102,26.66h2.41L109,22Zm.62,6.79h-4.68l-.27,2A13.46,13.46,0,0,1,102,32.9V33h4.68l.27-2c.18-1.3.28-2,.31-2.09Zm4.42,11L107,44.42l-4.6,4.6h2.32L108,45.71l3.31-3.26.17-1.29ZM113.31,28s-1.6,1.56-4.82,4.77l-4.82,4.82H106l7-7,.18-1.29Zm-4.1-6-4.64,4.65h2.32l2.23-2.19,2.19-2.19-.18-.27Zm2.05,20.71s-.49.45-1.47,1.43l-1.74,1.7L104.92,49h2.32l1.83-1.83,1.83-1.79.18-1.34Zm1.25-8.83s-1.09,1-3.26,3.21L106,40.31l-.17,1.34L105.64,43l3.26-3.25,3.25-3.22.18-1.34Zm.4-2.95s-.5.46-1.43,1.38c-.35.39-1,1-1.91,2s-1.63,1.59-2.21,2.18-1,1-1.1,1.16c0,0,0,.06,0,.18a11,11,0,0,1-.14,1.34l-.13,1a11.72,11.72,0,0,0,1.38-1.38l1.88-1.87,3.26-3.26.17-1.3Zm-1.29-8.28a1.22,1.22,0,0,1-.18-.24,29.21,29.21,0,0,0-2.23,2.09l-2.14,2.15h.8V27l-.09.76,0,.53,1.2-1.11L110.1,26l2.32-2.37-.49-.58Zm1,1.09a24.75,24.75,0,0,0-2.5,2.37l-2.41,2.45-.18,1.34-.22,1.39c.06,0,1.11-1.06,3.17-3.17L113.63,25l-.49-.58Zm-1.74,21.92a5.43,5.43,0,0,0-.8.76l-.76.76.71-.63.8-.71A.26.26,0,0,0,110.86,45.67Z"/><path class="cls-1" d="M135.63,19.16l2.65.56c1.21.25,2.08.45,2.62.6.06,0,0,.21-.27.62l-.27.63.18,0c.09,0,.15,0,.18,0s2-.09,6.07-.09,6.07,0,6.07.09l-.09.89-.14.8s.2,0,.58,0h.63v-.14a4,4,0,0,0,.13-.71l.05-.62h3.21c1.16,0,2,0,2.45,0a2.65,2.65,0,0,1,.72.06l-.14.81a7,7,0,0,0-.08.71c0,.12.06.18.17.18h.18l.14-.89.13-.89h6.25l.71.89c.27.3.48.52.63.67s.25.22.31.22.2.13.42.38.58.66,1,1.23c.92,1.07,1.39,1.62,1.39,1.65q-.23,1.7-.74,5.27T170,37.37a10.88,10.88,0,0,1-1.34,1.25l-1.78,1.56-.5.4H160c-4.32,0-6.47,0-6.47,0l.13-.9.09-.84h-1a4.21,4.21,0,0,1-1,0l.14-.94.26-2.23.05-.13h-2l.76,1.11.76,1.16-.63,2.9v.09h10.62l.72.9c.27.29.47.52.62.67s.25.22.31.22a4.66,4.66,0,0,1,.85.85,6.69,6.69,0,0,0,.63.71l.85,1,.49.62c-.15,1.13-.39,2.9-.72,5.29s-.58,4.15-.76,5.25a19.15,19.15,0,0,1-1.83,1.65l-1.78,1.56H146.74q-14.33,0-14.32-.05l.13-.84.13-.85a4.15,4.15,0,0,0-1,0,7.79,7.79,0,0,1-.78,0c-.17,0-.25,0-.25-.07L132,49.15l1.39-8.39.71-.09-.85-.71-.84-.81V39l.09-1.78.13-1.56.13-.14a1,1,0,0,0,.14-.33c0-.14.07-.35.13-.65l.09-.85h-2v-.09l.31-2.45.36-2.32,4.15-.09-.22-.45-.18-.49a.65.65,0,0,1-.18,0,2.77,2.77,0,0,0-.4-.09l-.58-.18q-.27-.54-.69-1.59c-.28-.69-.49-1.21-.6-1.54l1.25-2.58A19.58,19.58,0,0,1,135.63,19.16Zm3,28.74q-.09,0-3.57,3.57L131.48,55l-.18,1.12-.22,1.16h.44L134.87,54l3.35-3.39.22-1.34Zm.45-3-1.08,1-2.49,2.5L132,52l-.22,1.33-.23,1.39s1.19-1.15,3.57-3.53l3.57-3.57.18-1.34ZM137,29.11h-2.32l-1.43,1.47-1.47,1.48-.09.58-.09.62s.21.05.62.05h.58l2.15-2.1Zm1.25,21.69-3.3,3.26-3.22,3.26H134l2.14-2.1a15.43,15.43,0,0,0,2-2.1c-.06,0-.1,0-.11-.07a.49.49,0,0,1,0-.2c0-.26,0-.6.07-1s.08-.72.11-1Zm-4.91-21.69a5.3,5.3,0,0,0-1.16.05L132,30.45l-.18,1.29c-.06.12.39-.29,1.34-1.25l1.34-1.38ZM139.47,42c-1.13,1.07-2.31,2.22-3.53,3.43L132.46,49l-.22,1.34L132,51.74s.54-.49,1.52-1.47c.36-.39,1-1.08,2-2.06l3.53-3.52.22-1.3Zm.13-.94h-1.74l-2.45,2.46L133,45.94l-.18,1.33-.26,1.43s1.16-1.11,3.48-3.43l2.76-2.77a4.1,4.1,0,0,0,.81-.94,1,1,0,0,1,0-.36Zm6.5-13.86-.88,0h-1.11l-5.62,5.67c-2.21,2.17-3.7,3.67-4.49,4.48a7.2,7.2,0,0,0-1.18,1.37.35.35,0,0,0,.11.22,5.51,5.51,0,0,0,.38.4l.36.29a1.06,1.06,0,0,0,.22.16q2-1.92,6.25-6.23t6.2-6.27S146.26,27.23,146.1,27.21Zm-2.17,0h-2.32l-.58.63-.62.62,0,.31-.09.36h-.53l-2.33,2.32c-.86.83-1.46,1.44-1.8,1.81a2.42,2.42,0,0,0-.52.65c0,.06-.07.17-.22.33s-.43.42-.85.78-.67.64-1,.94c-.12,1.55-.17,2.33-.14,2.36l5.54-5.57Zm-4.37,1.92h-2.41l-2.06,2.1L133,33.31h2.14v.13a18.11,18.11,0,0,0,2.24-2.14Zm-3.08,12h-1.21l-.89.89-.89.94-.23,1.38L133,45.71l2.32-2.32c.83-.8,1.6-1.58,2.32-2.32Zm9.77-13.43-6.16,6.11L134,39.91l.22.22.27.18v.76h-.36l-.31,0-.13.71-.14.8a8.71,8.71,0,0,0,.85-.76l.8-.8h-.44v-.76l3.66-3.48,3.66-3.52H143l2.05-2.1,2.14-2.1H146V28.8a5.35,5.35,0,0,1,.09-.76Zm-9.77-7.86-.67.58-.58.58-.63,1.34-.44,1c-.15.31-.29.57-.4.78l-.18.4.18.36,2.32-2.27a30.18,30.18,0,0,0,2.23-2.33c-.3-.08-.6-.16-.9-.22Zm2.05.45s-.4.36-1.12,1.07l-1.29,1.25-2.32,2.37.36.8.31.85,2.81-2.82q3.12-3,3-3.16l-.85-.18Zm2.28,32.89H138.4l-2.06,2.1-2.14,2.1h2.41l2-2.1ZM140,21.3,137.24,24l-2.68,2.72.09.18.09.22.26.09.45.14.67.13.8-.8.85-.81.45-1,1.11-2.28ZM136,19.69a.23.23,0,0,0-.16,0s-.06,0-.06.07a3.8,3.8,0,0,1-.23.49l-.17.36.4-.41c.12-.11.21-.21.29-.29s.11-.12.11-.15S136.15,19.69,136,19.69Zm1.52,6.56a3.3,3.3,0,0,0-.47.45c-.22.24-.48.51-.78.8l.31.09.27.09.09-.18.31-.71Zm5.76,26.87H140.9l-2.06,2.1-2.14,2.1h2.41l2-2.1Zm-.18-16.6-2.19,2.1-2.19,2.05.63,0a1.85,1.85,0,0,1,.67,0,5.19,5.19,0,0,1-.14.85l-.09.84s.06,0,.18,0h.18l.14-.89.13-.85,5.8-.09-1.56-2.05Zm-1.25-14.64-.72.76-.8.76-.58,1.29-.62,1.25.49,0h.44l4.11-4.11Zm3.92,31.24h-2.32l-2.14,2.1-2.05,2.1h2.32l2.14-2.1Zm-1.69-5.89h-2.32l-2.14,2.14-.14.9-.13.89s.13,0,.4,0h.4l2-2Zm-3.84-20-.4.75-.36.76h.4l.18-.76Zm1.34,20h-.85a4.49,4.49,0,0,0-.85,0l-.22,1.79a2.23,2.23,0,0,0,.34-.29l.6-.6Zm3.66-6.16h-2.41l-1.21,1.21-1.2,1.25-.09.84-.13.9s.13,0,.4,0H141l2.14-2.14Zm-.89-19.19L140.27,26h2.41l4.11-4.11Zm2.32,25.35h-2.41l-2,2-2,2h2.32l2-2Zm-5.92,4.33h-.24a3.18,3.18,0,0,1-.07.56c0,.25-.08.44-.11.56a.06.06,0,0,0,0,.06s.08,0,.17,0h.23l0-.58.09-.58A.22.22,0,0,0,140.78,51.56Zm.12-25.22a.34.34,0,0,0-.2.05.32.32,0,0,0-.12.18l-.13.26h.22a.35.35,0,0,0,.2,0,.32.32,0,0,0,.12-.18l.08-.22S141,26.34,140.9,26.34Zm.53.85h-.31c-.24,0-.36,0-.36,0l-.27.89.5-.49Zm1.25,13.88h-.94a3.46,3.46,0,0,0-.93,0,9.2,9.2,0,0,0-.18,1.07c-.06.47-.11.83-.14,1.07a14.19,14.19,0,0,0,1.12-1.07Zm-1.29-19.19h-.32l-.22.54-.27.58.54-.54.58-.58Zm7.81,15.44-1.39,1.39-1.38,1.38.09.13a.82.82,0,0,1,.09.49v.36h-1.16l-2.14,2.1-2.15,2.14h2.32l2.15-2.14,2.14-2.1h-.85v-.76l.94-.67,1-.76.18-.8Zm-7.41,8.35h-.4a4.59,4.59,0,0,1-.07.56c0,.25-.08.44-.11.55a.07.07,0,0,0,0,.07.39.39,0,0,0,.18,0l.18,0,.09-.36a1.89,1.89,0,0,1,.09-.62Zm6.51,7.45H146l-2.14,2.1-2.05,2.1h2.32l2.14-2.1ZM147,21.88,142.86,26h2.32l4.11-4.11Zm2.23,25.35h-2.41l-2,2-2,2h2.32l2-2Zm.44-18.12h-2.41l-2,2.1L143,33.31h2.05v.13c0,.09.16,0,.49-.31s.92-.88,1.79-1.74Zm-6.29,6.25a.68.68,0,0,0-.18.13.26.26,0,0,0-.09.14.32.32,0,0,0,.14-.14Zm8.48-6.25h-2l-2.36,2.37c-1.58,1.57-2.37,2.39-2.37,2.45s-.15.21-.45.45c-.53.44-.86.73-1,.84l-.49.54.49.67.54.67L148,33.31c1.43-1.4,2.42-2.4,3-3a4.46,4.46,0,0,0,.83-1Zm-1.56,12H148l-2.15,2.1-2.14,2.14h2.41l2.1-2.14Zm-2.19-7a1.08,1.08,0,0,1,0-.35V33.4l-1.92,1.87-1.88,1.92.49.67.54.67,1.7-1.74,1.74-1.74-.05-.14a1.72,1.72,0,0,1-.36-.49A1.57,1.57,0,0,1,148.08,34.06Zm2.81,19.06h-2.41l-2,2.1-2.14,2.1h2.41l2.05-2.1Zm-1.43-31.24L145.36,26h2.32l4.11-4.11Zm-.66,13.3c-.39.36-1,.93-1.75,1.72s-1.33,1.37-1.69,1.76c.06.09.19.28.4.56s.4.53.58.74l1.47-1.43,1.43-1.48.14-.49a1.36,1.36,0,0,0,0-.53l-.31-.45Zm2.9,12h-2.32l-2,2-2,2h2.41l2-2Zm1.16-6.16h-2.41l-2.1,2.1-2.1,2.14h2.32l2.14-2.14Zm-3-12.94h-3.31l0,.18-.09.26a5,5,0,0,0,1.12.05l.84,0c.18,0,.27,0,.27.07a14.22,14.22,0,0,0,1.79,0c.65,0,1.12,0,1.4,0s.43,0,.43.06l-.14.81-.09.8s0,.05.09.07l.32,0h.4l.18-1.16a7.88,7.88,0,0,1,.08-.89c0-.18,0-.29,0-.32S152.07,28.13,149.87,28.13Zm3.52,25h-2.32l-2.14,2.1-2.05,2.1h2.32l2.05-2.1Zm-1.2-31.24H152L147.86,26h2.41l.89-.94.94-.94.18-1.07.13-1.12S152.34,21.88,152.19,21.88Zm2,25.35h-2.32l-2,2-2,2h2.41l2-2Zm-2.46-17.49a17.74,17.74,0,0,0-1.83,1.74l-1.78,1.83h2.32l.89-.9.22-1.34Zm3.62,11.33H153l-2.1,2.1-2.1,2.14h2.32l2.14-2.14Zm.53,12h-2.32l-2.14,2.1-2.05,2.1h2.32l2.14-2.1ZM152.05,24.6a.52.52,0,0,0,0-.31l-.8.85-.89.85h.76l.76,0,.08-.8Q152,24.83,152.05,24.6Zm4.73,22.63h-2.41l-2,2-2,2h2.32l2-2Zm-5.49-14.5A.94.94,0,0,0,151,33l-.35.32h.31l.31-.05V33A1,1,0,0,0,151.29,32.73Zm6.57,8.34h-2.33l-2.14,2.1-2.14,2.14h2.41l2.1-2.14Zm5.89,4.46c0-.05-1.15,1.06-3.44,3.35l-3.39,3.39,0,.45,0,.4h-.76l-2,2.1-2.14,2.1h2.4l9.11-9.15.18-1.3Zm-5-15.3c-1,1-2.1,2.06-3.17,3.17l-3.16,3.16-.14.9-.13.93s.12,0,.35,0H153l2.72-2.77,2.77-2.77.17-1.29Zm.45-2.95q-.09,0-3.21,3.21l-3.17,3.17L152.63,35l-.17,1.34s1.1-1.06,3.21-3.17L158.84,30l.18-1.34Zm.4-3q-1.56,1.53-3.21,3.22l-3.22,3.21L153.08,32c-.06.33-.11.61-.13.85a2.91,2.91,0,0,1-.09.49,37.76,37.76,0,0,0,3.21-3.08l3.21-3.21.05-.45a13.46,13.46,0,0,0,.18-1.38Zm2.5,17.72-2.23,2.19-2.19,2.23,0,.36-.05.4H157l-2,2-2,2h2.32l7.94-7.94-.53-.58Zm-3.75-8.88-2.68,2.64-2.59,2.63h2.33l2.36-2.32,2.37-2.37h-1.79Zm1.56-11h-.76L156.43,25l-2.77,2.81-.22,1.34-.18,1.38q.09,0,3.21-3.21l3.21-3.21.14-.81a4.94,4.94,0,0,1,.13-.93Zm-.85,0h-2.41L154,24.87l-.18,1.34-.18,1.38c.89-.86,1.8-1.77,2.72-2.72Zm1.25,18.88H158l-2.14,2.1-2.14,2.14h2.41l2.1-2.14Zm-3.83-18.88h-1a5.54,5.54,0,0,0-1.12,0l-.31,2.41a16.7,16.7,0,0,0,1.25-1.21Zm6.82,26.2-4.5,4.46-4.47,4.47h2.41l3.08-3.13L163,51.11l.18-1.34Zm0-5-3.93,3.88-3.92,3.93H157v.45l0,.4,3.44-3.39,3.39-3.44.05-.44.09-.54c0-.12-.11-.28-.32-.49ZM169.06,25l-3,3-3,3-.18,1.38-.18,1.34h-2.37l-2.32,2.37-2.32,2.32h2.32l11.12-11.07.13-1,.14-1c0-.06-.05-.13-.14-.22S169.12,25,169.06,25Zm-7.72,16.07h-.81l-2.09,2.1-2.1,2.14h1.47v.45l0,.44,2.14-2.14a27.17,27.17,0,0,0,2.1-2.19l-.41-.44Zm1.6,10.27-3,3-2.95,3h2L160.44,56a17.18,17.18,0,0,0,1.83-1.65l.32-.27.17-1.34ZM169,27.64s-.83.79-2.5,2.45L163.57,33l-5.45,5.45h2.41l4-4.06,4.06-4.06.22-1.34Zm-2.41-5.45h-2.32L162.45,24a22,22,0,0,0-1.83,1.92s.08,0,.25.07l.82,0h1.07l2-1.92Zm2,8.3q-.09,0-4,4l-4,4H163l5.18-5.18.18-1.38Zm-4.51-8.3h-2.32l-.4.36-.36.36-.17,1.34-.18,1.38a18.46,18.46,0,0,0,1.74-1.74ZM162,26.39h-.23l0,.31s-.05.31-.14,1-.21,1.69-.38,2.85-.3,2-.42,2.64v.18h.71a2.31,2.31,0,0,0,.76,0l.36-2.63.36-2.55h-.49a2.26,2.26,0,0,1-.43,0c-.07,0-.11,0-.11-.07l.09-.84.13-.81S162.12,26.39,162,26.39Zm-.67-4.2c-.09,0-.15,0-.18.07a.83.83,0,0,0-.09.25v.22l.27-.27.22-.27Zm5.4.09-1.92,1.88L162.94,26h.67v.31l-.09.94-.09.63q1.08-1,2.19-2.19l2.19-2.19-.22-.27-.54-.62Zm1.16,1.39-2.28,2.23-2.23,2.27-.18,1.3L163,30.81s.46-.42,1.39-1.34l1.6-1.56,3-3-.53-.63A4.09,4.09,0,0,0,167.9,23.67Zm.27,9.81-.76.72-1.74,1.74-2.46,2.5h1.07l.36-.27c.27-.27.85-.77,1.74-1.52l1.47-1.34a3.87,3.87,0,0,0,.18-.93Z"/><path class="cls-1" d="M192.31,19.38l4.82,2.72-.18.27-.18.27,1.07.62,1.08.63-.18.22c-.09.15-.12.22-.09.22l1.74-.89,1.78-.85.49,1.08.54,1.07.36-.18a1.51,1.51,0,0,1,.4-.18s.37.71,1,2.14l1,2.05.58-4.06.58-4h3c1.13,0,1.93,0,2.39,0a1.85,1.85,0,0,1,.69.07l-.13.8-.09.8v.09h2v.18l-.09.45v.22l2.81-.94c1.78-.62,2.74-.93,2.86-.93a2.67,2.67,0,0,0,.06.31c.05.18.1.44.16.8l.22,1.07a2.56,2.56,0,0,0,.67-.22c.45-.12.67-.16.67-.13.12.56.29,1.44.51,2.63s.38,2.05.47,2.59c0,0-1.05.37-3.17,1l-3.16,1h2.49c1.67,0,2.5,0,2.5,0l-.09.85-.13.85a4.69,4.69,0,0,0,1,0,3.86,3.86,0,0,1,1,0c-.09.59-.22,1.51-.4,2.76s-.32,2.17-.4,2.77l-1.34,1.25-1.79,1.56-.44.4h-1.79L218,42l.27,1.11.58-.22q.63-.23.63-.18s.44,1.64,1.24,4.82l-2.27.81-2.28.8h1.7a12.6,12.6,0,0,1,1.69,0l-.08.9-.14.8a4.21,4.21,0,0,0,1,0,4.3,4.3,0,0,1,1,0l-.71,5.4c-.36.36-1,.95-2,1.78a5.77,5.77,0,0,0-.63.52l-.58.51-.44.45h-1.21a5.73,5.73,0,0,1-1.2,0l.09-.89.13-.85h-.4V58c0,.12-.08.42-.14.89l-.13.67-3.57,0h-3.66l-.76-.9c-.48-.59-.77-.89-.89-.89a6.77,6.77,0,0,1-1-1,26.65,26.65,0,0,1-1.78-2.24l1-7.09,1-7h4.78l-.27-.31q-.13-.18-.54-.63c-.27-.29-.44-.44-.53-.44s-.23-.15-.49-.45L206,37.14,205,36l-.05-.14.09-.67.09-.75-1.25.62-1.25.63-.09-.14-.94-2a.48.48,0,0,0-.2.07l-.15.11.09.18a.23.23,0,0,0,0,.11c0,.05,0,.07,0,.07l-.9.13-.76.09c.09,0,.39.3.9.89s.77.9.89.9a4.55,4.55,0,0,1,.85.85,21,21,0,0,1,2,2.41c-.24,1.81-.63,4.67-1.18,8.56s-1,6.76-1.23,8.57a16.86,16.86,0,0,1-1.78,1.65l-1.79,1.57h-3.17c-2.08,0-3.12,0-3.12,0l.13-.89.09-.85h-1.61l-.13.94-.13,1h-3.08c-2.06,0-3.08,0-3.08,0l.09-.9.13-.8a4.69,4.69,0,0,0-1,0,6.34,6.34,0,0,1-.75,0c-.15,0-.23,0-.23-.06l1.65-11.88,1.66-11.78h1.2a6.39,6.39,0,0,0,1.2,0l-.13-.36c-.06-.21-.11-.33-.16-.36a1.45,1.45,0,0,0-.55,0l-.54,0c-.06-.12-.15-.39-.29-.81s-.3-.89-.51-1.42a19.31,19.31,0,0,1-.72-2.28l1.34-1.87,2.19-3Q192.27,19.38,192.31,19.38Zm-2.95,29.86-3.07,3.12-3.13,3.13L183,56.56l-.13,1.11s.06,0,.18,0h.18l5.8-5.8.18-1.34A3.93,3.93,0,0,0,189.36,49.24Zm.45-2.9c-.18.15-.54.49-1.09,1s-1.23,1.22-2,2.06l-3.13,3.12-.18,1.3-.17,1.33q0,.09,3.12-3L189.41,49l.22-1.34ZM189,52.23,186.15,55l-2.77,2.77h2.41l1.39-1.43,1.43-1.43.17-1.25Zm1.25-8.84c-.18.15-.54.49-1.09,1s-1.23,1.22-2,2L184,49.6l-.17,1.29-.18,1.38,3.12-3.12L189.86,46l.17-1.29Zm.45-3-.94.94c-.33.3-.67.63-1,1s-.76.77-1.21,1.19l-3.12,3.12L184.19,48,184,49.37q1.52-1.47,3.12-3.12l3.13-3.08.18-1.38Zm5.49-5.71h-2.32l-9.06,9L184.63,45a11,11,0,0,1-.22,1.39,35.09,35.09,0,0,0,3.12-3l3.17-3.12.09-.94.14-.89h1.56l1.87-1.83Zm-2.5,0h-2.32l-3.08,3-3,3.08L185,42.14l-.18,1.39,4.47-4.42Zm-2.5,0h-2.41l-1.56,1.56-1.56,1.61-.18,1.34-.23,1.38.9-.89,2.09-2.06Zm-2.59,0h-2.32l-.09.13a.82.82,0,0,0-.15.38,9.85,9.85,0,0,0-.16,1l-.18,1.29a3.84,3.84,0,0,0,.47-.38c.25-.22.59-.56,1-1ZM193,20.36,191.42,22l-1.61,1.56-2.05,2.86c-.63.86-1.11,1.54-1.45,2a5.91,5.91,0,0,0-.56.89.58.58,0,0,0,0,.38l.09.13,4.33-4.32q4.38-4.34,4.24-4.33l-.71-.45Zm2,1.07-.36-.17-4.33,4.37L185.93,30l.31.85.27.85,9.64-9.6-.45-.26Zm-6.43,33.79c0-.09-.45.31-1.34,1.2L186,57.72h2.23l.18-1.25Zm7.83-33-.06-.07c0-.06-1.67,1.54-4.91,4.78l-4.82,4.86.22.72.22.67.27,0h.27L190,30.81l2.36-2.37v-.67l2-2.72,1.07-1.47a9.57,9.57,0,0,0,.94-1.3S196.41,22.27,196.39,22.26Zm-3,7.56a11.16,11.16,0,0,0,1.38-1.47l-.76.09-1.16.09h-.49l-2.28,2.32-2.27,2.28,1.29-.14,1.25-.13,2.28-2.23Zm-.85-9.72L192.4,20l-.94,1.29a15.33,15.33,0,0,1-1,1.34,12.09,12.09,0,0,0,1.16-1.12c.45-.44.76-.76.94-1s.25-.3.22-.33Zm1.69,26.59H192l-.58.58-.58.54L190.66,49l-.18,1.21s0,0,.13,0a19.87,19.87,0,0,0,1.88-1.78ZM197,28.13l-.94.09-.89.13-2.27,2.23-.85.85c-.27.27-.51.52-.72.76l-.67.67,1.34-.13,1.25-.14,4-4-.09-.22ZM201,45.22c0-.06-1,.93-3,3l-3,3-.18,1.07-.13,1.12h-1.92l-.9.89-.89.94-.18,1.16-.13,1.16s0,0,.13,0A9,9,0,0,0,192,56.47q1.14-1.11,3.77-3.75l4.87-4.82.17-1.34Zm-9.24,1.47h-.4c-.27,0-.4,0-.4.05s-.06.27-.09.45a2.41,2.41,0,0,0,0,.4l.18-.16.31-.29Zm10.09-7.4-3,3-3,3-.09.67-.09.71h-1.21l-1.78,1.75-1.79,1.78h2.41l4.06-4.11,4.11-4.1.22-1.34Zm-9.19,14.1H192a2.28,2.28,0,0,0-.71,0L191,55c0,.06.28-.19.84-.76Zm7.94-5.27-4.73,4.73-4.73,4.73h2.32l3.39-3.39,3.39-3.34.18-1.34Zm-8.75,2.46c-.14,0-.22,0-.22,0l-.18,1.25L191.28,53h3v-.27a.35.35,0,0,0,0-.17.2.2,0,0,1,0-.14s-.1-.05-.29-.06-.53,0-1,0a7.38,7.38,0,0,1-1.29,0l.13-.89.09-.85Zm.63-9.55-.4.44-.45.45-.13,1L191.33,44s.09,0,.27,0h.26l3-3ZM192,41c-.15,0-.23,0-.24,0a.89.89,0,0,0-.07.16.51.51,0,0,0,0,.2l-.05.31.36-.36a1.45,1.45,0,0,0,.35-.35Zm8.3-5.27-1.87,1.83-1.83,1.83-.09.76-.13.8a1.85,1.85,0,0,1-.67.05h-.67l-3,3h2.32l7-7.05-.53-.62Zm-7.63,8.66c-.12,0-.19,0-.22.09l-.22,1.78a9,9,0,0,0,1.51.05,9.2,9.2,0,0,0,1.52-.05s-.1,0-.31-.06-.54,0-1,0a7.89,7.89,0,0,1-1.34,0l.09-.85.13-.85S192.83,44.42,192.71,44.42Zm6-9.73h-2.41l-1.79,1.83-1.87,1.83h2.41l1.78-1.83Zm-3,5.82-1.18,0-1.16,0c-.21,0-.31,0-.31.07s.1.05.31.07l1.16,0,1.18,0c.23,0,.34,0,.34-.07S196,40.53,195.72,40.51Zm2.35-10.19-.4-.81-.36-.8-2,1.92-1.87,1.92,1.34-.14,1.25-.09,1-1Zm3.34,12-4,3.93-3.93,4H195v.4l0,.4L201.06,45l.18-1.25Zm-1.2,8.75c-.18.15-.57.51-1.16,1.09s-1.31,1.3-2.14,2.17l-3.26,3.25H196l2-1.91,1.88-1.92.22-1.34Zm1.29-13.93L198,40.58l-3.48,3.48h1.39v.49l-.05.49,3-3,3-3,0-.62.09-.67-.27-.31Zm-2.05-2.45h-.62L197,36.52l-1.87,1.83h1.56v.45l0,.4,1.79-1.79,1.78-1.74-.08-.13a2.58,2.58,0,0,1-.45-.49Zm-2.32-8.3a6.19,6.19,0,0,0-.58.71c-.24.33-.42.58-.54.76l.54-.09a2.83,2.83,0,0,1,.54,0,.36.36,0,0,1,.29.15c.07.11.14.23.22.38s.14.29.2.4l.45.94.22,0h.22l-.09-.18a1.91,1.91,0,0,1-.18-.38,11.51,11.51,0,0,0-.58-1.18Zm1,4-1,.94-.85.94c.54,0,1.07-.08,1.61-.16s.86-.11,1-.11a2.34,2.34,0,0,0-.36-.8ZM199.81,54l-1.61,1.56-1.52,1.56,1.43-1.25,1.52-1.33a.44.44,0,0,0,.13-.32Zm-2.55-28.39.05.14.09.13.36-.35.35-.36ZM202,23.22l-1.74.85-1.74.89-.49.49-.49.54.35.8.41.76,2-2,2-1.91-.13-.23Zm.27.62s-.66.61-2,1.92l-1.91,1.92.35.76.4.8c.63-.59,1.27-1.23,1.92-1.91l2-1.92-.36-.76Zm.89,1.88L203,25.5l-2,1.91-1.92,2,.4.76.36.8,3.84-3.84-.27-.58A7.29,7.29,0,0,0,203.11,25.72Zm.8,1.74-.09-.22L200,31.07l.35.76.41.81,1.91-1.88,1.88-1.92-.27-.58A7.29,7.29,0,0,0,203.91,27.46ZM205,29.74l-.41-.81-1.87,1.92-1.92,1.92.13.22.14.27,1.65-.8,1.56-.85,1.07-1.07Zm4.06,17.58a9.84,9.84,0,0,0-1.07,1c-.54.54-1.19,1.21-2,2l-3,3,0,.41-.09.49c0,.12.11.29.32.53l.31.4,2.59-2.63L208.69,50l.18-1.29Zm.44-3-.93.9-2.15,2.14-3,3.08-.18,1.25L203,53a8.84,8.84,0,0,0,1.07-1c.54-.53,1.19-1.2,2-2l3-3,.18-1.34Zm.45-3a11.38,11.38,0,0,0-1.3,1.3l-1.78,1.78-3.08,3.08-.18,1.3-.18,1.38,3.08-3,3-3,.18-1.38Zm-1.3,8.93-2.54,2.5c-1.7,1.7-2.54,2.56-2.54,2.59s.24.27.47.53a8.87,8.87,0,0,0,.6.67l2-1.92a21.84,21.84,0,0,0,1.88-2s-.05-.06-.05-.18a11,11,0,0,1,.14-1.29ZM210,40.85h-2.14l-3.66,3.66L204,45.85l-.18,1.38,3.08-3A41.52,41.52,0,0,0,210,41Zm-2.32,0h-2.32l-.4.35-.36.36-.18,1.34-.17,1.38A18.46,18.46,0,0,0,206,42.54Zm-2.72,0a.35.35,0,0,0-.2,0,.28.28,0,0,0-.09.14,1.11,1.11,0,0,0,0,.17v.18l.27-.26.26-.27Zm7.45-17.14-3.12,3.08-3.08,3.08,0,.36-.05.31s-.1,0-.31,0h-.27l-.45.4-.35.41.22-.09a1,1,0,0,1,.58-.14h.36v.63a2.18,2.18,0,0,0,0,.42,1.09,1.09,0,0,1,0,.34c0,.06,1-.94,3.08-3L212,26.48l.18-1.39Zm-1.34,28.92h-2.32l-4,4,.35.4.36.45h.8L208.64,55ZM212,26.7l-3.13,3.08-3.08,3.12-.13,1.16a10.19,10.19,0,0,1-.22,1.34c0,.06.26-.16.78-.67s1.28-1.26,2.3-2.27l3.12-3.08.18-1.34Zm-.4,2.9-.94.89-2.14,2.15-.9.93a27.86,27.86,0,0,0-2.09,2.19c0,.06.17.27.53.63l.49.58,4.64-4.65.23-1.34Zm1.2-8.75-.45.43-1,1q-.67.75-1.65,1.65l-3,3-.18,1.34-.18,1.39c1-1,2-2,3.08-3.08l3.08-3.08.23-1.3.18-1.29Zm-.09,31.78h-1.43L208.78,55l-2.46,2.46h2.41l1.88-1.92,1.92-1.88,0-.4a.93.93,0,0,0,.05-.29.6.6,0,0,1,0-.25Zm-1.52-20.08-2.27,2.27-2.28,2.28.54.58a3.68,3.68,0,0,1,.35.4.74.74,0,0,0,.23.22l2.18-2.14L212,34h-1v-.31l0-.72Zm1.43-11.7h-2.41l-1.56,1.57L207,24l-.23,1.34-.17,1.39.89-.9,2.1-2.05Zm-3.75,0h-1a.47.47,0,0,0-.33.09,4.41,4.41,0,0,0-.27,1.48L207,23.8l1.47-1.47L210,20.85ZM214.54,34h-2.41l-2.19,2.19-2.19,2.23.14.13.13.18h1.78l2.33-2.36Zm-2.06,19.91c-.59.56-1.19,1.16-1.78,1.78l-1.79,1.79h2.32l.45-.41.4-.44.18-1.34ZM214.89,34h-.17l-2.42,2.37L210,38.75h2.32l1.25-1.2,1.21-1.25.13-1.08.18-1.16S215,34,214.89,34ZM217,41.65l-1.88.76-1.87.71-1.39,1.34-1.34,1.39-.17,1.2-.18,1.25q0,.23,3.52-3.35Zm.09-2.54h-.23l-.13.89-.09.85-3.12,0c-2.06,0-3.08,0-3.08,0l-.09.62-.09.63s.08.05.24.06a7.33,7.33,0,0,0,.78,0h1v.22a.46.46,0,0,0-.05.2.45.45,0,0,1,0,.2c0,.09,0,.13.09.13l.37-.15.74-.29,1.61-.63,2.63-1-.31,0a.76.76,0,0,1-.31,0L217,40l.13-.81A.18.18,0,0,0,217,39.11Zm-4.2,4.15-1.05.4q-.69.27-1,.45l-.22,1.42a13.78,13.78,0,0,0,1.16-1.11C212.1,44,212.48,43.65,212.84,43.26Zm4.51-1.79L214,44.78l-2.32,2.32-.67.67a1.7,1.7,0,0,0-.31.35l1.78-.62,1.79-.58,1.78-1.79,1.79-1.83-.22-.89Zm-5.63,6.79a.45.45,0,0,0-.2.06l-.15.12a17.81,17.81,0,0,0-.29,1.83c-.11.83-.19,1.47-.25,1.91v.09H212a5.39,5.39,0,0,1,1.16,0l-.09.85-.13.84s.05.05.17.05.18,0,.18-.09l.58-4-1.2.4-1.21.41c0-.24.08-.62.16-1.14s.14-.95.2-1.27C211.77,48.29,211.75,48.26,211.72,48.26Zm.32,8.66a1.16,1.16,0,0,0-.36.26l-.27.32h.27l.27,0,0-.22A1,1,0,0,0,212,56.92Zm2.63-20c0-.16.05-.26.05-.29a6.34,6.34,0,0,0-1.17,1l-1.07,1.12h1l1,0,.13-1C214.61,37.34,214.64,37.06,214.67,36.9Zm5.58-15.06-.76.22-.67.22-5.89,5.89v.27l0,.31,1.33-.4,1.3-.4,2.5-2.5,2.5-2.45-.09-.58C220.34,22,220.28,21.84,220.25,21.84ZM216.77,23l-1.7.53-.85.89-.84.85-.18,1.25L213,27.86l2.72-2.68,2.77-2.76ZM219,49.86s-1,.93-2.81,2.77l-2.76,2.77-.14,1-.13,1s.09,0,.27,0h.26l2.5-2.46,2.46-2.5.18-1.29Zm-4.5-26c.11-.12.18-.19.18-.22a4.25,4.25,0,0,0-.61.17,5.5,5.5,0,0,0-.56.23,4.64,4.64,0,0,0-.13.89,4.87,4.87,0,0,0,.67-.63Zm-.09,4.86-.36.09-.67,4.82h1a4.59,4.59,0,0,1,1.07.05l-.09.89-.13.8s0,.05.17.05h.09a.1.1,0,0,0,.11-.09,2.51,2.51,0,0,0,.05-.36c0-.18,0-.4.07-.67l.35-2.32.23-1.52-1.07.36-1.12.31.13-1.16.18-1.2Zm4.39,20.78c-.16,0-.45,0-.87,0h-1.11L215.38,51l-1.51,1.52-.18,1.25-.18,1.38a17.11,17.11,0,0,0,1.29-1.24l1.52-1.48c1.85-1.84,2.77-2.79,2.77-2.85S219,49.54,218.84,49.53Zm-2.16,0h-1.16a7.53,7.53,0,0,0-1.25,0l-.36,2.72,1.43-1.38Zm2,3.3-2.36,2.32-2.37,2.37h.89l.54-.5a12.17,12.17,0,0,1,1.16-1l1.83-1.65a1.74,1.74,0,0,0,.22-.8Zm-.76-9.28s-.55.5-1.65,1.6-1.64,1.65-1.6,1.65.62-.23,1.78-.62a10.57,10.57,0,0,0,1.83-.72l.13-.13-.22-.89Zm3.44-11.07c-.92.89-1.86,1.83-2.81,2.81l-2.81,2.81,0,.27,0,.36a3.2,3.2,0,0,0,.85,0h.84l.45-.4,1.83-1.83L221,35.14l.18-1.3Zm-.27-1.79h-.53l-2.19,2.23-2.23,2.24-.18,1.29-.18,1.38c.92-.89,1.86-1.83,2.81-2.81l2.81-2.81.14-.71.09-.76S221.41,30.67,221.05,30.67Zm-.49-7.5s-.79.75-2.36,2.33c-.87.86-1.47,1.47-1.81,1.83s-.47.52-.38.49l1.7-.54,1.47-.45.89-.84.85-.85-.18-1Zm-.13,7.5H218l-.72.76-.76.76-.22,1.29-.18,1.39c.69-.63,1.4-1.31,2.15-2.06Zm-3.66,0-.09.67-.14.63.67-.63.63-.67Zm4.24-5,0-.44-.8.76-.71.76.44-.18a4.63,4.63,0,0,0,.54-.11l.31-.12a.76.76,0,0,0,.36-.17Zm-.09,9.73a6.24,6.24,0,0,0-.63.63l-.58.58.45-.4c.51-.42.76-.66.76-.72Z"/><path class="cls-1" d="M245.78,21.17c2.2,0,3.3,0,3.3,0l-.09.85-.13.85s.09,0,.2,0a.31.31,0,0,0,.2,0l.13-.9.14-.8,23.2,0,.76.89c.27.3.48.52.63.67s.25.22.31.22a12.21,12.21,0,0,1,1.38,1.47L277.15,26l.09.13L276.57,31c-.44,3.27-.68,4.92-.71,4.95s-.12.18-.36.36L274,37.63l-1.16,1.08h1.07c.38,0,.66,0,.82,0s.25,0,.25.07l-.13.89-.14.8h1l.78,0c.16,0,.24,0,.24.07l-.31,2.23L276.13,45l-.63,0h-.67l0,.13-.14,1.12s.08,0,.23.06a6.89,6.89,0,0,0,.8,0l.76,0c.15,0,.22,0,.22.07l-.36,2.45L276,51.2l-4.51.09,1.65,2a13.79,13.79,0,0,1,1.7,2.14c0,.24-.08.59-.14,1.05a10,10,0,0,1-.18,1s-.46.45-1.4,1.27l-1.94,1.68-.81-.94c-.56-.69-.86-1-.89-.89s-.07.06-.13,0l-5-5.94.8-.71.8-.72-1.56,0h-1.56l1.3,3.12,1.33,3.17s-.89.49-2.67,1.38L260,60.26a.87.87,0,0,1-.17-.35,4.16,4.16,0,0,0-.23-.54l-.44-1.12-.09-.17-.4.22-.45.18q-.23-.45-.78-1.83c-.37-.92-.8-1.94-1.27-3l-.81-1.92s.12-.12.36-.26l.4-.18h-1.07c-.39,0-.66,0-.83,0s-.24,0-.24.07l1.34,3.21,1.34,3.17q-.85.45-2.73,1.38c-1.25.63-2.15,1.07-2.72,1.34l-.44-.94a9,9,0,0,0-.45-1.11l-.05-.14-.4.23-.44.18c-.06-.06-.75-1.69-2.06-4.87l-.8-1.87a2.31,2.31,0,0,1,.58-.36l.58-.31h-3.39a4.7,4.7,0,0,0,.49.67c.27.32.61.76,1,1.29s1.08,1.3,1.56,1.92L244,58q-2.37,2-3.48,2.85l-.8-.93L238.9,59a.17.17,0,0,0-.13,0,.06.06,0,0,1-.09,0c-.3-.32-.71-.81-1.23-1.45l-1.14-1.4v-.09l.14-1.07a7.71,7.71,0,0,1,.22-1.12s.51-.48,1.52-1.34l1.52-1.25-.67,0a1.8,1.8,0,0,1-.67,0l.09-.89.13-.85h-2v-.09l.31-2.45.36-2.32,1.43-.05h1.47v-.13l.18-1.16a3.86,3.86,0,0,0-1,0h-1v-.09l.32-2.27.26-2.14h3l.09-.54.09-.62v-.09h-1a4.21,4.21,0,0,1-1-.05l2.28-16.2S243.55,21.17,245.78,21.17Zm-3.57,28.69s-.67.53-1.92,1.59-2.18,1.86-2.77,2.43l-.54.54-.13.71-.13.76.22.27.27.31c.59-.57,1.54-1.5,2.85-2.81s2.26-2.28,2.86-2.9l-.36-.45Zm-1-5H238.9l-.76.76-.75.71-.18,1.34L237,49.1,239.17,47Zm2.5,0H241.4L239.26,47l-2,2.09h2.32L241.67,47Zm-.71,6-2.86,2.86-2.85,2.81.53.62a4,4,0,0,0,.54.67L241.22,55l2.86-2.86-.53-.66Zm-4.29-6h-.58a2.24,2.24,0,0,0-.58,0l-.13,1.21.67-.63Zm5.49,7.41s-1,.91-2.9,2.81L238.46,58l.18.17.17.18,5.9-4.82.26-.26-.35-.45C244.35,52.54,244.21,52.38,244.21,52.32Zm.32-13.26h-2.32l-1.7,1.7c-.65.62-1.1,1.07-1.34,1.34s-.36.44-.36.53l0,.23h2l1.87-1.92Zm-2.5,0h-2.37l-.44.45L239,40.85l-.18,1.38,1.61-1.56Zm-2.55,0h-.09c-.09,0-.13.06-.13.18s0,0,0,0a.24.24,0,0,0,.09-.06Zm6.83,5.85H243.9L241.85,47l-2.14,2.09h2.41l2-2.09Zm1.34-16.29s-1.14,1.1-3.44,3.39l-3.43,3.39-.09.72a5.05,5.05,0,0,1-.14.85v.13h.94l2.86-2.9,2.9-2.9.22-1.34Zm.4-2.9c0-.06-1.14,1.05-3.43,3.35l-3.4,3.43L241,33.84l-.18,1.34a3.58,3.58,0,0,0,.49-.47q.36-.37,1-1c.35-.38,1-1,2-2l3.44-3.39.17-1.29Zm-.93,13.34h-2.41l-1.88,1.88L241,42.86h2.32l1.92-1.92Zm1.33-16.29q0-.09-3.43,3.35l-3.39,3.39-.18,1.39-.23,1.38,6.88-6.87.18-1.3Zm-.58-1.25h-.75l-2.55,2.55L242,26.66,241.85,28l-.18,1.34,3.44-3.39,3.39-3.44.09-.45,0-.44A2.31,2.31,0,0,0,247.87,21.52Zm-.62,10c-.06,0-1,.94-2.81,2.81l-2.77,2.77H244l2.1-2.05,2.1-2.1h-1.07v-.31l0-.72Zm-.31-10h-2.32l-2.15,2.15L242.3,25l-.23,1.39a7.31,7.31,0,0,0,.76-.72l1.7-1.69Zm1.87,23.39h-2.32L244.35,47l-2,2.09h2.32l2-2.09Zm-4.37-23.39h-.85a3.25,3.25,0,0,0-.85.05l-.22,1.78a1.52,1.52,0,0,0,.33-.29l.61-.6Zm5.17,17.54H247.2l-1.87,1.88-1.87,1.92h2.32l1.92-1.92ZM250.69,33h-2.41l-2.06,2.1-2.05,2.05h2.32l2.1-2.05Zm.62,12H249L246.85,47l-2,2.09h2.32L249.26,47Zm.8-5.85h-2.32l-1.92,1.88L246,42.86h2.41l1.87-1.92ZM253.18,33h-2.32l-2.09,2.1-2.1,2.05h2.41l2-2.05Zm-1.87,17L249.26,51a14,14,0,0,0-2.06,1.12l.27.71.32.67,1.74-1.78Zm2.59-5h-2.41L249.44,47l-2.15,2.09h2.41L251.76,47Zm-2.05,4.91v-.18l-4,4,.36.8.31.85s.7-.66,2-2l2-2-.31-.71Zm2.76-10.76h-2.32l-1.87,1.88-1.88,1.92h2.32l1.88-1.92Zm-2.09,12.46a6.71,6.71,0,0,0-.94.89c-.21.18-.57.52-1.07,1l-2,2,.27.62.36.81.09.22,2-1.92,2-2-.31-.8Zm14.59-30h-2.32l-5,4.91-4.91,5-.09.76-.09.8h-1.39l-2.09,2.1-2.1,2.05h2.41l9.77-9.82.14-.85.09-.85h1.51l2-2Zm-12.59,0H252.2l-1.38,1.34-1.34,1.39-.09.62-.09.71h1.12l2.05-2ZM253.45,53.7c-.06-.15-.1-.27-.13-.36s-.19.06-.49.34-.82.8-1.56,1.54l-2,2,.14.32.09.24a.59.59,0,0,0,.08.16l0,.13,1.2-.58,1.16-.62,1-.94.93-1-.31-.72C253.57,54,253.51,53.85,253.45,53.7ZM252,26.57c-.42.09-.9.2-1.45.35l-1.05.27c0,.15.07.4.11.74s.08.62.11.82a6.16,6.16,0,0,0,1.16-1Zm0-5.05H251a4.59,4.59,0,0,0-1.07.05c-.06.27-.12.67-.2,1.2s-.13.94-.15,1.21c.41-.39.83-.81,1.25-1.25ZM249.7,31.7l-.09.27c0,.26,0,.43-.08.49s0,.09,0,.11a.2.2,0,0,0,.11,0h.18l-.09-.4Zm2.46-5A12.43,12.43,0,0,0,251,27.82l-1.2,1.2.09.94q0,.32.09.6A2.58,2.58,0,0,0,250,31c0,.09.41-.28,1.25-1.11l1.2-1.25-.13-.94Zm4.24,18.25H254L251.94,47l-2.15,2.09h1.74v.63l.14-.13a.5.5,0,0,0,.18-.32.17.17,0,0,1,0-.13.19.19,0,0,1,.13,0,1.91,1.91,0,0,0,.58-.46L254.26,47Zm-5.13-12.72-.67.18-.63.18.67,0h.72a.48.48,0,0,0-.05-.22Zm1.25-3.44L251.27,30,250,31.21l.09.4,0,.45,1-.32,1-.26.72-.72-.14-1Zm-1.66-2.81h-.17a.41.41,0,0,0-.21,0,.15.15,0,0,0-.06.13.45.45,0,0,1,0,.27.11.11,0,0,0,.07.11.3.3,0,0,0,.2,0c.12,0,.18-.08.18-.14a.48.48,0,0,1,0-.22ZM257,21.52H254.7l-2,2-2.05,2H253l2-2Zm.18,17.54h-2.41l-1.87,1.88L251,42.86h1.07a5.54,5.54,0,0,1,1.12,0,8.44,8.44,0,0,0,1.29-1.2c.15-.12.39-.35.72-.67Zm4.11-11.51-4.82,4.77-4.73,4.78h2.32l3.43-3.39L261,30.23l.18-1.3ZM258.9,44.91h-2.32L254.43,47l-2.05,2.09h2.32L256.84,47ZM254,55a9.71,9.71,0,0,0-.85.8l-.8.81,1-.45.94-.49-.13-.31Zm-1.16-24s-.06,0-.09,0-.07.06-.13.15l-.22.23a.87.87,0,0,0,.29-.07,1,1,0,0,0,.2-.11Zm2.19-3.3h-2.28v.18a.48.48,0,0,1,.05.22l.71-.14a2.68,2.68,0,0,1,.72-.17l.22,1.29.22,1.25.14-1.2c.06-.33.1-.61.13-.83a3,3,0,0,1,.09-.47Zm4.55-6.21H257.2l-2,2-2,2h2.33l2.05-2Zm.09,17.54h-2.32l-2.1,2.06-2.05,2.05v.31l0,.27h1.88l2.32-2.37Zm1.21-8.57a3.58,3.58,0,0,0-.49.47q-.36.39-1,1c-.35.39-1,1.06-2,2L254,37.37v.26l0,.32h1.78l2.5-2.5c.63-.63,1.06-1.07,1.3-1.34A13.78,13.78,0,0,0,260.68,33q-.14,0,.09-1.56Zm.49,14.42h-2.32L256.93,47l-2.05,2.09h2.32L259.34,47Zm3.21-23.39h-2.32L258.81,25l-3.44,3.48-.18,1.34L255,31.16l4.82-4.82ZM262.2,39.06h-2.32l-2.37,2.32-2.36,2.37h2.41l2.32-2.37Zm-.09-17.54H259.7l-2,2-2,2v.32a8.09,8.09,0,0,1-.13,1.25l-.13,1L257,26.66c.5-.54,1.1-1.13,1.78-1.79ZM261,33l-5,5h2.32l5-5ZM258,50.85l-1,.53-1,.49.14.31a2.2,2.2,0,0,1,.09.21.35.35,0,0,0,.08.15l.9-.8Zm8.47-5.94h-2.32L262.07,47,260,49.06v.8l-.8.36-.76.4-1,1.07-1.07,1,.36.85.35.8,1.92-1.92,1-1.07a10,10,0,0,0,.89-.94l-.09-.31a1.08,1.08,0,0,1-.13-.62V49.1h1.65l2-2.09ZM261,50.67a7.62,7.62,0,0,0-.89.85l-1.07,1-1.92,2,.31.8.36.85,2-1.92,1.92-2-.31-.8Zm3-5.76h-2.41L259.52,47l-2.14,2.09h2.41l2-2.09Zm.8-5.85h-2.41l-2.32,2.32-2.32,2.37h.62l.72,0,0-.4.05-.44H261l1.92-1.92Zm-3.08,13.39A15.31,15.31,0,0,0,260,54c-1.09,1.08-1.83,1.83-2.21,2.25l.26.71a3.05,3.05,0,0,1,.32.76s0,.05,0,.05a.39.39,0,0,0,.14-.05c.05,0,.6-.55,1.65-1.58l2.14-2.12-.31-.8ZM265.86,33h-2.41l-5,5h.72l.71-.05.09-.8h1.7l2.09-2.05Zm-3.12,21.91-.32-.71-1.65,1.69-1.69,1.7,2-1,2-1A4.16,4.16,0,0,0,262.74,54.86Zm4.55-15.8h-2.41L263,40.94l-1.87,1.92h2.32l1.92-1.92Zm7.41-14.81-3.26,3.21-3.21,3.21-.18,1.16L267.91,33h-2l-2.05,2.1-2.06,2.05h2.32l5.31-5.27,5.27-5.31.14-.85.13-1a.38.38,0,0,0-.13-.27Zm-9.17,2.45-.34-.13-.18-.09-1.34,2.32c-.5.86-.85,1.48-1.05,1.85s-.24.56-.15.56l1.47-1.47,2.59-2.59-.58-.27ZM269,44.91h-2.32L264.52,47l-2,2.09h2.32L266.93,47Zm-2.14-17.63-.18-.09-2,2q-1.08,1-2,2a.93.93,0,0,0,.31.18l.49.22.8.32.41-.36a3.49,3.49,0,0,0,.42-.54c.13-.2.3-.49.49-.84s.36-.66.51-.9l1.07-1.92s0,0-.08,0A.32.32,0,0,0,266.84,27.28Zm-3.5,4.82a.45.45,0,0,1-.16-.09q-.09,0-.09.36l0,.22h.36l.26,0a.22.22,0,0,0,.14-.11l.09-.14-.32-.13Zm6.36-10.58h-2.41l-2,2-2,2h2.32l2.06-2Zm.09,17.54h-2.32l-1.92,1.88-1.92,1.92H266l1.87-1.92Zm4.95-12.31s-1.77,1.72-5.22,5.17l-5.18,5.18h2.41l3.8-3.79,3.79-3.84.18-1.25.18-1.34Zm-10,5a.64.64,0,0,0-.13.16c-.12.12-.17.18-.14.18h.05c.06,0,.13-.09.22-.27S264.73,31.71,264.7,31.72Zm6.87,13.19h-2.41L267.11,47,265,49.1h2.41L269.43,47Zm2.5,0h-2.41L269.61,47l-2.14,2.09h.8v.76l-1.61,1.43L265,52.76l.27.36.27.31,3.75-3.74V49.1h.58L271.93,47Zm-4.77,5q-.9.86-1.83,1.83c-.69.66-1.16,1.13-1.43,1.43s-.39.46-.36.49a13.14,13.14,0,0,0,1,1.16q.89-.84,1.83-1.83l1.83-1.83-.54-.62Zm2.9-28.34h-2.32l-2.06,2-2.05,2h2.32l2.05-2Zm.09,17.54H270l-1.88,1.88-1.87,1.92h2.32l1.87-1.92Zm-1.88,12.19q-.89.84-1.83,1.83l-1.83,1.78.54.67.53.63,3.66-3.66-.49-.63A4.11,4.11,0,0,0,270.41,51.25Zm3.93-21.6-3.75,3.7-3.75,3.75h2.41l2.32-2.37,2.37-2.36.18-1.34Zm-6.43-1.92h-.4l0,.13-.05.13.4.18.36.18v-.27a.37.37,0,0,0,.05-.17.2.2,0,0,1,0-.14S268.15,27.73,267.91,27.73Zm3.66,24.9q-.88.85-1.83,1.83l-1.83,1.83L269,57.54l1.79-1.79a14.08,14.08,0,0,0,1.78-1.87,2.67,2.67,0,0,0-.49-.67Zm.81-31.11-2.06,2-2.05,2h.62v.32l-.08.89-.09.67s.78-.74,2.36-2.32l2.37-2.37-.54-.62Zm1.16,1.39-2.46,2.41-2.41,2.45-.22,1.3-.18,1.38s1.06-1,3.17-3.12l3.21-3.17-.53-.63Zm1,16.15h-2.09l-1.88,1.88-1.87,1.92H271l1.74-1.74c.62-.6,1.07-1,1.34-1.34a1.73,1.73,0,0,0,.4-.54Zm-2.05,15.22a16,16,0,0,0-1.74,1.65l-1.7,1.7.18.18.14.13s.06,0,.08,0l2.82-2.45a1.71,1.71,0,0,0,.13-.58Zm1.38-21.6q-.18.14-.78.72c-.4.38-.88.87-1.45,1.47l-2.23,2.23h.71l1.48-1.34c.5-.48.9-.84,1.2-1.09l.58-.52c.21-.15.32-.26.32-.35a1.22,1.22,0,0,0,.08-.58Zm.45,12.23a20.19,20.19,0,0,0-2.23,2.1l-2.05,2.09h2.32l.84-.84.85-.81.18-1.16a5.58,5.58,0,0,1,.18-1.25C274.43,45,274.4,44.91,274.34,44.91Zm.13-5.27s-.58.54-1.65,1.61l-1.6,1.61h2.41l.22-.23.22-.26.18-1.34Zm-.44,8c0-.06-.26.16-.76.67l-.72.75h.63l.62,0,.14-.67Zm0-5s0,0-.14.09l-.13.14h.09l.18,0Z"/></g><rect class="cls-2" width="300" height="80"/></g></g></g></svg>