<svg xmlns="http://www.w3.org/2000/svg" viewBox="0 0 300 80"><defs><style>.cls-1{fill:#fff;}.cls-2{fill:none;}</style></defs><g id="图层_2" data-name="图层 2"><g id="图层_1-2" data-name="图层 1"><g id="机械体"><g id="机械体-2" data-name="机械体"><path class="cls-1" d="M27.23,43.21l-1.81,3.27-4.75-2.64,6.51-9.34-4.85.06V30.2l5.88-1.14.47-6.48,6.14-1.24.26,6.43,4.49-.89-.67,7.47-3.56,0,0,1.76.67-.41,5.53,5.39-4.08,3.47L35.65,42l.46,11.25c-1.37,0-2.94.1-4.7.21s-3.39.2-4.9.31Zm-.82,12.08,9.76-.62.1,3.37-10.07.21Zm12.7,2.33,5.37-33L60.9,22.37l-.25,26.91L66.27,49l1.4,7.62-4.18.62L53.78,46.38l-1-17.32-3.56.05-.83,29.55Zm14.87-8,7.59,7.83-7,1Z"/><path class="cls-1" d="M142.12,57.78,145,44.56l-2.48,0V42.07L141,43.63l-.93-1.51.46,12.65H131.9l.67-11.45-1.76,3.57L126.73,44l5.53-9.12-4.13,0v-4.3l5.21-1.14.37-6.74,5.73-1,.21,6.43,4.28-.93-.62,7.46-3.41.06.06,1.71.51-.37L144.6,40l-.72.72,2.12-.41,1.39-6.53,4,1-.47,4.51,1.29-.25.37-4.67L156,33.11l.2,5.13,2.28-.42-.37,6.59h-1.65l.47,11.3-6,.62.93-11.82h-1.44l-1.5,14.57Zm-10.32-1.4,8.83-.31.05,2.33-9,.26Zm28.61-3.32L160.3,52l-2.17,1.72L156.89,50l2.9-2.9-1.5-14.51-13.48.1V28.6l13-1.3-.67-6.38,5.11,1.66.78,4.25,2.58-.26-1.91-4.2,4.49-1.19,2.53,4.93,2.22-.21-.41,6.58-8.42.06,1.55,8.65,5-5,1.65,6.59-5.57,4.3.56,3.16,5,.21,1.24,7.15-3,.26Zm-9.56,4.2,6.15-.72.1,2.12-6.35.42Zm9.71-2.8L168,58l-7,.62Z"/><path class="cls-1" d="M255.41,51.61l-4.7,0V48.81l5-.77.67-10-6.87,12.34-4.65-1.09.21,4.3-9.91.31,1.29-16.22-1.24,1.61-5.27-6.48,11.93-11.77,4.44,3.83L243.9,28l.82,19.13,9.09-13.32-7.33,0v-3l10.43-1.24.46-6.48,4.81-1.19.26,7,11.46-1.35-.62,6.06-6.61.06,8.26,13.47-6,2.65-.88-2.08-.41,3.74-4.29,0,.11,2.69-8.26.52ZM235,56l10.07-.73.16,3.53-10.49.2Zm20.09.1,8.42-.52.1,2.8-8.67.21Zm12.29-9.9-4.7-10.94.47,11.61Zm1.91,4.41,6-2.8,1,1.65-6.46,2.44Z"/></g><rect class="cls-2" width="300" height="80"/></g></g></g></svg>