<svg xmlns="http://www.w3.org/2000/svg" viewBox="0 0 300 80"><defs><style>.cls-1{fill:#fff;}.cls-2{fill:none;}</style></defs><g id="图层_2" data-name="图层 2"><g id="图层_1-2" data-name="图层 1"><g id="凤仪手书"><g id="凤仪手书-2" data-name="凤仪手书"><path class="cls-1" d="M59.53,50.82V51a9.13,9.13,0,0,1-.05,1.13c-.18,1.67-.55,2.75-1.12,3.23a3,3,0,0,1-2.16.81,6.15,6.15,0,0,1-2.69-.74,13.26,13.26,0,0,1-3.06-2.23,15,15,0,0,1-2.91-3.59l-.5-.76a7.27,7.27,0,0,0-.63-1.26l-.63-1.35a3,3,0,0,1-.4-.94,2.18,2.18,0,0,0-.31-.76c0,.06-.14-.51-.5-1.71l-.4-1.48L44,41a31.23,31.23,0,0,1-.67-3.77,24.1,24.1,0,0,1-.14-2.74,50.21,50.21,0,0,1,.32-5.57c.06-.39.1-.68.11-.88s0-.3-.11-.33h0a2.57,2.57,0,0,0-.62.08,1.24,1.24,0,0,0-.41.18s0,.06-.07.09a.25.25,0,0,1-.15.05c-.18,0-.27,0-.27,0a1.81,1.81,0,0,1-.63.23c-.39.12-.59.21-.59.27l-.22,0-.54.18a1.53,1.53,0,0,0-.29.14.58.58,0,0,1-.25.09l0-.05a.72.72,0,0,0-.45.18,14.89,14.89,0,0,1-1.57.63,1.58,1.58,0,0,0-.63.27.3.3,0,0,0-.16.05.35.35,0,0,1-.2,0,2,2,0,0,0-.41.18l-.18.09a3.45,3.45,0,0,0-1.07.4,6,6,0,0,0-1.08.59.17.17,0,0,1-.18.13.66.66,0,0,0-.45.23l-.36.22-.67.27a7.43,7.43,0,0,1-1.4.54l-.17,0,0,.81.09,2c0,.87,0,1.84-.13,2.92l-.27,2.24Q30,41.57,30,42l-.32,1.57-.13.95a22.71,22.71,0,0,1-.41,2.29c-.24,1-.45,1.75-.63,2.38a7.41,7.41,0,0,1-.36,1.34A18.74,18.74,0,0,1,27,53.88a4.14,4.14,0,0,1-.76,1.19,1.23,1.23,0,0,1-.85.33,2.65,2.65,0,0,1-1.55-.67,4.17,4.17,0,0,1-1.28-1.53,2,2,0,0,1-.27-.94,3.72,3.72,0,0,1,.36-1.3A3,3,0,0,1,23,50.4a.68.68,0,0,0,.11-.21.85.85,0,0,1,.11.16c0,.08.1.17.16.29a3.35,3.35,0,0,0,.29.5c.08.09.13.07.16,0a.71.71,0,0,0,.18-.4,11.71,11.71,0,0,0,.49-1.3l0-.09s.18-.47.45-1.31c.33-1.07.59-2.08.8-3l.18-.94a18.73,18.73,0,0,0,.45-2.29l.27-1.26.14-.67a4.93,4.93,0,0,1,.22-1.12L27.1,37l.09-1.13a38.83,38.83,0,0,0,.41-5.79,16.76,16.76,0,0,1,.06-1.77,1.17,1.17,0,0,1,.25-.65.26.26,0,0,1,.22-.14.74.74,0,0,1,.32.09A1.94,1.94,0,0,1,29,28a4.21,4.21,0,0,1,.9,1.57l.09.32.58-.27.59-.41.18-.09,1.17-.58.8-.41a2,2,0,0,1,.63-.27c.12,0,.2,0,.23-.13l.27-.09a21,21,0,0,0,2.2-.94,1.47,1.47,0,0,1,.81-.32.17.17,0,0,0,.18-.13l.58-.23a1,1,0,0,0,.34-.11l.2-.11.31-.14a3,3,0,0,0,.86-.31,2.67,2.67,0,0,0,.67-.31l.27-.09a3.75,3.75,0,0,0,.83-.21,9.39,9.39,0,0,0,1.15-.42.45.45,0,0,1,.35-.14,8.29,8.29,0,0,0,1.8-.67,2.76,2.76,0,0,1,1-.32,2.3,2.3,0,0,1,1.3.61,4.52,4.52,0,0,1,1.17,1.33,2.82,2.82,0,0,1,.22.62,1.1,1.1,0,0,1-.4.72,2.82,2.82,0,0,0-.63,1.17l-.27.94A12.67,12.67,0,0,0,46.91,31a21.28,21.28,0,0,0-.18,2.58c0,.39,0,.58,0,.58a3.61,3.61,0,0,0,0,.9c0,1.11,0,2.16.13,3.14.09,0,.09.08,0,.14s-.05,0-.07.07a.22.22,0,0,0,0,.15l.09.59a20.45,20.45,0,0,0,.58,3c.36,1.53.64,2.59.85,3.19s.38,1,.59,1.53a3.11,3.11,0,0,0,.4.81l.45.89a9.8,9.8,0,0,0,2.2,3.17,3.71,3.71,0,0,0,2.43,1.14,1.66,1.66,0,0,0,1.25-.45,2.29,2.29,0,0,0,.59-1.52c0-.27,0-1,0-2.2l0-2.2c0-1.86,0-3.66.09-5.39,0-1,0-1.8,0-2.27A7.32,7.32,0,0,0,56,37.22a2.92,2.92,0,0,1-.18-.86,23,23,0,0,1,.95,2.34l.76,2.15.27.9c.27.84.54,1.75.81,2.74a16.24,16.24,0,0,1,.58,2.88l.14,1.12a5,5,0,0,1,.13,1.21Zm-13.7-.18a4.41,4.41,0,0,1,.45.59q.13.23-.09.18a11.48,11.48,0,0,1-1.89-.7,12.66,12.66,0,0,1-1.84-1,9.18,9.18,0,0,1-1.62-1.12L38.91,47.1l-.27-.18c-.12-.09-.18-.08-.18,0s-.3.64-.89,1.75c-.24.45-.53.93-.86,1.44s-.51.75-.54.72l-.49.18a1.5,1.5,0,0,1-.76.18,3.22,3.22,0,0,1-1.85-.72,7.77,7.77,0,0,1-1.84-1.73,3.86,3.86,0,0,1-.85-1.86v-.23a4,4,0,0,1,.07-.78c0-.26.09-.4.15-.43s.17.1.32.31a7.71,7.71,0,0,0,1.3,1.8c.63.69,1.05,1,1.26,1a.52.52,0,0,0,.36-.18l0-.18,0,.05c.12,0,.37-.27.76-.81a4.88,4.88,0,0,0,.81-1.39,2,2,0,0,1,.18-.41c.15-.09.19-.16.13-.22l.09-.36A.14.14,0,0,1,36,45a.18.18,0,0,0,0-.14c0-.09-.13-.24-.4-.47l-1-.78a12.63,12.63,0,0,1-3.46-3.5c0-.07-.07-.16-.13-.27s-.05-.2,0-.23.12,0,.27,0h.18a1.19,1.19,0,0,1,.54.13l.18.05a.13.13,0,0,0,.18-.09,2.62,2.62,0,0,1,.45-.61,1.78,1.78,0,0,1,.54-.43.4.4,0,0,0,.27-.31.65.65,0,0,1,.31-.18l1.17-.9.54-.45a5.81,5.81,0,0,0,.74-.63,4.94,4.94,0,0,1,.7-.58.16.16,0,0,0,.18-.18h0c.09.12.61-.39,1.57-1.53a4.15,4.15,0,0,1,.52-.47,1,1,0,0,1,.43-.07,2.24,2.24,0,0,1,1.39.59,2,2,0,0,1,.58.72,1.78,1.78,0,0,1,.23.71,1.09,1.09,0,0,1-.07.39,1.52,1.52,0,0,1-.29.38c-.51.54-.74.88-.68,1a.78.78,0,0,0-.18.49l-.27,1.13a8,8,0,0,0-.17,1.26.58.58,0,0,1,0,.31s-.11.19-.22.58L39.63,43l-.36,1.62a14.57,14.57,0,0,0,1.17,1A34.2,34.2,0,0,1,45.83,50.64ZM37.21,41c.18-.66.22-1.05.13-1.16a.26.26,0,0,0-.18-.09,3.14,3.14,0,0,0-.54.4c-.21.27-.37.4-.49.4a3.28,3.28,0,0,0-.76.54l-.41.32c-.12,0-.09,0,.09.13l.85.59c.66.48,1,.61.86.4s0-.22,0-.22l.18-.41Z"/><path class="cls-1" d="M110,21.14a1.92,1.92,0,0,1,.67-.14,2.62,2.62,0,0,1,1.4.63,6.54,6.54,0,0,1,.85,1.13c.21.35.25.61.13.76a11.59,11.59,0,0,1-1.84,2l-.09.27a.21.21,0,0,1-.18.22l-.49.5a1.73,1.73,0,0,0-.4.54l-.18.27a1.2,1.2,0,0,0-.54.85c0,.12-.05.18-.14.18s-.21.09-.45.45a1.74,1.74,0,0,0-.4.72s0,.07-.09.13a2.32,2.32,0,0,0-.43.54,1.68,1.68,0,0,0-.29.58.68.68,0,0,1-.11.32c-.08.12-.16.18-.25.18s-.06.1-.09.31c0,.06,0,.12-.13.18a.54.54,0,0,0-.32.27l-.13.23-.32.58a2.63,2.63,0,0,0-.22,1.17l0,.94c0,1.29,0,2.29-.09,3a1,1,0,0,0-.13.63c0,.15,0,.24,0,.27s.09.19,0,.22,0,.06,0,.18v.18l-.09.63a4.08,4.08,0,0,0-.05.67v.18c0,.15,0,.23-.09.23s-.07.21,0,.45a5.41,5.41,0,0,1-.09.81,2.71,2.71,0,0,0-.18,1,2.49,2.49,0,0,1-.09.76,11.94,11.94,0,0,0-.18,1.66l-.18,1.49c-.12,1.1-.18,2.89-.18,5.34a6,6,0,0,0,.05,1.17,5.53,5.53,0,0,1,0,.76,7.62,7.62,0,0,0,0,.85,7.17,7.17,0,0,0,.13,1.67,1,1,0,0,1,0,.44l.09,1.08a1,1,0,0,0,0,.32.85.85,0,0,1,0,.18l0,.09a1.09,1.09,0,0,1-.11.42,1.31,1.31,0,0,1-.25.38.65.65,0,0,1-.4.14h-.14a3.09,3.09,0,0,1-1.46-.72,5.62,5.62,0,0,1-1.28-1.44,2.52,2.52,0,0,1-.36-.8l-.09-.18a7.8,7.8,0,0,1-.22-2.74q0-2.43.09-4.23l.22-2.24a5.64,5.64,0,0,1,.14-1.3,24.74,24.74,0,0,0,.27-2.7,2.38,2.38,0,0,1,.13-.76l0-.76a8,8,0,0,1,.13-.9,3.11,3.11,0,0,0,0-.72.68.68,0,0,0,0-.27c0-.06,0-.06-.07,0l-.13.45a.85.85,0,0,0-.32.67q0,.27-.09.27t-.09.18q0,.18-.09.18c-.09,0-.22.21-.4.63a9.83,9.83,0,0,1-.67,1.3l-.41.85.14,0s0,0,0,.09a.29.29,0,0,1-.09.22,1.51,1.51,0,0,0-.31.54c-.12.3-.23.45-.32.45s-.12.11-.09.14v0a.84.84,0,0,1-.18.34.77.77,0,0,0-.18.43s0,.07,0,.13l-.27.4-.27.5a.45.45,0,0,0,0,.27c0,.09-.1.24-.31.45a.77.77,0,0,1-.22.22.64.64,0,0,1-.36.09,1.87,1.87,0,0,1-.86-.27,4.13,4.13,0,0,1-.94-.72,2.35,2.35,0,0,1-.85-1.75,1.92,1.92,0,0,1,.13-.76l.18-.45a1.55,1.55,0,0,1,.27-.36,3.48,3.48,0,0,0,.72-1.35,5.68,5.68,0,0,1,.4-.74,5.29,5.29,0,0,0,.41-.74,1,1,0,0,0,.13-.31.57.57,0,0,1,.14-.27l.13-.27a5.81,5.81,0,0,1,.5-.95l.89-1.79.5-1.12a.17.17,0,0,1,.13-.18.32.32,0,0,0,.09-.23,2.44,2.44,0,0,1,.32-.49,11.59,11.59,0,0,0,.58-1,2.67,2.67,0,0,0,.27-.62.36.36,0,0,1,.13-.23,1,1,0,0,0,.18-.22l0,0a.17.17,0,0,1,0-.27c.12,0,.18-.07.18-.13l.09-.23a2.87,2.87,0,0,0,.63-.81,13.41,13.41,0,0,0,.63-1.21q0-.45.18-.45c.06,0,.09,0,.09-.13s.07-.12.22-.27a.26.26,0,0,0,.09-.27.15.15,0,0,1,0-.16s.06-.05.09,0l0,0s.16-.11.31-.35l.76-1.44c.09-.15.17-.23.23-.23v-.18c0-.09,0-.13.09-.13s.31-.24.76-.9l1.21-1.84c.15-.15.23-.25.23-.31a1.06,1.06,0,0,1,.27-.41,5.34,5.34,0,0,0,.85-1.17,1.18,1.18,0,0,1,.27-.4c.12,0,.19-.09.22-.27s.08-.18.14-.18.13,0,.13-.13,0-.18.14-.18a.93.93,0,0,0,.67-.54A5,5,0,0,1,110,21.14Zm15.81,8.4a.84.84,0,0,1,.54-.18,1.76,1.76,0,0,1,1,.45,3.54,3.54,0,0,1,.89,1,3.08,3.08,0,0,1,.18,1.31,4,4,0,0,1-.09,1.07.32.32,0,0,0-.09.23c0,.09-.21.76-.62,2a6.44,6.44,0,0,0-.41,1.39A.22.22,0,0,1,127,37l-.18.36a.81.81,0,0,1,0,.29.53.53,0,0,0-.05.2c-.21.51-.36.91-.45,1.21a.69.69,0,0,1-.11.27.35.35,0,0,0-.07.14.43.43,0,0,0-.09.31.47.47,0,0,1-.09.32l-.36.85a2.27,2.27,0,0,1-.36.94.49.49,0,0,0,0,.23,1.82,1.82,0,0,1-.31.67,4.12,4.12,0,0,0-.41,1.21.46.46,0,0,1-.09.18,2.68,2.68,0,0,0-.22.54c-.06.09-.26.51-.59,1.26q-.13.36-.24.6a2.36,2.36,0,0,0-.16.43l-.09.32a6,6,0,0,0,.9.67l1.17.72,1,.81a34.73,34.73,0,0,1,4.29,4,11.1,11.1,0,0,1,2.22,3.37,4.91,4.91,0,0,1,.18,1.16q0,.36-.09.36a10.91,10.91,0,0,1-1.39-.94,18.63,18.63,0,0,1-2.11-1.75l-.72-.59-1.71-1.39-.13-.18c-.24-.18-1-.67-2.11-1.48l-.5-.31a7,7,0,0,0-1.12-.81,6.37,6.37,0,0,0-1.21-.68c-.06,0-.17.12-.32.36a3.14,3.14,0,0,1-.54.81,12.21,12.21,0,0,1-2.06,2.07l-.81.63a2.15,2.15,0,0,1-.58.36.76.76,0,0,0-.5.27,3.14,3.14,0,0,0-.43.18,1.48,1.48,0,0,1-.38.13l-1.07.09a7.41,7.41,0,0,1-1,0,8.51,8.51,0,0,1-2.33-.33,21.06,21.06,0,0,1-2.74-1.06,16.94,16.94,0,0,1-2.07-1.21,10.52,10.52,0,0,1-1.17-.81c0-.15,1.68-.22,5-.22.87-.06,1.37-.11,1.49-.14a1.55,1.55,0,0,1,.49-.09,4.13,4.13,0,0,0,1.08-.36,6.58,6.58,0,0,0,1.08-.58,4.1,4.1,0,0,1,.53-.45,14.28,14.28,0,0,0,2-1.84l.23-.36-.36-.27-.5-.22a.48.48,0,0,1-.31-.18c-.15-.15-.27-.23-.36-.23a.38.38,0,0,1-.27-.13.76.76,0,0,1-.25-.16,1.69,1.69,0,0,0-.25-.2,11.43,11.43,0,0,1-1.34-.72,16.84,16.84,0,0,0-3.86-1.84,4,4,0,0,1-2.43-1.8,1.68,1.68,0,0,1-.18-.58.57.57,0,0,1,.27-.5l.22-.27h.77a6.09,6.09,0,0,1,2,.45,3.76,3.76,0,0,0,.81.27.93.93,0,0,1,.54.18l.58.32,1.12.49,1.48.76,1,.45.11.09a1,1,0,0,0,.2.09l2.16,1.17.18.11a.27.27,0,0,0,.18.07c.09,0,.13-.06.13-.18s.05-.09.14-.09.1-.06.13-.18a1.15,1.15,0,0,1,.27-.45,7.12,7.12,0,0,0,.81-1.39,5.19,5.19,0,0,0,.58-1.35l.27-.67c.18-.42.27-.65.27-.67a.24.24,0,0,1,0-.18l.22-.5a4.88,4.88,0,0,1,.5-1.21,2,2,0,0,1,.15-.54,3.17,3.17,0,0,0,.2-.67l.36-.86a.54.54,0,0,0,0-.31.37.37,0,0,1,.09-.27c.15-.06.23-.15.23-.27l.09-.36q.09,0,.09-.18c0-.18,0-.27,0-.27s.24-.34.27-.85l.14-.36a5.86,5.86,0,0,0,.47-1.08,4,4,0,0,0,.25-1,1.12,1.12,0,0,1,.18-.45l.13-.54a.21.21,0,0,1,.18-.22.21.21,0,0,0,.18-.22Q125.5,29.67,125.77,29.54Zm-11.5,1.7a.68.68,0,0,1,.5-.18H115a2.67,2.67,0,0,1,1.48.72,7.52,7.52,0,0,1,1,1.12,4.28,4.28,0,0,1,.72,1,1.39,1.39,0,0,0,.45.85c.3.54.57,1.06.81,1.57s.42.92.54,1.21a2.35,2.35,0,0,1,.22.59c.09.18.1.31,0,.4a.42.42,0,0,0-.08.23c0,.06-.08.16-.23.31a.61.61,0,0,1-.45.18c-.33,0-1-.45-1.93-1.35a13.21,13.21,0,0,1-1.75-2.29,13.5,13.5,0,0,1-1.44-2.78,3.69,3.69,0,0,1-.18-1.08A1.7,1.7,0,0,1,114.27,31.24Z"/><path class="cls-1" d="M192,21.81c.41-.06.67-.09.76-.09a4.71,4.71,0,0,1,2.13.56,4.83,4.83,0,0,1,1.73,1.42q.27.36.45.63a.9.9,0,0,1,.18.49.69.69,0,0,1-.09.27,1.22,1.22,0,0,1-1,.67,3.34,3.34,0,0,1-.65.14q-.39,0-.39.18l-.31,0h-.18a.72.72,0,0,0-.36.05,1.23,1.23,0,0,1-.76.18q-.76.13-1.26.27a1.22,1.22,0,0,1-.34.11.62.62,0,0,0-.27.09.27.27,0,0,0-.11.25,2.08,2.08,0,0,0,.05.4c0,.15.06.31.09.49l.09.77v1a.64.64,0,0,0,.22.45l.36.17c.18,0,.58.32,1.21.95a4.64,4.64,0,0,1,.65.76,2.11,2.11,0,0,1,.3.72l0,.27a.61.61,0,0,1-.4.67,2.3,2.3,0,0,0-.5.18.55.55,0,0,1-.4.18l-.36.09a2,2,0,0,0-.58.23c-.09.15-.18.22-.27.22s-.18.51-.18,1.53V37c0,.48,0,.71.13.71a1.49,1.49,0,0,0,.54-.2,2.15,2.15,0,0,0,.54-.33q0-.09.18-.09a1.8,1.8,0,0,0,.63-.23,3.76,3.76,0,0,0,.72-.45.48.48,0,0,1,.31-.18s0,0,0,0v0H195c.09,0,.14,0,.14-.09s-.11-.24-.32-.45a1.4,1.4,0,0,1-.26-.45h.76a3.33,3.33,0,0,0,1.26-.17,3,3,0,0,1,1.25-.18,1.2,1.2,0,0,1,.63.09l.18,0s.08,0,.16,0a.66.66,0,0,1,.2.14l.54.35a5.08,5.08,0,0,1,1.62,1.53,1.82,1.82,0,0,1,.45,1.08.93.93,0,0,1-.68.9l-.49.22-.72.27A2,2,0,0,0,199,40a2,2,0,0,1-.56.22,2.1,2.1,0,0,0-.7.31,1.62,1.62,0,0,1-.58.18.4.4,0,0,0-.27.14.36.36,0,0,1-.27.18,1,1,0,0,0-.4.13l-.18.09c-.09,0-.34.06-.74.27s-.65.35-.74.41a.6.6,0,0,1-.41.09l0,0a.13.13,0,0,1-.14.14s-.05,0-.07,0,0,0,0-.07,0-.07-.27,0a5.59,5.59,0,0,1-.72.27c-.45.15-.71.26-.76.35a.82.82,0,0,0-.18.59v.18a1.88,1.88,0,0,0,.09.49,1.63,1.63,0,0,1,0,.45,3.21,3.21,0,0,0-.05.67v.41c.06.78.09,1.62.09,2.51l.09,2.2a8.89,8.89,0,0,1,.09,1.53q0,1.71-.09,3.15a9,9,0,0,1-.27,1.81c-.15.59-.3.92-.45,1a.36.36,0,0,0-.13.23c0,.15-.36.46-1.08.94a2.4,2.4,0,0,1-.79.34,6.22,6.22,0,0,1-1.05.2,6.56,6.56,0,0,1-2-.22l-1-.27a5.68,5.68,0,0,1-.92-.32,3.78,3.78,0,0,0-.9-.45l-1-.54a23.13,23.13,0,0,1-2.74-1.93l-1.71-1.52c-.15-.15-.33-.33-.56-.54s-.32-.33-.29-.36.21,0,.63.13l1.62.59,1.3.45a10.16,10.16,0,0,0,1.26.49c.77.27,1.22.42,1.34.45a.56.56,0,0,1,.32.13l1.21.27a4,4,0,0,0,.72,0,1.6,1.6,0,0,0,.63-.14,6.44,6.44,0,0,0,.92-.42c.28-.17.42-.28.42-.34s.08-.12.23-.18.2-.27.34-.72a6.31,6.31,0,0,0,.24-1.26,1.62,1.62,0,0,1,.09-.76,9.29,9.29,0,0,0,.05-1.48q0-3.06-.14-6.06v-.27l-.45.22a1.59,1.59,0,0,0-.54.23,3,3,0,0,1-1,.44l-1.67.72-1.16.54a2.9,2.9,0,0,0-1,.45,4.28,4.28,0,0,0-.67.25l-.63.25-.36.18a.8.8,0,0,1-.36.13l-1.8.4a5.69,5.69,0,0,1-1.66.32,1.55,1.55,0,0,1-1.12-.5,1.11,1.11,0,0,1-.41-.71,1.29,1.29,0,0,1,.23-.5c.6-.75,2.41-2.63,5.43-5.66,1.35-1.28,2-2,1.93-2.11a.48.48,0,0,0-.36-.13c-.15,0-.22,0-.22.13s-.2.1-.61,0a2.89,2.89,0,0,1-1-.34,4.78,4.78,0,0,1-1.37-1.24c-.38-.49-.5-.89-.38-1.19a.72.72,0,0,1,.35-.36l.54-.27a.5.5,0,0,1,.32-.18.83.83,0,0,0,.42-.2c.2-.13.3-.23.3-.29s.06-.13.18-.13.24,0,.27-.14a.55.55,0,0,1,.4-.31c.15-.06.23-.14.23-.23s0-.09.13-.09h0a.53.53,0,0,0,.27-.13.36.36,0,0,0,.18-.27c0-.06.05-.09.14-.09a1.22,1.22,0,0,0,.51-.25c.26-.16.39-.29.39-.38s0,0,.13,0h0a1.2,1.2,0,0,0,.62-.22,7.64,7.64,0,0,1,.7-.43,5.17,5.17,0,0,0,.52-.29c.45-.24.67-.4.67-.49s.06-.08.18-.05a1.18,1.18,0,0,0,.58-.18,1.68,1.68,0,0,0,.39-.27,1.27,1.27,0,0,0,.11-.45,1.07,1.07,0,0,0-.05-.53.11.11,0,0,1,0-.18,3.91,3.91,0,0,0,.09-1l.05-.94-.5.13c-.36.09-.55.2-.58.32a.37.37,0,0,1-.27.09,6.83,6.83,0,0,0-1.39.45,1,1,0,0,1-.5.13,2.09,2.09,0,0,0-.89.27,6.21,6.21,0,0,1-1.66.23,2.72,2.72,0,0,1-2.48-1,1.82,1.82,0,0,1-.71-1.16,1.09,1.09,0,0,1,.36-.77,6.55,6.55,0,0,1,1.3-.9c.51-.23.78-.4.81-.49a1.91,1.91,0,0,1,.47-.16c.28-.07.42-.14.42-.2a.36.36,0,0,1,.23-.13q.18,0,.18-.09t.18-.09l.54-.14a14.73,14.73,0,0,1,2.56-.94c1.37-.42,2.3-.69,2.78-.81l.38,0a2,2,0,0,0,.61-.16,4.06,4.06,0,0,1,1.08-.27Zm-3.73,15.5-.05-.81a14.92,14.92,0,0,0-1.61,1.25q-1.44,1.26-2.79,2.61A18.64,18.64,0,0,0,182,42.11c0,.09.06.14.18.14a.38.38,0,0,0,.36-.14c.12-.12.18-.16.18-.13,0,.18.13.16.4,0a.56.56,0,0,1,.41-.27.93.93,0,0,0,.45-.27.67.67,0,0,1,.49-.22.22.22,0,0,0,.23-.18c0-.12.14-.18.35-.18a.13.13,0,0,0,.14,0,.18.18,0,0,0,.13-.11l.27-.14c.15,0,.24,0,.27,0l1.84-.85.54-.23v-.67A13.33,13.33,0,0,1,188.24,37.31Zm-6.06,5.07a.09.09,0,0,0,0-.07l-.06,0s-.05,0-.05.09a.08.08,0,0,0,.09.09S182.18,42.44,182.18,42.38Zm1.52-3.68.09-.14-.18,0c-.15,0-.23.07-.24.11s0,.08.15.11S183.61,38.82,183.7,38.7Z"/><path class="cls-1" d="M277.7,39.37a7.69,7.69,0,0,1-.23,1.62,3,3,0,0,0-.18.72c0,.27-.09.4-.17.4l-.27.67L276.31,44a1.57,1.57,0,0,0-.27.63l-.23.44c-.18.18-.27.32-.27.41s0,.18-.09.18l-.27.58a10,10,0,0,1-1.12,1.46,6.58,6.58,0,0,1-1.3,1.15,5.44,5.44,0,0,1-1.08.56,4.39,4.39,0,0,1-1.08.29,2.75,2.75,0,0,1-.67,0,6.9,6.9,0,0,1-1.32-.14,3.8,3.8,0,0,1-1.11-.36,2.47,2.47,0,0,1-.58-.36,8.19,8.19,0,0,1-2.65-2.33,6.08,6.08,0,0,1-.72-1.51,8,8,0,0,0-.36-1,.26.26,0,0,0,0,.18,39.51,39.51,0,0,1,.09,4.35c0,2.94.07,4.43.13,4.49a.17.17,0,0,1,0,.23,4,4,0,0,0,0,.9,6.33,6.33,0,0,1,0,.89.08.08,0,0,0,.09.09c.06,0,.08,0,.07,0l-.07,0a.26.26,0,0,0,0,.18l0,.49c.09,1.05.14,1.86.14,2.43a.75.75,0,0,0,.06.31.42.42,0,0,1,0,.36l0,.72v.09a.32.32,0,0,1-.23.31,1.45,1.45,0,0,1-.63.18,1.12,1.12,0,0,1-.4,0,5.69,5.69,0,0,1-1.57-.94,3.28,3.28,0,0,1-.9-1.28A7.76,7.76,0,0,1,259.6,56q-.09-1.71-.09-2.25a10.6,10.6,0,0,1,0-1.3l-.05-1.3a5,5,0,0,0-.09-1.53s0-.1,0-.22a9.9,9.9,0,0,0,.18-2.34c0-1,0-2.3,0-4a11.72,11.72,0,0,0,0-1.48c-.09,0-.14,0-.14.09a.08.08,0,0,1,0,.06s0,0,0,0h-.09l-.41.09a.47.47,0,0,1-.54.23h-.09a3.78,3.78,0,0,0-1.3.31,3.94,3.94,0,0,1-1,.36,2.44,2.44,0,0,1-.94.27,1.54,1.54,0,0,1-.45-.05,2.71,2.71,0,0,1-1.64-.65,1.61,1.61,0,0,1-.74-1.19,1.11,1.11,0,0,1,.35-.67,1.22,1.22,0,0,1,.68-.45.45.45,0,0,1,.16-.09l.29-.13.72-.41a1.09,1.09,0,0,1,.33-.18.53.53,0,0,0,.21-.09c0-.09.16-.16.49-.22a1,1,0,0,1,.36-.18,1,1,0,0,0,.31-.14,3.08,3.08,0,0,0,.59-.18,1.14,1.14,0,0,0,.54-.27c0-.06.2-.14.53-.24a6.12,6.12,0,0,1,.81-.21,2.12,2.12,0,0,0,.63-.13,2,2,0,0,0,.36-.18.26.26,0,0,0,.14-.22l0-2.07,0-3,0-1.17-.76,0a4.58,4.58,0,0,1-1-.09,6.44,6.44,0,0,1-2.13-1.19,2.11,2.11,0,0,1-.92-1.42.69.69,0,0,1,.36-.67,5.38,5.38,0,0,1,1.48-.31,16.92,16.92,0,0,0,2-.32,5.49,5.49,0,0,0,1.3-.4,3,3,0,0,0,.22-1.26,6.69,6.69,0,0,1,.18-1.35.49.49,0,0,0,.14-.36,3.09,3.09,0,0,1,.27-1.3,1.48,1.48,0,0,0,.09-.45c.06-.24.14-.54.25-.92a6.72,6.72,0,0,1,.29-.87c0-.12.13-.18.31-.18a1.22,1.22,0,0,1,.5.22,1,1,0,0,1,.49.61,11.78,11.78,0,0,1,.13,1.73l.09,1.75.05.81a1.16,1.16,0,0,0,.07.42,1.63,1.63,0,0,0,.11.29l1-.31s.47-.12,1.3-.36a5.53,5.53,0,0,0,1.08-.18,9.13,9.13,0,0,1,1.33-.25c.43,0,.65,0,.65,0s0,.06.07.11a.21.21,0,0,0,.15.07,3,3,0,0,1,1,.22,7.26,7.26,0,0,1,1.19.58A7.33,7.33,0,0,1,272.62,27a2.64,2.64,0,0,1,.63,1.55,5.73,5.73,0,0,1-.36,1.53,7.17,7.17,0,0,1-.76,1.53,3.14,3.14,0,0,1-1.3,1.25c-.93.69-1.45,1.1-1.57,1.22s-.12.12-.36.27c-.57.39-.86.66-.86.81a1.13,1.13,0,0,0,.45,0,11.63,11.63,0,0,1,2.29-.23,9.9,9.9,0,0,1,3.19.36,8.73,8.73,0,0,1,2,1.17,4.43,4.43,0,0,1,1.36,1.48A3.15,3.15,0,0,1,277.7,39.37Zm-14.55-3.95.45-.49a2.34,2.34,0,0,0,.72-.86c.06-.09.25-.36.58-.81.18-.18.27-.29.27-.36l.31-.53c.21-.21.32-.38.32-.5q0,.14-.09.09t0-.18c0-.06,0-.09.13-.09s.15-.06.27-.18a.48.48,0,0,0,.18-.31.39.39,0,0,1,.23-.32,9.51,9.51,0,0,0,.6-.87,2.9,2.9,0,0,0,.34-.65q0-.22,0-.27a.45.45,0,0,0-.27-.05,1.15,1.15,0,0,0-.72.18l-2.42.72-.59.14-.31.09Zm10.37,3.14c0-.18,0-.28-.13-.31s-.1,0-.11-.07,0-.07-.07-.07l-.29.07a2,2,0,0,1-.56.07,2.73,2.73,0,0,0-.81.09l-.59,0a6.93,6.93,0,0,0-.94.18l-.45.12a2.77,2.77,0,0,1-.45.06l-.36,0a1.91,1.91,0,0,0-.54.18,4.36,4.36,0,0,1-.63.13l-.58.09a2.18,2.18,0,0,1-.9.23,17.08,17.08,0,0,0-2.65.76l-.22.13a3.68,3.68,0,0,0-.09,1.31l0,1.34.45.72a5.39,5.39,0,0,0,2.83,2.61,4,4,0,0,0,.94.13,2.53,2.53,0,0,0,.77-.18,5.63,5.63,0,0,1,.9-.36,3.57,3.57,0,0,0,.58-.27,1.59,1.59,0,0,0,.45-.45,6.31,6.31,0,0,0,1-1.3l.14-.18a3.47,3.47,0,0,0,.4-.6,2.7,2.7,0,0,0,.32-.74,6.74,6.74,0,0,1,.58-1.22,1,1,0,0,0,.27-.45,2.19,2.19,0,0,0,.27-.62A4.77,4.77,0,0,0,273.52,38.56Zm-1.84-17.51,0-.32a.6.6,0,0,1,.22-.36c.24-.23.41-.32.5-.26a.61.61,0,0,1,.17,0l.41.13a4.94,4.94,0,0,1,1,.54,4.77,4.77,0,0,1,1,.81,14.45,14.45,0,0,1,1.84,2.52,5.1,5.1,0,0,1,.72,2.56l-.09.63a1.33,1.33,0,0,1-.56.42,1.72,1.72,0,0,1-.74.25.79.79,0,0,1-.54-.25,9.54,9.54,0,0,1-.94-1.1,15.93,15.93,0,0,1-1.71-2.87A13.61,13.61,0,0,1,271.68,21.05Z"/></g><rect class="cls-2" width="300" height="80"/></g></g></g></svg>