<svg xmlns="http://www.w3.org/2000/svg" viewBox="0 0 300 80"><defs><style>.cls-1{fill:none;}.cls-2{fill:#fff;}</style></defs><g id="图层_2" data-name="图层 2"><g id="图层_1-2" data-name="图层 1"><g id="布丁体"><rect class="cls-1" width="300" height="80"/><g id="布丁体-2" data-name="布丁体"><path class="cls-2" d="M72.22,27q0,.57-.81.69Q66.23,28,51.14,28h-7.2L34.59,39.2h3.2a107.92,107.92,0,0,1,.46,11l-.06,6.92a.57.57,0,0,1-.37.57,4.42,4.42,0,0,1-1.13.29,29.73,29.73,0,0,1-3.84.17h-2A29.92,29.92,0,0,1,30.12,50c0-2.21.06-4.2.18-6l-1.16,1.2a2.42,2.42,0,0,1-1.69.46A17.11,17.11,0,0,1,23.1,45l-3-.8Q21,42.11,32.85,27.87H23.79c-1.35.07-2.14-.17-2.38-.75a5.64,5.64,0,0,1-.34-1.89,4.17,4.17,0,0,1,.81-2.57l15.21.17,3.83-4.64a34.9,34.9,0,0,0,2.44-2.91l8.19,2.86A49.09,49.09,0,0,1,48,22.89l20.44.23a2.16,2.16,0,0,1,1.62.71,17.33,17.33,0,0,1,1.57,1.92A2.2,2.2,0,0,1,72.22,27ZM66.91,38.88A7.27,7.27,0,0,1,67.46,42a33.66,33.66,0,0,1-1.19,6.95,47.25,47.25,0,0,1-2.41,7.58,3.62,3.62,0,0,1-1.16,1.61,3.48,3.48,0,0,1-1.69.34q-2.15,0-7.08-.52l.58-4.69,1.63.4a14,14,0,0,0,1.62.34l.35.06a.37.37,0,0,0,.29-.14,1.2,1.2,0,0,0,.18-.55,19.27,19.27,0,0,0,.34-3.89,14.55,14.55,0,0,0-.75-5.21,2.44,2.44,0,0,0-.49-.68,1.47,1.47,0,0,0-.79-.29,28.74,28.74,0,0,0-4-.4V46.3q0,13.22-1,17.17a.89.89,0,0,1-.5.68,4.44,4.44,0,0,1-1.19.29,53.39,53.39,0,0,1-6.73.28,57.84,57.84,0,0,1-.29-6.86q0-4.81.35-14.54l-4.18.51.11-5.32,4.3-.68c.19-4.35.33-6.82.41-7.39l6.33-.05h1.85c.12,1.25.25,3.43.41,6.52q4-.34,7.43-.34a14.48,14.48,0,0,1,4.3.4A4.19,4.19,0,0,1,66.91,38.88Z"/><path class="cls-2" d="M181,23.86c0,.57-.13.9-.4,1a171.88,171.88,0,0,1-19.86,2.64c.39,1.87.71,4,1,6.38s.42,4.43.46,6.15a69.72,69.72,0,0,1-.61,11,47.68,47.68,0,0,1-1.71,8.15,7,7,0,0,1-1.22,2.35,2.57,2.57,0,0,1-1.63.8,52.32,52.32,0,0,1-6.21.29q-4.19,0-7.66-.29a43.16,43.16,0,0,1,.75-4.81q4.93.63,7.08.8a1.17,1.17,0,0,0,.64-.14.58.58,0,0,0,.24-.54,3.84,3.84,0,0,0-.18-.92,87.15,87.15,0,0,1-2.21-16.31q-.16-3.21.41-12.13l-3,.23-3.28.23q-5.46.33-8.77.62a5.68,5.68,0,0,1-.93.06c-1,0-1.56-.25-1.8-.74a6.38,6.38,0,0,1-.58-2.52,4.8,4.8,0,0,1,.7-2.63l44-3.55a4.27,4.27,0,0,1,2.52.69,4.91,4.91,0,0,1,2,1.88A3.22,3.22,0,0,1,181,23.86Z"/><path class="cls-2" d="M244.5,24.55l-1.91,4.58q.22,3.14.23,7.67,0,6.18-.47,12.5a96.82,96.82,0,0,1-1.1,9.82,2.23,2.23,0,0,1-.32,1,1.8,1.8,0,0,1-1,.34,27.13,27.13,0,0,1-3.6.23l-2.55-.06a68.05,68.05,0,0,1-.35-7.55q0-5.61.41-11.74a5.2,5.2,0,0,1-.93.06,26.93,26.93,0,0,1-6.45-1.09l-1.1-.28q.87-2,7-11.51t7.25-11.1L247,18.82Q246.54,19.57,244.5,24.55Zm5.87,25.12a6.5,6.5,0,0,1-3,.8,3.48,3.48,0,0,1-1.71-.51,1.81,1.81,0,0,1-1-1.15,4.76,4.76,0,0,1-.18-1.31,8.6,8.6,0,0,1,1.22-4.3q1.68-3,3.72-3a3.71,3.71,0,0,1,1.27.29,10.56,10.56,0,0,1,2,1.14,8.48,8.48,0,0,1,1.68,1.55,1.54,1.54,0,0,1,.29.91A6,6,0,0,1,253,47.44,7.93,7.93,0,0,1,250.37,49.67Zm21.07,2.69a1.33,1.33,0,0,1,.35.92,1.26,1.26,0,0,1-.26.8,1,1,0,0,1-.61.4c-2.44.15-4.32.29-5.63.4q-.41,4.75-.76,6.7a1.4,1.4,0,0,1-.49,1,3.61,3.61,0,0,1-1.19.43,35.82,35.82,0,0,1-6.21.4c-.16-1.95-.27-4.6-.35-8l-4.12.17h-.35a1.32,1.32,0,0,1-.73-.14.73.73,0,0,1-.26-.49,17.31,17.31,0,0,1,0-2.08,6.86,6.86,0,0,1,.23-1.86l5.23-.18q0-7.14.29-15.62l-9.58.23q-1.74,0-2-.69a5.07,5.07,0,0,1-.29-1.6,4.14,4.14,0,0,1,.7-2.35l11.32-.4.47-12.65q4.23,0,8.18.18.3,4.11.41,12.13l7.43-.23a3.44,3.44,0,0,1,1.89.69,3.88,3.88,0,0,1,1.42,1.54,2.86,2.86,0,0,1,.18.92c0,.49-.12.78-.35.86q-3.72.57-10.51,1,0,8.48-.35,15.68l3-.11C269.39,50.42,270.36,51.07,271.44,52.36Zm8.48-3.78a2.19,2.19,0,0,1-1,1.66,15.75,15.75,0,0,1-1.36,1.09,5.83,5.83,0,0,1-1.42.8,2.27,2.27,0,0,1-.93.17,4.63,4.63,0,0,1-3.14-1.6,12.56,12.56,0,0,1-2.38-3.23A34.66,34.66,0,0,1,267.84,43a5.22,5.22,0,0,1-.23-1.09c0-.69.43-1.13,1.28-1.32a14.91,14.91,0,0,1,3.08-.28c.61,0,1.61.62,3,1.86a33.31,33.31,0,0,1,3.86,4.15A4.27,4.27,0,0,1,279.92,48.58Z"/></g></g></g></g></svg>