<svg xmlns="http://www.w3.org/2000/svg" viewBox="0 0 92.05 14.55"><defs><style>.cls-1{fill:#fff;}</style></defs><title>zh3</title><g id="图层_2" data-name="图层 2"><g id="字魂"><g id="字魂3号-英雄黑体"><path class="cls-1" d="M17.61,14a6,6,0,0,1-1.73,2.86,10.49,10.49,0,0,1-3.31-1.16,13.09,13.09,0,0,1-2.9-2.13,11.49,11.49,0,0,1-2.93,2.14,10.59,10.59,0,0,1-3.53,1.15A5.31,5.31,0,0,1,1.06,14.1a12,12,0,0,0,3-.4,11.67,11.67,0,0,0,2.55-1A34.08,34.08,0,0,0,2.15,13,9.59,9.59,0,0,1,1.64,12,4.15,4.15,0,0,1,1.42,11l2.13-.11a27.55,27.55,0,0,0-.22-3.38l0-.19v0h1c1.07,0,2.37-.06,3.92-.06l0-1.1,2.34.32a2.86,2.86,0,0,0,.11-.64c-.58,0-1.46,0-2.62,0,0,.36.06.66.09.87A10.46,10.46,0,0,1,7,6.77c-.49,0-.94.05-1.35.05L5,6.8a2.72,2.72,0,0,0,.25-1c-1.3.07-2.29.14-3,.23a3.59,3.59,0,0,1-.72-2q1-.07,3.72-.15V3.8L5,2.51c.53,0,1.1,0,1.72.07a7.08,7.08,0,0,1,1.41.23L8,3.8v.11c.6,0,1.49,0,2.68,0l-.27-1.4c.56,0,1.14,0,1.75.06a6.36,6.36,0,0,1,1.37.22L13.38,4V4l4.12.11a5,5,0,0,1-.22,1.14,4.12,4.12,0,0,1-.47,1,34,34,0,0,0-3.4-.32c0,.3.06.56.1.76a8.75,8.75,0,0,1-1.07.12c-.45,0-.88.05-1.27.05l0,.4c2.38,0,3.94.06,4.66.1a27.66,27.66,0,0,0-.25,3.62l2,.06a4.71,4.71,0,0,1-.21,1.07,6.93,6.93,0,0,1-.5,1.08,33.27,33.27,0,0,0-4.8-.4A13.92,13.92,0,0,0,17.61,14ZM6.14,10.85H8.3l0-1.54-2.15,0ZM11,9.31,11,10.85l2,0c0-.36,0-.88,0-1.56Z" transform="translate(-1.06 -2.26)"/><path class="cls-1" d="M42.2,15.92a54.37,54.37,0,0,0-5.89-.34,2.9,2.9,0,0,0,0,.48,4.16,4.16,0,0,1-1.46.56,6.82,6.82,0,0,1-1.68.14,7.86,7.86,0,0,0,.33-1.54L32,15.94,31.81,15c-.46,0-1.21,0-2.25,0-1.43,0-2.55,0-3.38.1a35.93,35.93,0,0,0,2.4-3.34,20.82,20.82,0,0,0,1.65-3.06,5.26,5.26,0,0,1,2.13,1,12.29,12.29,0,0,1-.9,1.75l1.11-.27L33.65,13V9c-.29.35-.53.61-.7.78A4.74,4.74,0,0,1,31.84,9a6.16,6.16,0,0,1-.95-1,5.61,5.61,0,0,0,1-.84c-.53,0-1,0-1.31,0a11.5,11.5,0,0,1-3.65,5.74,4.67,4.67,0,0,1-1.12-.95,5.48,5.48,0,0,1-.91-1.29,5.19,5.19,0,0,0,1.87-1.39,7.91,7.91,0,0,0,1.36-2.09,10.59,10.59,0,0,0-1.31.08,5.26,5.26,0,0,1-.57-2.13Q27.32,5,28.67,5V4.9l-.44-2.39a15.21,15.21,0,0,1,1.68.22,7.34,7.34,0,0,1,1.5.41l-.29,1.71a.54.54,0,0,1,0,.15q1.74,0,2.34.09a17.4,17.4,0,0,0,.88-1.55,11,11,0,0,0,.57-1.28,4.72,4.72,0,0,1,2.1.61,11.54,11.54,0,0,1-.76,1.94V5H37.6l.31-2.64,3,.74L39.92,5c1.14,0,1.9.05,2.28.07a5.93,5.93,0,0,1-.57,2c-.29,0-.86,0-1.71-.08v.86c1.06,0,1.78,0,2.15.07a6.28,6.28,0,0,1-.59,2c-.28,0-.8,0-1.56-.08v.84c1.06,0,1.78.05,2.15.07a5.9,5.9,0,0,1-.59,2l-1.56-.06v.84c1.3,0,2.25,0,2.85.07A5.7,5.7,0,0,1,42.2,15.92ZM31.43,13.11l-.27-1.2c-.19.33-.44.72-.76,1.18ZM36.21,7v.86h1.43V7Zm1.43,2.85H36.21v.86h1.43Zm0,3.71v-.86H36.21v.86Z" transform="translate(-1.06 -2.26)"/><path class="cls-1" d="M64.58,13.15l1.88,1.9L64.14,16.7l-1.48-2.79,1.35-.8Q61.43,13,58.37,13c-1.61,0-3.14,0-4.6.09l1.43.86L53.73,16.7l-2.32-1.65,1.92-2c-.67,0-1.24.09-1.73.15a3.06,3.06,0,0,1-.39-.81,3.63,3.63,0,0,1-.21-1q1.74-.15,6.72-.15v-.69a42.41,42.41,0,0,0-5.11.29A3.52,3.52,0,0,1,52,9c1-.09,2.92-.14,5.74-.14V8.25c-2.64,0-4.41.07-5.28.13,0-.8,0-1.84-.08-3.14a14.32,14.32,0,0,0-.22-2.47c1.28-.08,3.56-.13,6.84-.13s5.58,0,6.84.13a29.28,29.28,0,0,0-.29,5.61c-.89-.06-2.64-.11-5.26-.13v.6c1.62,0,3.49.06,5.6.12a7.33,7.33,0,0,1-.21,1.08,3.71,3.71,0,0,1-.39.91,36.85,36.85,0,0,0-5-.4v.69c2.86,0,5.11.07,6.74.13a4.42,4.42,0,0,1-.6,2A16.87,16.87,0,0,0,64.58,13.15ZM55,4.83l.62-.33H55A2.63,2.63,0,0,0,55,4.83Zm0,1.63h1.06L55,5.23Zm1.71,6.78,1.86.5L58,16.45l-2.64-.91Zm1-6.8v-2h-.89l.68,1.64-.6.32Zm3.54,6.8,1.29,2.3-2.64.91-.53-2.71Zm-1-6.8h.78l-.61-.32.68-1.64h-.85ZM63,5.38,61.94,6.46h1Zm0-.88h-.81L63,5Z" transform="translate(-1.06 -2.26)"/><path class="cls-1" d="M90.64,9.71a9.93,9.93,0,0,0,2.48,1.46,5.23,5.23,0,0,1-2,2.49l-.59-.44a4.43,4.43,0,0,1-.43,1.43c-.42,0-1.3-.07-2.64-.1l0,.42c0,.43,0,.74.08.93a4.37,4.37,0,0,1-1.46.57,6,6,0,0,1-1.67.15,7.82,7.82,0,0,0,.36-2.07c-1,0-1.83,0-2.55.1a5.68,5.68,0,0,1-.46-1.44l-.53.43a5.1,5.1,0,0,1-1.1-.85,24.71,24.71,0,0,0,.15,3.11,4.58,4.58,0,0,1-1.54.57,6.69,6.69,0,0,1-1.76.15A9.27,9.27,0,0,0,77.36,15a14,14,0,0,0,.1-1.64V9c-.09.08-.32.27-.7.55a5.58,5.58,0,0,1-2.49-2,8.63,8.63,0,0,0,2.1-1.37,15.14,15.14,0,0,0,1.92-1.92,10.77,10.77,0,0,0,1.24-1.74,4.76,4.76,0,0,1,2.25.6,15.58,15.58,0,0,1-1.07,1.9c1-.08,2.36-.14,4-.17l-.26-2.5a9.8,9.8,0,0,1,1.81.2,4.8,4.8,0,0,1,1.59.52l-.23,1.76c2.3.06,4,.13,4.94.23a7.43,7.43,0,0,1-.23,1.44,5.43,5.43,0,0,1-.49,1.26,25.69,25.69,0,0,0-3.67-.4A17.25,17.25,0,0,0,90.64,9.71ZM84.11,7.37A29.72,29.72,0,0,0,81,7.64a6.23,6.23,0,0,1-.64-2.09l-.21.3v5A24.09,24.09,0,0,0,84.11,7.37Zm.76,2.42a17.61,17.61,0,0,1-2.11,2.52c.84,0,1.54,0,2.11,0Zm4.68,2.52a18.31,18.31,0,0,1-2.11-2.52v2.48C88,12.27,88.74,12.29,89.55,12.31Z" transform="translate(-1.06 -2.26)"/></g></g></g></svg>