<svg xmlns="http://www.w3.org/2000/svg" viewBox="0 0 300 80"><defs><style>.cls-1{fill:#fff;}.cls-2{fill:none;}</style></defs><g id="图层_2" data-name="图层 2"><g id="图层_1-2" data-name="图层 1"><g id="英雄黑体"><g id="英雄黑体-2" data-name="英雄黑体"><path class="cls-1" d="M69.38,53.4A18.06,18.06,0,0,1,64.14,62a31,31,0,0,1-10-3.51,39,39,0,0,1-8.77-6.44,34.79,34.79,0,0,1-8.89,6.5A31.43,31.43,0,0,1,25.77,62a15.94,15.94,0,0,1-6.5-8.22,36.06,36.06,0,0,0,9-1.21,37.12,37.12,0,0,0,7.73-3,106.44,106.44,0,0,0-13.4.86A27.52,27.52,0,0,1,21,47.31a11.48,11.48,0,0,1-.67-2.88l6.45-.35a84,84,0,0,0-.69-10.24L26,33.27v-.12h3.05Q33.88,33,40.9,33l-.06-3.33,7.08,1a8.31,8.31,0,0,0,.34-1.95c-1.76,0-4.41-.06-7.93-.06.07,1.11.17,2,.28,2.65a34.27,34.27,0,0,1-3.51.37c-1.49.1-2.85.14-4.08.14-.92,0-1.55,0-1.9-.05a8,8,0,0,0,.75-2.88q-5.86.29-9,.69-1.68-1.84-2.19-6c2-.15,5.75-.31,11.27-.46v-.4l-.86-3.91c1.61,0,3.35.07,5.21.23a20.75,20.75,0,0,1,4.28.69l-.4,3V23c1.8,0,4.51.06,8.11.06l-.8-4.26c1.68,0,3.45.07,5.29.2a18.22,18.22,0,0,1,4.14.67l-.4,3.45v.05c5.67.12,9.84.24,12.48.35a14.56,14.56,0,0,1-.66,3.42,12.55,12.55,0,0,1-1.41,3,95.68,95.68,0,0,0-10.3-1c.08.92.18,1.68.29,2.3a28.81,28.81,0,0,1-3.22.37c-1.38.1-2.67.14-3.85.14L49.82,33q10.82.12,14.09.29a83.24,83.24,0,0,0-.75,11l6,.17a14.26,14.26,0,0,1-.64,3.25A21.08,21.08,0,0,1,67,50.93a101.63,101.63,0,0,0-14.56-1.21A42.71,42.71,0,0,0,69.38,53.4ZM34.63,44h6.56l-.12-4.66-6.5.06Zm14.84-4.66L49.24,44l6,.11q0-1.61.12-4.71Z"/><path class="cls-1" d="M138.06,59.33a160.12,160.12,0,0,0-17.83-1,9.84,9.84,0,0,0,.12,1.44,12.48,12.48,0,0,1-4.41,1.73,20.87,20.87,0,0,1-5.09.4,22.67,22.67,0,0,0,1-4.66l-4.6,2.19-.63-2.88c-1.38-.08-3.65-.12-6.79-.12q-6.51,0-10.24.29a113.5,113.5,0,0,0,7.25-10.09,59.72,59.72,0,0,0,5-9.29,15.62,15.62,0,0,1,6.44,3.1,33.57,33.57,0,0,1-2.7,5.29l3.34-.8,3.28,5.58V38.22a28.68,28.68,0,0,1-2.13,2.36,14.43,14.43,0,0,1-3.34-2.08,17.67,17.67,0,0,1-2.87-3.16,17.33,17.33,0,0,0,3-2.53c-1.61-.08-2.94-.12-4-.12Q99.35,44,91.81,50.07a14.58,14.58,0,0,1-3.39-2.88,16.6,16.6,0,0,1-2.76-3.91,15.87,15.87,0,0,0,5.66-4.2,24.88,24.88,0,0,0,4.12-6.33,32.66,32.66,0,0,0-4,.23,16.19,16.19,0,0,1-1.73-6.44q3.29-.22,7.36-.29V26l-1.32-7.24a43.68,43.68,0,0,1,5.06.66,25.07,25.07,0,0,1,4.55,1.23l-.86,5.18a1.78,1.78,0,0,1-.12.46c3.49.08,5.85.17,7.08.29,1-1.57,1.89-3.14,2.67-4.69a30.41,30.41,0,0,0,1.7-3.88,14.26,14.26,0,0,1,6.38,1.84,35.6,35.6,0,0,1-2.3,5.87v.51h4.2l.92-8,9.21,2.24-3.11,5.87c3.45.08,5.75.15,6.9.23a17.8,17.8,0,0,1-1.72,6c-.88-.08-2.61-.15-5.18-.23v2.59c3.22.08,5.39.15,6.5.23a18.35,18.35,0,0,1-1.78,6c-.85-.08-2.42-.16-4.72-.23v2.53c3.22.08,5.39.15,6.5.23a17.2,17.2,0,0,1-1.78,6l-4.72-.17v2.53c4,.08,6.83.15,8.63.23A16.79,16.79,0,0,1,138.06,59.33Zm-32.61-8.52-.81-3.62c-.57,1-1.34,2.19-2.3,3.57C103.72,50.76,104.76,50.78,105.45,50.81Zm14.49-18.58v2.59h4.32V32.23Zm4.32,8.63h-4.32v2.59h4.32Zm0,11.22V49.49h-4.32v2.59Z"/><path class="cls-1" d="M200.08,50.93l5.69,5.75-7,5-4.48-8.46,4.08-2.42q-7.82-.45-17.08-.46-7.32,0-13.93.29l4.32,2.59-4.43,8.46-7-5L166,50.76c-2,.11-3.78.27-5.23.46a9.71,9.71,0,0,1-1.21-2.48,12.06,12.06,0,0,1-.64-3.16q5.3-.46,20.37-.46V43.05a124.1,124.1,0,0,0-15.48.86,10.56,10.56,0,0,1-1.89-5.64q4.55-.39,17.37-.4V36.09q-12,.12-16,.4,0-3.63-.23-9.49a43.36,43.36,0,0,0-.69-7.48q5.81-.4,20.71-.4t20.71.4q-.87,2.76-.87,17-4-.29-15.93-.4v1.84q7.36.06,17,.34a19.65,19.65,0,0,1-.66,3.28,10.84,10.84,0,0,1-1.18,2.76A107.48,107.48,0,0,0,187,43.11v2.07q13,.1,20.42.4a13.18,13.18,0,0,1-1.84,6C204.76,51.43,202.91,51.2,200.08,50.93ZM171,25.73l1.9-1h-2A6,6,0,0,0,171,25.73Zm.06,4.95h3.22L171,26.94Zm5.17,20.54,5.64,1.49-1.61,8.23-8-2.76Zm3.11-20.6V24.7h-2.7l2.07,4.95-1.84,1ZM190,51.22l3.91,7-8,2.76-1.62-8.23Zm-3-20.6h2.36l-1.84-1,2.07-4.95H187Zm8.22-3.22-3.16,3.28h3.11Zm.06-2.64h-2.47l2.41,1.38Z"/><path class="cls-1" d="M273.22,40.52A30.59,30.59,0,0,0,280.73,45a15.76,15.76,0,0,1-6,7.53L273,51.16a12.86,12.86,0,0,1-1.32,4.31c-1.27-.11-3.93-.21-8-.28l.12,1.26c.08,1.31.15,2.25.23,2.82A14.13,14.13,0,0,1,259.56,61a19.59,19.59,0,0,1-5.06.46,23.4,23.4,0,0,0,1.09-6.27q-4.43.06-7.71.28a16.56,16.56,0,0,1-1.38-4.37l-1.61,1.33a15.65,15.65,0,0,1-3.34-2.59,75.69,75.69,0,0,0,.46,9.43A14.81,14.81,0,0,1,237.35,61a22,22,0,0,1-5.35.46,27.94,27.94,0,0,0,1-4.92,42.72,42.72,0,0,0,.32-5V38.45a25.85,25.85,0,0,1-2.13,1.67,16.94,16.94,0,0,1-7.54-6A26.84,26.84,0,0,0,230,29.93a48.29,48.29,0,0,0,5.81-5.81,32.75,32.75,0,0,0,3.77-5.29,14.42,14.42,0,0,1,6.79,1.84,46.18,46.18,0,0,1-3.23,5.75c3.11-.26,7.16-.44,12.14-.51l-.8-7.6A29.74,29.74,0,0,1,260,19a15,15,0,0,1,4.8,1.55l-.69,5.35q10.47.22,15,.69a22.37,22.37,0,0,1-.69,4.34,15.69,15.69,0,0,1-1.49,3.83,78.18,78.18,0,0,0-11.11-1.21A53.83,53.83,0,0,0,273.22,40.52Zm-19.76-7.08a87.83,87.83,0,0,0-9.32.81,18.79,18.79,0,0,1-1.95-6.33l-.64.92V43.91A72.29,72.29,0,0,0,253.46,33.44Zm2.3,7.31a56,56,0,0,1-6.38,7.65q3.8-.12,6.38-.12Zm14.15,7.65a54.84,54.84,0,0,1-6.38-7.65v7.53Q266.23,48.28,269.91,48.4Z"/></g><rect class="cls-2" width="300" height="80"/></g></g></g></svg>