<svg xmlns="http://www.w3.org/2000/svg" viewBox="0 0 300 80"><defs><style>.cls-1{fill:#fff;}.cls-2{fill:none;}</style></defs><g id="图层_2" data-name="图层 2"><g id="图层_1-2" data-name="图层 1"><g id="经典黑体"><g id="经典黑体-2" data-name="经典黑体"><path class="cls-1" d="M41.18,18l-7.63,15.2h7.63v2.56l-7.63,15.2h7.63v2.56H26V50.93l7.62-15.2H26V33.17L33.55,18ZM26,61.06v-2.5h15.2v2.5ZM42,40.75l-.82-1.64A39.68,39.68,0,0,0,58.89,22.17h-16V19.66H66.51v2.51a34.18,34.18,0,0,1-6.37,9.36l9.75,8.4H60.63l-5.12-4.39Q48.57,40.46,42,40.75ZM58.89,45V58.56H69.07v2.5H42v-2.5H52.13V45H43.69V42.49H67.38V45Z"/><path class="cls-1" d="M124.42,23.09h10.14V46.73h3.37v2.51H94V46.73H97.4V23.09h10.13V18h6.76v5.07h3.38V18h6.75ZM99.81,60.29a13.31,13.31,0,0,1-5,1.64L94,60.29A31,31,0,0,0,99.91,51h6.75A14,14,0,0,1,99.81,60.29Zm4.35-25.38h3.37V25.64h-3.37Zm3.37,11.82V37.42h-3.37v9.31Zm6.76-11.82h3.38V25.64h-3.38Zm3.38,11.82V37.42h-3.38v9.31ZM127.8,25.64h-3.38v9.27h3.38Zm-3.38,21.09h3.38V37.42h-3.38ZM132.05,51h-7.14l5.88,10.13h7.14Z"/><path class="cls-1" d="M204.29,37.52H187.4v4.24h16.89v2.56H187.4v4.2H206v2.55H162.06V48.52h18.58v-4.2H163.71V41.76h16.93V37.52H163.71V19.81h40.58Zm-37.5,23.4a8.3,8.3,0,0,1-3.9,1.11l-.83-1.64a28.08,28.08,0,0,0,2.51-7.67h6.76Q170.85,58.51,166.79,60.92ZM170.46,35h10.18V22.31H170.46Zm9.31-1.69H173L171.33,24h6.76ZM184,61.21h-6.75l-2.56-8.49h6.75Zm11,0h-6.76l-2.51-8.49h6.76Zm2.55-38.9H187.4V35h10.13Zm-9.31,11H195L196.71,24H190ZM206,61.21h-6.76l-2.51-8.49h6.76Z"/><path class="cls-1" d="M238.07,29.84h3V61.93h-6.75V32.16a14.18,14.18,0,0,1-3.38,1.06l-.82-1.69A32.92,32.92,0,0,0,237.68,18h6.76Q243.14,25.75,238.07,29.84Zm14.82-1.69a107.87,107.87,0,0,1-2.08,17.66q-2.51,11.88-7.33,16.12l-1.55-1.25a122.71,122.71,0,0,0,4.2-32.53h-4.2V25.64h12.69V18h6.76v7.62H274v2.51h-4.2A122.71,122.71,0,0,0,274,60.68l-1.54,1.25Q264,54.46,263,28.15h-1.64V54.36h5v2.55h-5v5h-6.76v-5h-5.11V54.36h5.11V28.15Z"/></g><rect class="cls-2" width="300" height="80"/></g></g></g></svg>