<svg xmlns="http://www.w3.org/2000/svg" viewBox="0 0 300 80"><defs><style>.cls-1{fill:#fff;}.cls-2{fill:none;}</style></defs><g id="图层_2" data-name="图层 2"><g id="图层_1-2" data-name="图层 1"><g id="冰宇雅宋"><g id="冰宇雅宋-2" data-name="冰宇雅宋"><path class="cls-1" d="M28,52c-.26.51-.58.77-1,.77s-.73-.26-1-.77l-2.7-4.64.58-.72,1.69.92,8.2-11.44,1.11.63Zm1.84-20.08L25.15,21.61l.91-.67A64.77,64.77,0,0,1,32,26.34a2.18,2.18,0,0,1,.67,1.5,1.13,1.13,0,0,1-.19.72A16,16,0,0,1,29.88,31.94Zm13.36,2.8a46.46,46.46,0,0,1-4.77,14.43,34.66,34.66,0,0,1-9.66,10.62l-.86-1A58,58,0,0,0,33.45,51a38.05,38.05,0,0,0,3.37-7.75A72.79,72.79,0,0,0,39,33.73L33.4,34,33,32.81l5.89-.24,1.4-1.88,4.39,2.55A2.45,2.45,0,0,1,43.24,34.74ZM63.9,55.69l-.39,1a18.63,18.63,0,0,0-3.18.14,11.59,11.59,0,0,0-2.66.78,60.85,60.85,0,0,1-8.15-19.26V55.73a8.64,8.64,0,0,1-.77,4A5.73,5.73,0,0,1,46,62.1a26.52,26.52,0,0,0-7.28-5.64l.38-1.11L45,56.41V17.56l5.6,1-1.06,1.26V31.46c.7,2.06,1.3,3.68,1.78,4.87q2-2.61,3.45-4.68c1-1.38,2.09-3,3.31-5l4.1,4.1L60.62,31c-1.55,1.42-2.84,2.51-3.89,3.29s-2.68,1.88-4.9,3.33Q56.71,49.42,63.9,55.69Z"/><path class="cls-1" d="M133.74,26.34a3.61,3.61,0,0,1-2.27,1.5L128,31.46,126.89,31l1-4.92-26.3.72a15.1,15.1,0,0,1-2.17,6.76l-1.06-1.16a16.34,16.34,0,0,1-1.26-1.35,1,1,0,0,1-.29-.72,1.44,1.44,0,0,1,.29-.87,32.26,32.26,0,0,0,3.52-7l1.16.15c0,.74,0,1.75-.09,3l12.74-.29L110.82,18l1-.62a37.77,37.77,0,0,1,4.92,3.71,1.63,1.63,0,0,1,.58,1.11,1.37,1.37,0,0,1-.14.58A11,11,0,0,1,115,25.33l12.5-.34,1.5-1.83Zm-4,14.14,3.28,2a5.25,5.25,0,0,1-3.37,1.31l-12.75.33V57a6,6,0,0,1-.89,3.5,6.54,6.54,0,0,1-2.87,2.14q-2-2.9-7-5.5l.29-1.11,5.79,1V44.2l-14.91.39-.14-1.16L112.26,43V34.69L102.18,35l-.24-1.16,20.51-.43,1.64-2,3.38,1.88a3.2,3.2,0,0,1-1.28.92,6,6,0,0,1-2.2.24l-11.34.29,5.26.87-1,1.25v6.13l11.15-.29Z"/><path class="cls-1" d="M206.08,55a2.5,2.5,0,0,1-1.16.77,8.67,8.67,0,0,1-1.84.34l-12,.43v.24a5.44,5.44,0,0,1-1.14,3.41,6.88,6.88,0,0,1-3.3,2V36c-1.1,2-2.38,4.2-3.86,6.52l-1-.58L183.49,37a6,6,0,0,1-1.45.19l-1.06,0v19.3a6.93,6.93,0,0,1-.82,3.45,4,4,0,0,1-2.32,2,21.4,21.4,0,0,0-2.72-2.58,33.68,33.68,0,0,0-3.74-2.54l.48-1.11,4.78,1.06v-13a31.71,31.71,0,0,1-4,6.13,72.05,72.05,0,0,1-6.27,6.57l-.63-1.16q3.53-5.31,5.28-8.64c1.18-2.22,2.58-5.28,4.23-9.17l-3.33.14v.1l-1.11,3.09-4-1.55,1-2.7,1.59-9.31,4.93,1.16-1.06,1.15-1.21,7,4.49-.29V24.22l-8.83.43-.39-1.15,13.08-.68,1.59-1.93,3.38,1.88a3.93,3.93,0,0,1-1.38.92A6.24,6.24,0,0,1,182,24l-5.26.24,5.21,1L181,26.39v9.7h.19l1.16-1.64,1.69,1a180.91,180.91,0,0,0,5.07-17.71l5.07,2L193,20.6A71.92,71.92,0,0,1,190,29.09l11.82-.33L203,27l2.84,1.69a4.16,4.16,0,0,1-3,1.16l-6.66.19,4.2.87-.87,1.06v5.21l1.5-.09,1-1.74,2.7,1.69a4,4,0,0,1-3,1.16l-2.22.09V45.6l1.64-.1,1.16-1.64L205,45.5a2.87,2.87,0,0,1-1.23.82,6.25,6.25,0,0,1-1.76.29l-2.51.1V55.2l2.56-.09,1.21-1.74ZM195.17,30.06l-4.1.14v7.34l4.1-.19Zm0,8.4-4.1.14v7.34l4.1-.15Zm-4.1,17,4.1-.14v-8.5l-4.1.15Zm6.13-26.88-2-10.09,1-.43a29.76,29.76,0,0,1,3.91,6.23,2.42,2.42,0,0,1,.29,1.06,1.44,1.44,0,0,1-.29.87A9.65,9.65,0,0,1,197.2,28.61Z"/><path class="cls-1" d="M275.64,55l-.19,1.21a15,15,0,0,0-3.38.53,10.46,10.46,0,0,0-2.66,1.3,57.61,57.61,0,0,1-11.19-15.3v15A4.68,4.68,0,0,1,257,61a5.4,5.4,0,0,1-3.5,1.66v-17q-5.9,8.35-16.8,14.09l-.82-1A85.91,85.91,0,0,0,245.43,49a59.11,59.11,0,0,0,6.32-9.14l-13.08.28L238.19,39l15.3-.34V30.06l5.64,1.06-.91,1.4v6l9.75-.24,1.59-2,3.38,1.64a4.45,4.45,0,0,1-3.53,1.5l-10.85.24Q267.25,50.72,275.64,55ZM240.46,33.63a13.07,13.07,0,0,1-1.4-1.54,1.4,1.4,0,0,1-.29-.83,1.14,1.14,0,0,1,.29-.82,27,27,0,0,0,3.67-6.85l1.2.1c0,1.25,0,2.15-.05,2.7l11.88-.29-3.28-7.82,1.1-.67a27.41,27.41,0,0,1,4.73,4.15,1.6,1.6,0,0,1,.49,1.11,1.39,1.39,0,0,1-.15.63,13.37,13.37,0,0,1-2.27,2.6l11.39-.29,1.5-1.83L274,27.21a3.81,3.81,0,0,1-2.22,1.45l-4.63,4.78-1-.58,2-5.89-24.32.58a15,15,0,0,1-2.32,7.09Z"/></g><rect class="cls-2" width="300" height="80"/></g></g></g></svg>