<svg xmlns="http://www.w3.org/2000/svg" viewBox="0 0 300 80"><defs><style>.cls-1{fill:#fff;}.cls-2{fill:none;}</style></defs><g id="图层_2" data-name="图层 2"><g id="图层_1-2" data-name="图层 1"><g id="创粗黑"><g id="创粗黑-2" data-name="创粗黑"><path class="cls-1" d="M40,36.29q-3.63-2.91-7.8-11.08H28.38a46.85,46.85,0,0,1-3.16,5.61,27.23,27.23,0,0,1-4.64,5.42l-2.65-3a30.75,30.75,0,0,0,7.31-10.76,1.72,1.72,0,0,1,.7-.94,1.93,1.93,0,0,1,1.14-.36h6.41a2.05,2.05,0,0,1,1.08.31,1.8,1.8,0,0,1,.72.9,63.76,63.76,0,0,0,3.38,6.24,21.51,21.51,0,0,0,3.84,4.57ZM34.52,59.57H27.3a5.18,5.18,0,0,1-3.05-.86,5.23,5.23,0,0,1-1.77-2.1,6.1,6.1,0,0,1-.56-2.47V35.84a1.91,1.91,0,0,1,2-2H36.41a1.91,1.91,0,0,1,1.39.56,1.86,1.86,0,0,1,.58,1.41v8.34a5,5,0,0,1-1.3,3.55A8.31,8.31,0,0,1,34,49.81a12.82,12.82,0,0,1-3.56.83l-.27-4c.9-.15,1.59-.28,2.08-.4a3.7,3.7,0,0,0,1.42-.7,2.07,2.07,0,0,0,.8-1.41V37.77H25.82V54.14a1.34,1.34,0,0,0,1.48,1.48h7.22a3.47,3.47,0,0,0,2.13-.72,5,5,0,0,0,1.51-1.79l3.54,1.7a9.2,9.2,0,0,1-3,3.45A6.92,6.92,0,0,1,34.52,59.57Zm9.15-35.39h3.95V51.45H43.67Zm2.56,35.39-.31-4a13.57,13.57,0,0,0,4.41-1.3,3.43,3.43,0,0,0,2-3V20.64h3.95V51.31a6.38,6.38,0,0,1-1.66,4.53,10.25,10.25,0,0,1-4,2.67A16.6,16.6,0,0,1,46.23,59.57Z"/><path class="cls-1" d="M130.66,48.85c.33-3,.66-6.57,1-10.72l3.94.22a176.51,176.51,0,0,1-2.47,20.23l-3.85-.81Q130.17,53.33,130.66,48.85ZM132.23,32l-2.87-8.11L133,22.52,136,30.64Zm7.89,12.25V60.6h-3.9V36.92h-6.55V33h6.55v-13h3.9V33h6.55v3.91h-6.55V38l7.31,9-3.05,2.51ZM144.2,32l-3.72-1.34,2.87-8.12,3.72,1.35Zm26.06,23.5v4H144.38v-4h3.9V24.18a2,2,0,0,1,.56-1.39,1.83,1.83,0,0,1,1.37-.58h15.16a1.86,1.86,0,0,1,1.41.58,1.91,1.91,0,0,1,.56,1.39v31.3ZM152.19,26.15V33h11.25V26.15Zm11.25,10.77H152.19V44.5h11.25ZM152.19,55.48h11.25v-7H152.19Z"/><path class="cls-1" d="M278.27,46.47v4H237.82v-4h18.25v-2.2H240.6V40.33h15.47V38H243.2a2,2,0,0,1-1.41-.56,1.79,1.79,0,0,1-.61-1.37V23.42a1.84,1.84,0,0,1,.61-1.39,2,2,0,0,1,1.41-.59h29.73a2,2,0,0,1,2,2V36a1.84,1.84,0,0,1-.59,1.37,1.93,1.93,0,0,1-1.39.56H260v2.38h15.47v3.94H260v2.2Zm-36,4.89L245.89,53l-3.45,7.49-3.59-1.66Zm13.77-17.31V25.44h-10.9v8.61ZM254,32.34l-3.63,1.39L248,27.45l3.63-1.39Zm-.72,19.2,2.6,7.53-3.72,1.26-2.6-7.54Zm10.18,0,2.92,7.45-3.64,1.43-3-7.44Zm7.54-26H260v8.61h11Zm-8.93,6.9,2.38-6.28,3.67,1.39-2.37,6.28Zm11.8,19.06L277,58.94l-3.68,1.52-3-7.53Z"/></g><rect class="cls-2" width="300" height="80"/></g></g></g></svg>