<svg xmlns="http://www.w3.org/2000/svg" viewBox="0 0 61.69 18.22"><defs><style>.cls-1{fill:#fff;}</style></defs><title>zh78</title><g id="图层_2" data-name="图层 2"><g id="字魂"><g id="字魂78号-空灵体"><path class="cls-1" d="M5.19,4A1.52,1.52,0,0,1,5,3.33c0-.07,0-.11.07-.12h.14a.54.54,0,0,1,.55.4l.2.76.12.44a1.67,1.67,0,0,0,.11.55c.14,1.06.24,2.06.29,3v.17a3,3,0,0,1,0,.5.24.24,0,0,1-.09.15.19.19,0,0,1-.14.05A.47.47,0,0,1,5.81,9a1.53,1.53,0,0,1-.15-.53L5.4,4.69A2,2,0,0,0,5.19,4Zm2.68,7c-.4,0-.59-.12-.59-.38,0-.09,0-.13.07-.13l1.56-.13.59-.08a3,3,0,0,1,.44-.08c.15,0,.31-.06.48-.1l.39-.09a.74.74,0,0,0,.36-.19.74.74,0,0,1,.38-.15c.08,0,.12.06.12.17a.41.41,0,0,1-.19.33c-.16.1-.35.2-.57.32l-.16,0a1.16,1.16,0,0,0-.22.13q-.18.09-.18.21c0,.08,0,.18,0,.32a4.11,4.11,0,0,1,0,.53l0,.8,0,1.62,0,1.61h.22l3.73-.36h.83a2.06,2.06,0,0,1,.36.11c.13.11.19.18.19.21v0c0,.18-.18.32-.43.42a4.13,4.13,0,0,1-.74.17l-4.45.5-.07.05,0,0-.06,0H9.79a.34.34,0,0,1-.27-.08H9.18l-1.77,0a15.12,15.12,0,0,1-1.88-.11.52.52,0,0,1-.19-.34c0-.17.16-.25.47-.25l3.29-.27c.22,0,.35-.08.4-.15s.11-.16.11-.36V15l.22-3.76v-.36l0,0h0l-.59,0-.55,0H8.28A1.27,1.27,0,0,1,7.87,11ZM6.57,9l.29-.43.82-1.85A9.77,9.77,0,0,1,8.06,5.6c.15-.39.32-.58.51-.58s.18,0,.19.07v.15a3.06,3.06,0,0,1-.13.84L8.06,8a1.62,1.62,0,0,0-.14.27,3.2,3.2,0,0,1-.19.36,2.54,2.54,0,0,0-.28.8,8.11,8.11,0,0,1-.7,1.23,3,3,0,0,1-.42.4.72.72,0,0,1-.42.13.36.36,0,0,1-.24-.07.25.25,0,0,1-.08-.21A4.6,4.6,0,0,1,6.57,9ZM8.06,4.35l2.22-.78a.44.44,0,0,0,.26-.09l.54-.17A5.13,5.13,0,0,1,12.54,3a1.34,1.34,0,0,1,.61.14.48.48,0,0,1,.28.45,1,1,0,0,1-.07.44,2.17,2.17,0,0,1-.34.45A13.58,13.58,0,0,1,11.25,6.1h-.06c-.13,0-.19,0-.19,0V5.91a16.15,16.15,0,0,0,1.46-1.52l.16-.21a.38.38,0,0,0,.11-.25.09.09,0,0,0,0-.06.11.11,0,0,0-.08,0,1.57,1.57,0,0,0-.35.06L11.93,4a2.34,2.34,0,0,1-.53.11l-2.28.61-.53.12c-.8.11-1.3.17-1.5.17a1.36,1.36,0,0,1-.53-.08.61.61,0,0,1-.4-.21v0c0-.16.09-.24.28-.24a1.53,1.53,0,0,1,.34,0h.36A2.6,2.6,0,0,0,8.06,4.35Zm1.19-2c-.31-.22-.47-.38-.47-.48s0-.23.13-.23a2.55,2.55,0,0,1,1.29.4,3.64,3.64,0,0,1,1.05,1V3c0,.06-.07.1-.19.1H11a3.14,3.14,0,0,1-.74-.25A6.41,6.41,0,0,1,9.25,2.36Zm1,4.63a6.62,6.62,0,0,1-.56-.43c-.14-.12-.22-.19-.22-.23s.05-.1.14-.17a.41.41,0,0,1,.19-.06h0l1.31.68.57.31,1.16.59.15.07.15.21a.4.4,0,0,1,.06.25c0,.25-.11.38-.33.38a3.74,3.74,0,0,1-1-.51A17.66,17.66,0,0,1,10.22,7Z" transform="translate(-5.02 -1.22)"/><path class="cls-1" d="M39.9,16.78a.63.63,0,0,1,.23.47.27.27,0,0,1-.15.23.59.59,0,0,1-.31.13c-.09,0-.14,0-.15,0a4.8,4.8,0,0,1-.46-.3L38.57,17l-.87-.72a8.24,8.24,0,0,1-1.09-.8,14.16,14.16,0,0,0-1.4-1A2.58,2.58,0,0,0,34,14.12c-.06,0-.14.08-.23.24a2,2,0,0,0-.15.32,2.63,2.63,0,0,1-.15.33,12.12,12.12,0,0,1-1.12,2,1.64,1.64,0,0,1-1.37.8H30.8c-.32,0-.48-.08-.48-.25s.12-.14.35-.24a.89.89,0,0,0,.36-.15,9.16,9.16,0,0,0,1.57-2.27,16.52,16.52,0,0,0,1.22-3,8.76,8.76,0,0,0,.48-2.62V9.1L34.22,9V8.66c0-.05.08-.07.25-.07s.28.13.36.4a4,4,0,0,1,.07.78A6.64,6.64,0,0,1,34.81,11l-.32,1.43-.18.45a1.91,1.91,0,0,0-.17.69s0,0,.06,0h0l.32-.2.33-.21a7.77,7.77,0,0,0,.83-.67,6.7,6.7,0,0,0,.63-.7l.25-.4a1.76,1.76,0,0,0,.22-.46,1.22,1.22,0,0,0,.08-.43,3.59,3.59,0,0,0,0-.4,1.59,1.59,0,0,1,0-.36.44.44,0,0,0-.28-.27,1.27,1.27,0,0,0-.44-.13A.15.15,0,0,1,36,9.22v-.1c0-.13.09-.19.27-.19h0l.51.1a.83.83,0,0,1,.59.6,3.34,3.34,0,0,1,.17,1A2.23,2.23,0,0,1,37,12.07a16,16,0,0,1-1.44,1.51l-.21.2c-.08.06-.12.1-.12.11l0,0a5.19,5.19,0,0,1,.57.24l.4.25a10.58,10.58,0,0,0,.95.48l1.45,1a2.35,2.35,0,0,0,.6.42A2.44,2.44,0,0,1,39.9,16.78ZM31.16,9.37q.19,0,.21.09l.21,1.18.09.51a5.8,5.8,0,0,1,.25,1l.1.8c0,.07.07.14.19.19s.17.07.17.11a.2.2,0,0,1-.06.15s0,.12-.06.27a1.31,1.31,0,0,1-.09.28,1.66,1.66,0,0,1-.19.19h-.17a.36.36,0,0,1-.36-.17.66.66,0,0,1-.16-.36l-.09-.26-.27-3.16V9.88C30.93,9.54,31,9.37,31.16,9.37Zm0-1.22a.45.45,0,0,1,.11-.28,1.12,1.12,0,0,1,.21-.29.33.33,0,0,1,.14,0,.18.18,0,0,1,.19.17c0,.12.05.17.09.17a1.12,1.12,0,0,0,.5-.09L35.55,7,36,6.82l.47-.25a3.21,3.21,0,0,1,.71-.28c.06,0,.09,0,.09.08a.74.74,0,0,1-.38.64,6,6,0,0,1-1.06.53l-.54.23-1.1.4-.27.06-.47.11a7.18,7.18,0,0,1-1.59.27.85.85,0,0,1-.5-.1A.37.37,0,0,1,31.16,8.15Zm0-6.59a.25.25,0,0,1,.15-.21l.15-.13h.06c.06,0,.14.05.23.17a.24.24,0,0,0,.24.15,7.92,7.92,0,0,0,1.49.15h.13L36,1.5h.11a.93.93,0,0,1,.82.36,2.91,2.91,0,0,1,.3,1v.47A10.29,10.29,0,0,1,37,5.49c-.15.72-.49,1.08-1,1.08h-.12l-.27-.24a.24.24,0,0,1,0-.14L36,5.47a2.19,2.19,0,0,0,.41-1.08s0-.06-.09-.06A5.81,5.81,0,0,0,35,4.54a6,6,0,0,1-1.43.23,3.37,3.37,0,0,1-.68-.06,1.42,1.42,0,0,1-.55-.21.41.41,0,0,1-.17-.32c0-.11,0-.18.11-.19l1.14,0a18.59,18.59,0,0,0,2.76-.17c.19,0,.3-.11.34-.21a.8.8,0,0,0,.07-.36c0-.1,0-.22,0-.34a3,3,0,0,0,0-.6c0-.15-.08-.22-.13-.22h-.34l-.91.15h-.09l-1.35.15h-.1a6.64,6.64,0,0,1-1.9-.34,1.44,1.44,0,0,1-.32-.21A.5.5,0,0,1,31.2,1.56Z" transform="translate(-5.02 -1.22)"/><path class="cls-1" d="M66.71,8.13v.25s0,.08-.15.17a.36.36,0,0,1-.23.13.54.54,0,0,1-.25-.09.56.56,0,0,0-.3-.1,2.63,2.63,0,0,0-.59.14,2.21,2.21,0,0,1-.49.13h-.12l0-.08s0-.11.12-.19l.28-.17c.14-.05.21-.11.21-.17A4.86,4.86,0,0,0,64,7.58a7.88,7.88,0,0,0-1.38-.49h0l0,.13,0,2.49v.44l0,0,.11,0,.71-.29,1-.36a2.45,2.45,0,0,1,.78-.13c.14,0,.23,0,.27.07a.52.52,0,0,1,0,.29c0,.23-.17.41-.51.55a8.85,8.85,0,0,1-1.46.49l-.12,0-.28.08a2.27,2.27,0,0,0-.48.15c-.1.06-.15.11-.15.13l-.15,7.6a.77.77,0,0,1-.13.5.7.7,0,0,1-.5.17c-.27,0-.49-.2-.64-.59a7.18,7.18,0,0,1-.33-1.33l-.19-1.33-.38-4.71v0h0l-.21,0h0l-.32,0a.91.91,0,0,0-.33,0l-.61-.12-.19-.09c-.1-.06-.15-.11-.15-.13v-.31a.28.28,0,0,1,.08-.15.33.33,0,0,1,.13-.08h0a.25.25,0,0,1,.17.08.22.22,0,0,0,.17.09h.34c.61,0,1.14,0,1.6-.05a1.26,1.26,0,0,0,.86-.4l.07-3V6.9l0,0a3.05,3.05,0,0,0-1.36-.15.3.3,0,0,0-.23.07.6.6,0,0,0-.17.21l-2.42,3.59-.19.23-.57.61-.36.17c-.21.08-.32.16-.32.25a.1.1,0,0,0,.09.11c.05,0,.08,0,.08.06v.21l-.38,1.9-.06,1.19a.36.36,0,0,1-.13.21.5.5,0,0,1-.28.1A.62.62,0,0,1,55,15.5a.78.78,0,0,1-.19-.32.92.92,0,0,1,.08-.4l.34-3.63V11a2.1,2.1,0,0,1,0-.32,2.16,2.16,0,0,1,.06-.29l.07-.42,0-.51,0-.72c0-.53,0-.89,0-1.08,0-.6,0-1.23-.08-1.88a4.19,4.19,0,0,0-.09-.42c0-.21-.1-.39-.15-.55-.09-.35-.22-.52-.38-.52h0a9.88,9.88,0,0,1-1.14.8,1.47,1.47,0,0,0-.31.17,1.86,1.86,0,0,1-.3.17l-.23,0h-.4c-.1,0-.19-.14-.28-.42L52.16,5a2.2,2.2,0,0,0,1.34-.7L54,3.69a.74.74,0,0,0,.43-.16,2.81,2.81,0,0,0,.46-.34L55.2,3a1.87,1.87,0,0,1,.45-.22L56.79,2a2.34,2.34,0,0,1,.65-.33,1.65,1.65,0,0,1,.66-.13h.08a.53.53,0,0,1,.09.11.42.42,0,0,1,0,.17v0A.37.37,0,0,1,58,2a.81.81,0,0,0-.24.08l-.65.4L55.27,3.91A.15.15,0,0,0,55.2,4v0a3.94,3.94,0,0,1,.26.45l.25.5a1.14,1.14,0,0,0,.53-.25l.34-.25,1.5-.76,3.25-1.31.15,0c.06,0,.08-.05.08-.11l0-.48V1.63a.89.89,0,0,1,.17-.2.49.49,0,0,1,.23-.06,6.77,6.77,0,0,1,.85.06c.33.07.5.18.5.32V2a.26.26,0,0,1-.13.25,3.24,3.24,0,0,1-.44.21,2,2,0,0,0-.32.15c-.11.07-.16.13-.16.19a4.5,4.5,0,0,0,.14,1l.11,2v.33a.77.77,0,0,0,.08.4,7.78,7.78,0,0,1,1.12.3L65,7.35a12.51,12.51,0,0,0,1.35.52.56.56,0,0,1,.19.09C66.67,8,66.71,8.09,66.71,8.13Zm-5-4.29,0-.57,0-.25h-.09L57.87,4.56a3.09,3.09,0,0,1-.57.27L56.79,5a2.3,2.3,0,0,0-.64.34c-.17.1-.25.17-.25.22l.06.18.15,1.1a15.45,15.45,0,0,1,.11,2.2l0,.86,0,.87v.06a1.29,1.29,0,0,0,.28-.25l.13-.14a.6.6,0,0,1,.12-.11l.81-1L58,8.76A9.11,9.11,0,0,0,59.15,7a.24.24,0,0,0,0-.09s0-.05,0-.08l0-.15a2.12,2.12,0,0,1,.38-.32A2.76,2.76,0,0,0,60,5.83l1.07-1.29a.27.27,0,0,1,.22-.15.1.1,0,0,1,.1.09.54.54,0,0,1,0,.18.43.43,0,0,1-.06.24s0,.08-.06.11a.1.1,0,0,1-.05.06l-.4.61L60.63,6l-.15.19,0,.06v0l0,0,.53,0,.63,0h.07l0,0V5.07C61.73,4.47,61.72,4.05,61.71,3.84Zm-.13,7.47,0,0a3.07,3.07,0,0,0-.61.07,1.79,1.79,0,0,0-.45.14v.19l.13,1,0,.1.32,2.6c0,.23.09.46.12.71a1.58,1.58,0,0,1,0,.25c0,.1,0,.2.06.32l0,.05v0l0,.06v0l0,.11a.83.83,0,0,0,.11-.51l0-.65.25-4.33v-.11Zm1.27-9.47c0-.07-.07-.11-.21-.11H62.4l-.17,0c-.12,0-.18,0-.18.13a1.31,1.31,0,0,0,0,.27s0,0,.06,0A1.45,1.45,0,0,0,62.57,2C62.76,1.94,62.85,1.88,62.85,1.84Z" transform="translate(-5.02 -1.22)"/></g></g></g></svg>