<svg xmlns="http://www.w3.org/2000/svg" viewBox="0 0 300 80"><defs><style>.cls-1{fill:#fff;}.cls-2{fill:none;}</style></defs><g id="图层_2" data-name="图层 2"><g id="图层_1-2" data-name="图层 1"><g id="空灵体"><path class="cls-1" d="M27.39,25.24a3.7,3.7,0,0,1-.4-1.6.24.24,0,0,1,.18-.27h.31a1.26,1.26,0,0,1,1.29.94c.08.26.25.86.48,1.77l.27,1a4,4,0,0,0,.27,1.29q.48,3.73.66,7v.39A8.17,8.17,0,0,1,30.36,37a.54.54,0,0,1-.2.35.49.49,0,0,1-.33.14,1.09,1.09,0,0,1-1-.67,3.22,3.22,0,0,1-.35-1.24l-.62-8.7A4.82,4.82,0,0,0,27.39,25.24Zm6.26,16.29c-.92,0-1.38-.29-1.38-.89,0-.2.06-.31.18-.31L36.09,40l1.38-.18a9.46,9.46,0,0,1,1-.17c.35-.06.73-.14,1.13-.25s.7-.17.91-.2a2,2,0,0,0,.84-.44,1.72,1.72,0,0,1,.89-.36c.18,0,.27.14.27.4a.91.91,0,0,1-.45.76,10.89,10.89,0,0,1-1.33.75l-.35.09a2.32,2.32,0,0,0-.54.31c-.26.15-.4.31-.4.49s0,.43,0,.76,0,.74,0,1.24l.05,1.86-.09,3.78-.09,3.77H40l8.7-.84h2a4.52,4.52,0,0,1,.84.26c.3.24.44.4.44.49v.05a1.46,1.46,0,0,1-1,1,8.78,8.78,0,0,1-1.73.4L38.75,55.12l-.17.13-.09,0a.26.26,0,0,1-.14.09h-.22a.87.87,0,0,1-.62-.18h-.8l-4.13,0A32.3,32.3,0,0,1,28.19,55a1.2,1.2,0,0,1-.45-.8q0-.57,1.11-.57L36.53,53a1.6,1.6,0,0,0,.94-.35c.17-.09.26-.37.26-.84l0-.8.53-8.79v-.85l0-.09h-.09l-1.38.05-1.29.09a6.58,6.58,0,0,0-.8,0A3.45,3.45,0,0,1,33.65,41.53Zm-3-4.53.67-1,1.9-4.3c.09-.42.39-1.32.89-2.71q.54-1.38,1.2-1.38c.27,0,.42.06.44.18v.35a6.32,6.32,0,0,1-.31,2l-1.33,4.44a5.87,5.87,0,0,0-.31.62,6.83,6.83,0,0,1-.44.84,6.08,6.08,0,0,0-.67,1.87A19.4,19.4,0,0,1,31,40.73a5.55,5.55,0,0,1-1,.94,1.69,1.69,0,0,1-1,.31.8.8,0,0,1-.56-.18.63.63,0,0,1-.2-.49Q28.32,40.2,30.63,37Zm3.46-11,5.2-1.82a1.32,1.32,0,0,0,.62-.22l1.24-.4a12.39,12.39,0,0,1,3.42-.71A3.12,3.12,0,0,1,46,23.2a1.14,1.14,0,0,1,.67,1.06,2.1,2.1,0,0,1-.18,1,4.45,4.45,0,0,1-.8,1.07,31.3,31.3,0,0,1-4.13,3.77h-.13Q41,30.12,41,30v-.35a38.42,38.42,0,0,0,3.42-3.55l.36-.49a.83.83,0,0,0,.26-.58.2.2,0,0,0-.06-.15.26.26,0,0,0-.2-.07A3.47,3.47,0,0,0,44,25c-.36.09-.62.17-.8.23a8.28,8.28,0,0,1-1.24.26l-5.33,1.42-1.24.27c-1.87.26-3,.4-3.51.4a3.17,3.17,0,0,1-1.24-.18,1.52,1.52,0,0,1-.94-.49v0c0-.39.23-.58.67-.58a7.33,7.33,0,0,1,.8,0,7.36,7.36,0,0,0,3-.26Zm2.8-4.66q-1.11-.76-1.11-1.11c0-.36.1-.54.31-.54a5.9,5.9,0,0,1,3,.94,8.57,8.57,0,0,1,2.44,2.22v0c0,.15-.15.22-.44.22h-.18a6.64,6.64,0,0,1-1.73-.57A12.23,12.23,0,0,1,36.89,21.38Zm2.26,10.83c-.53-.39-1-.72-1.31-1s-.51-.47-.51-.55.11-.23.31-.4a1.08,1.08,0,0,1,.45-.14h0l3.07,1.6c.53.27,1,.5,1.33.71l2.7,1.38.36.17.36.49a1.06,1.06,0,0,1,.13.58c0,.59-.25.89-.76.89a9,9,0,0,1-2.3-1.2A37.48,37.48,0,0,1,39.15,32.21Z"/><path class="cls-1" d="M161.93,55.07a1.48,1.48,0,0,1,.54,1.11.62.62,0,0,1-.36.53,1.37,1.37,0,0,1-.71.31c-.21,0-.33,0-.35-.08L160,56.23l-1.15-.76-2.05-1.69a18.16,18.16,0,0,1-2.53-1.86A30.41,30.41,0,0,0,151,49.61a5.89,5.89,0,0,0-2.84-.75q-.23,0-.54.57a4.75,4.75,0,0,0-.35.74,5.14,5.14,0,0,1-.36.77,27.82,27.82,0,0,1-2.61,4.71,3.88,3.88,0,0,1-3.2,1.86h-.4q-1.11,0-1.11-.57c0-.15.27-.35.8-.58a2.11,2.11,0,0,0,.84-.36,21.54,21.54,0,0,0,3.69-5.28,40.09,40.09,0,0,0,2.84-7.06,20.67,20.67,0,0,0,1.11-6.12v-.4l-.18-.31v-.71c0-.12.19-.18.58-.18s.66.31.84.93a9.13,9.13,0,0,1,.18,1.82,15.65,15.65,0,0,1-.22,2.84l-.76,3.33-.4,1.07a4.29,4.29,0,0,0-.4,1.59c0,.06.05.09.14.09h0l.75-.48.76-.49a16.39,16.39,0,0,0,2-1.56,13.32,13.32,0,0,0,1.47-1.64l.57-.93a4.48,4.48,0,0,0,.54-1.07,3.12,3.12,0,0,0,.17-1,7.31,7.31,0,0,0,0-.93,4.3,4.3,0,0,1-.09-.84,1.08,1.08,0,0,0-.66-.63,3.23,3.23,0,0,0-1-.31.34.34,0,0,1-.14-.31v-.22c0-.29.21-.44.62-.44h.05l1.2.22a2,2,0,0,1,1.37,1.42,7.3,7.3,0,0,1,.4,2.35,5.11,5.11,0,0,1-1.33,3.33,35.14,35.14,0,0,1-3.37,3.55c-.15.15-.31.3-.49.45a1.22,1.22,0,0,0-.27.26l.09.09a10,10,0,0,1,1.33.58l.93.58q1.11.61,2.22,1.11l3.38,2.44a5.3,5.3,0,0,0,1.42,1A5.82,5.82,0,0,1,161.93,55.07ZM141.51,37.76c.3,0,.46.07.49.22l.49,2.75.22,1.2a14.16,14.16,0,0,1,.58,2.44l.22,1.87c0,.18.18.32.44.44s.4.18.4.27a.46.46,0,0,1-.13.35,3.92,3.92,0,0,0-.13.62,5.85,5.85,0,0,1-.22.67,2.53,2.53,0,0,1-.45.44H143a.89.89,0,0,1-.84-.39,1.45,1.45,0,0,1-.36-.85l-.22-.62L141,39.8V39C141,38.16,141.16,37.76,141.51,37.76Zm0-2.84a1,1,0,0,1,.27-.67,2.36,2.36,0,0,1,.49-.66.55.55,0,0,1,.31-.05.4.4,0,0,1,.44.4c.06.27.14.4.22.4a2.41,2.41,0,0,0,1.16-.22l7.37-1.82,1-.49,1.11-.58a8.09,8.09,0,0,1,1.65-.66c.14,0,.22.06.22.17a1.73,1.73,0,0,1-.89,1.51,13.33,13.33,0,0,1-2.49,1.25L151.1,34l-2.57.93-.65.13q-.42.09-1.08.27a16.74,16.74,0,0,1-3.73.62,2.12,2.12,0,0,1-1.16-.22A.89.89,0,0,1,141.51,34.92Zm.09-15.41A.63.63,0,0,1,142,19a2,2,0,0,0,.35-.31h.13c.15,0,.33.14.54.4a.56.56,0,0,0,.57.36,17.91,17.91,0,0,0,3.47.35h.31l5.5-.44h.27a2.15,2.15,0,0,1,1.91.84,6.86,6.86,0,0,1,.71,2.4v1.11a23.92,23.92,0,0,1-.53,5c-.36,1.69-1.14,2.53-2.36,2.53h-.26l-.63-.57a.51.51,0,0,1-.08-.32l1-1.68a5,5,0,0,0,1-2.53c0-.09-.08-.14-.22-.14a13.92,13.92,0,0,0-3.11.49,13.53,13.53,0,0,1-3.33.53,8.27,8.27,0,0,1-1.6-.13,3.48,3.48,0,0,1-1.28-.49,1,1,0,0,1-.4-.75c0-.27.08-.42.26-.44.5,0,1.39,0,2.67,0a41.51,41.51,0,0,0,6.43-.4c.45-.09.71-.25.8-.49a1.86,1.86,0,0,0,.18-.84,6.35,6.35,0,0,1-.05-.8,6.53,6.53,0,0,0-.11-1.4c-.07-.34-.17-.51-.28-.51H153l-2.13.36h-.23l-3.15.35h-.22a15.84,15.84,0,0,1-4.44-.8,3.23,3.23,0,0,1-.75-.49A1.19,1.19,0,0,1,141.6,19.51Z"/><path class="cls-1" d="M273,34.87v.58c0,.06-.12.19-.36.4a.81.81,0,0,1-.53.31,1.11,1.11,0,0,1-.57-.22,1.51,1.51,0,0,0-.71-.22,5.78,5.78,0,0,0-1.38.31,4.42,4.42,0,0,1-1.16.31H268l-.09-.18a.7.7,0,0,1,.27-.44,5.53,5.53,0,0,1,.66-.4c.33-.12.49-.25.49-.4a11.46,11.46,0,0,0-2.75-1.33,19.43,19.43,0,0,0-3.24-1.16h-.09l-.05.31-.09,5.82v1l.09,0,.27,0,1.64-.67q2.09-.75,2.4-.84a5.66,5.66,0,0,1,1.82-.31c.33,0,.53.06.62.18a1.14,1.14,0,0,1,.13.66c0,.53-.39,1-1.19,1.29A21.9,21.9,0,0,1,265.51,41a1.44,1.44,0,0,1-.29.09l-.64.18a4.91,4.91,0,0,0-1.11.36c-.24.14-.36.25-.36.31l-.35,17.75a1.73,1.73,0,0,1-.32,1.16,1.57,1.57,0,0,1-1.15.4c-.65,0-1.15-.46-1.51-1.38A15.77,15.77,0,0,1,259,56.8l-.45-3.1-.89-11,0,0h0l-.49.09h-.05q-.13,0-.75-.09a3.2,3.2,0,0,0-.76,0l-1.42-.26-.44-.23c-.24-.14-.36-.25-.36-.31v-.71a.64.64,0,0,1,.18-.35.68.68,0,0,1,.31-.18h0a.57.57,0,0,1,.4.18.5.5,0,0,0,.4.22h.8c1.42,0,2.66,0,3.72-.13a2.79,2.79,0,0,0,2-.94l.18-7V32l-.09-.09c-.24-.24-1.3-.36-3.2-.36a.72.72,0,0,0-.53.18,1.67,1.67,0,0,0-.4.49l-5.64,8.39-.44.53-1.33,1.42-.85.4c-.5.18-.75.37-.75.58a.25.25,0,0,0,.22.27c.12,0,.18.07.18.13v.49l-.89,4.44-.13,2.79c0,.12-.1.28-.31.49a1.26,1.26,0,0,1-.67.22,1.51,1.51,0,0,1-.8-.26,1.86,1.86,0,0,1-.44-.76,2.08,2.08,0,0,1,.18-.93l.8-8.48v-.31a4.31,4.31,0,0,1,0-.75,6.44,6.44,0,0,1,.13-.67l.18-1,.05-1.2,0-1.68c.06-1.25.09-2.09.09-2.53,0-1.39-.06-2.86-.18-4.4,0-.18-.1-.5-.22-1s-.24-.91-.36-1.29c-.2-.8-.5-1.2-.88-1.2h-.09a23.91,23.91,0,0,1-2.67,1.86,3.94,3.94,0,0,0-.71.4,4.88,4.88,0,0,1-.71.4l-.53.09h-.93c-.24,0-.46-.32-.67-1l.14-.27a5.17,5.17,0,0,0,3.15-1.64c.5-.57.91-1,1.24-1.34a1.62,1.62,0,0,0,1-.35,11.14,11.14,0,0,0,1.07-.8l.62-.49a4.77,4.77,0,0,1,1.06-.53l2.67-1.78a5.2,5.2,0,0,1,1.51-.75,4,4,0,0,1,1.55-.31h.18a1.55,1.55,0,0,1,.22.26,1.4,1.4,0,0,1,0,.4v.05a.88.88,0,0,1-.57.4,1.87,1.87,0,0,0-.58.18l-1.51.93L246.29,25a.37.37,0,0,0-.18.26v.09a7.71,7.71,0,0,1,.62,1.07l.58,1.15a2.43,2.43,0,0,0,1.24-.58l.8-.57,3.51-1.78,7.59-3.06.35-.09a.24.24,0,0,0,.18-.27l0-1.11v-.44a1.62,1.62,0,0,1,.4-.49,1.12,1.12,0,0,1,.53-.13,16.68,16.68,0,0,1,2,.13c.76.18,1.15.43,1.15.76v.62a.62.62,0,0,1-.31.58,7.11,7.11,0,0,1-1,.48,3.52,3.52,0,0,0-.76.36c-.23.15-.35.3-.35.44a10.59,10.59,0,0,0,.31,2.27l.26,4.75v.75a1.71,1.71,0,0,0,.18.93,20.59,20.59,0,0,1,2.62.71l3.15,1.2a31.61,31.61,0,0,0,3.16,1.2,1.65,1.65,0,0,1,.44.22C272.91,34.65,273,34.78,273,34.87Zm-11.67-10,0-1.33,0-.58H261l-8.65,3.6a11.89,11.89,0,0,1-1.33.62l-1.2.49a6,6,0,0,0-1.51.8c-.39.23-.58.41-.58.53l.13.4.36,2.57a33.57,33.57,0,0,1,.27,5.15l-.09,2-.09,2v.13a2.67,2.67,0,0,0,.66-.57l.32-.33a1,1,0,0,1,.26-.25l1.91-2.4,1.07-1.37c1.86-2.52,2.79-3.92,2.79-4.22a.48.48,0,0,0,0-.22l-.09-.18-.09-.35a3.91,3.91,0,0,1,.89-.76,6.74,6.74,0,0,0,1.33-1.11l2.49-3a.62.62,0,0,1,.53-.35c.12,0,.19.07.22.22a1.4,1.4,0,0,1,.09.4,1.21,1.21,0,0,1-.13.58,1.23,1.23,0,0,0-.14.24.3.3,0,0,1-.13.16l-.93,1.42-.53.75-.36.44-.05.14v0l.05.05c.47,0,.89,0,1.24,0q1.06.09,1.47.09h.18l0-.09V27.73C261.38,26.3,261.36,25.34,261.34,24.84ZM261,42.29l-.08,0a7,7,0,0,0-1.42.18,5.91,5.91,0,0,0-1.07.31v.44l.31,2.27.05.22.75,6.08a14.2,14.2,0,0,1,.27,1.65A4,4,0,0,1,260,54c0,.23.07.47.13.74l.09.13v.09l0,.13v0l.09.26a1.88,1.88,0,0,0,.26-1.2l0-1.51L261,42.55v-.26Zm3-22.11c0-.18-.16-.27-.49-.27h-.58l-.4,0c-.26,0-.4.1-.4.31a2.48,2.48,0,0,0,.05.62s0,0,.13,0a3.22,3.22,0,0,0,1-.26C263.78,20.4,264,20.27,264,20.18Z"/><rect class="cls-2" width="300" height="80"/></g></g></g></svg>