<?xml version="1.0" encoding="UTF-8"?>
<svg width="20px" height="20px" viewBox="0 0 20 20" version="1.1" xmlns="http://www.w3.org/2000/svg" xmlns:xlink="http://www.w3.org/1999/xlink">
    <!-- Generator: Sketch 51.2 (57519) - http://www.bohemiancoding.com/sketch -->
    <title>Combined Shape Copy</title>
    <desc>Created with Sketch.</desc>
    <defs>
        <path d="M12,250 L6,250 L6,256 C2.6862915,256 4.05812251e-16,253.313708 0,250 C-4.05812251e-16,246.686292 2.6862915,244 6,244 C9.3137085,244 12,246.686292 12,250 Z" id="path-1"></path>
        <filter x="-45.8%" y="-45.8%" width="191.7%" height="191.7%" filterUnits="objectBoundingBox" id="filter-2">
            <feMorphology radius="1.5" operator="dilate" in="SourceAlpha" result="shadowSpreadOuter1"></feMorphology>
            <feOffset dx="0" dy="0" in="shadowSpreadOuter1" result="shadowOffsetOuter1"></feOffset>
            <feGaussianBlur stdDeviation="1" in="shadowOffsetOuter1" result="shadowBlurOuter1"></feGaussianBlur>
            <feComposite in="shadowBlurOuter1" in2="SourceAlpha" operator="out" result="shadowBlurOuter1"></feComposite>
            <feColorMatrix values="0 0 0 0 0   0 0 0 0 0   0 0 0 0 0  0 0 0 0.14 0" type="matrix" in="shadowBlurOuter1"></feColorMatrix>
        </filter>
    </defs>
    <g id="编辑器改版" stroke="none" stroke-width="1" fill="none" fill-rule="evenodd">
        <g id="替换文字" transform="translate(-747.000000, -595.000000)" fill-rule="nonzero">
            <g id="Group-10" transform="translate(751.000000, 355.000000)">
                <g id="Combined-Shape-Copy" transform="translate(6.000000, 250.000000) scale(1, -1) translate(-6.000000, -250.000000) ">
                    <use fill="black" fill-opacity="1" filter="url(#filter-2)" xlink:href="#path-1"></use>
                    <path stroke="#FFFFFF" stroke-width="1" d="M6.5,250.5 L6.5,256.5 L6,256.5 C2.41014913,256.5 -0.5,253.589851 -0.5,250 C-0.5,246.410149 2.41014913,243.5 6,243.5 C9.58985087,243.5 12.5,246.410149 12.5,250 L12.5,250.5 L6.5,250.5 Z" fill="#ffd634" fill-rule="evenodd"></path>
                </g>
            </g>
        </g>
    </g>
</svg>